{"glyphs":{"0":{"ha":770,"x_min":153,"x_max":838,"o":"m 463 970 q 610 1013 534 1013 q 738 970 686 1013 q 838 685 838 886 q 812 472 838 592 q 725 238 787 353 q 574 52 664 123 q 396 -20 484 -20 q 255 23 308 -20 q 153 304 153 106 q 240 696 153 503 q 463 970 328 890 m 321 111 q 407 77 354 77 q 510 115 459 77 q 600 214 562 153 q 729 677 729 427 q 729 715 729 681 q 716 799 729 749 q 671 883 703 850 q 587 917 639 917 q 484 878 535 917 q 327 644 393 809 q 260 327 260 479 q 321 111 260 174 z "},"1":{"ha":770,"x_min":395,"x_max":711,"o":"m 568 818 l 461 818 l 648 987 l 711 987 l 501 0 l 395 0 l 568 818 z "},"2":{"ha":770,"x_min":74,"x_max":831,"o":"m 338 753 l 252 790 q 399 949 298 884 q 602 1014 500 1014 q 799 918 737 1014 q 831 812 831 868 q 823 718 831 756 q 799 646 815 680 q 763 586 783 613 q 716 533 743 559 q 665 487 688 506 q 610 447 641 468 q 560 414 580 426 q 514 387 540 402 q 322 242 412 328 q 219 96 232 156 l 709 96 l 689 0 l 74 0 q 368 393 121 220 q 476 464 427 435 q 538 500 525 492 q 575 525 551 509 q 614 554 600 541 q 648 586 629 566 q 680 623 667 605 q 725 765 725 692 q 684 878 725 838 q 578 918 642 918 q 446 875 513 918 q 338 753 379 832 z "},"3":{"ha":764,"x_min":113,"x_max":824,"o":"m 113 171 l 225 203 q 285 112 239 147 q 387 77 331 77 q 559 134 481 77 q 657 288 637 192 q 663 334 663 313 q 609 453 663 410 q 479 496 555 496 l 426 496 l 444 581 l 511 581 q 635 631 576 581 q 711 757 694 681 q 714 789 714 771 q 676 884 714 846 q 582 921 637 921 l 578 921 q 476 892 524 921 q 397 814 429 863 l 313 857 q 441 972 364 928 q 606 1015 518 1015 q 759 958 694 1015 q 824 809 824 901 q 818 757 824 784 q 749 619 801 677 q 648 539 697 562 q 731 470 692 525 q 770 342 770 416 q 764 288 770 316 q 621 67 735 155 q 367 -20 507 -20 q 207 32 282 -20 q 113 171 132 84 z "},"4":{"ha":770,"x_min":117,"x_max":795,"o":"m 795 987 l 663 364 l 791 364 l 771 269 l 643 269 l 586 0 l 479 0 l 536 269 l 117 269 l 680 987 l 795 987 m 659 828 l 298 366 l 560 366 l 659 828 z "},"5":{"ha":770,"x_min":139,"x_max":864,"o":"m 535 547 q 507 547 535 547 q 453 539 478 547 q 414 527 427 532 q 387 514 401 522 q 366 503 372 507 q 336 482 342 488 l 248 533 l 408 987 l 864 987 l 844 892 l 477 892 l 371 602 q 548 639 440 639 q 721 573 656 639 q 787 396 786 507 q 778 311 787 355 q 644 78 749 175 q 412 -20 538 -20 q 216 47 286 -20 q 139 224 146 114 l 249 243 q 422 77 270 77 q 581 142 511 77 q 672 313 650 208 q 678 366 678 340 l 678 369 q 635 497 679 446 q 535 547 592 547 z "},"6":{"ha":770,"x_min":140,"x_max":763,"o":"m 568 141 q 659 320 659 218 q 614 435 659 389 q 486 481 568 481 q 335 420 404 481 q 249 279 266 359 q 243 237 243 256 q 290 125 243 168 q 417 82 336 82 q 568 141 498 82 m 415 561 q 512 582 469 582 q 692 514 622 582 q 763 340 763 446 l 763 336 q 711 171 763 253 q 517 7 639 56 q 383 -20 452 -20 q 206 50 271 -20 q 140 220 140 120 q 211 433 140 323 q 327 590 252 497 l 637 986 l 743 986 l 415 561 z "},"7":{"ha":770,"x_min":232,"x_max":941,"o":"m 941 987 l 355 0 l 232 0 l 770 886 l 264 886 l 285 987 l 941 987 z "},"8":{"ha":770,"x_min":125,"x_max":842,"o":"m 235 247 q 285 124 235 172 q 419 77 334 77 q 583 140 504 77 q 682 293 663 203 q 687 338 687 318 q 634 457 687 412 q 495 501 582 501 q 335 445 409 501 q 235 247 241 375 m 456 875 q 382 722 382 814 q 421 631 382 664 q 530 597 460 597 q 657 642 600 597 q 730 762 714 686 q 734 799 734 779 q 697 887 734 854 q 586 920 660 920 q 456 875 511 920 m 280 762 q 398 943 303 870 q 604 1015 492 1015 q 779 959 715 1015 q 842 814 842 903 l 842 809 q 837 762 842 788 q 664 547 807 622 q 740 490 709 524 q 795 347 795 425 q 709 133 795 234 q 563 21 648 61 q 391 -20 479 -20 q 200 50 275 -20 q 125 228 126 120 q 259 490 132 389 q 361 547 308 528 q 273 703 273 607 l 273 707 q 280 762 273 728 z "},"9":{"ha":770,"x_min":242,"x_max":865,"o":"m 437 850 q 346 675 346 772 q 346 671 346 675 q 392 556 346 602 q 519 510 437 510 q 671 571 602 510 q 757 711 740 631 q 761 753 762 737 q 715 866 761 823 q 588 909 669 909 q 437 850 508 909 m 590 429 q 492 408 536 408 q 312 476 382 408 q 242 650 242 545 q 294 820 242 738 q 489 985 367 935 q 626 1011 554 1011 q 753 977 697 1011 q 865 772 865 910 q 793 557 865 670 q 716 448 751 492 q 677 400 680 404 l 373 0 l 259 0 l 590 429 z "}," ":{"ha":418,"x_min":0,"x_max":0,"o":""},"!":{"ha":286,"x_min":82,"x_max":420,"o":"m 82 49 q 86 73 81 52 q 116 116 90 94 q 170 137 142 137 q 215 121 198 137 q 231 88 231 104 q 201 16 231 41 q 143 -9 171 -9 q 98 7 115 -9 q 82 49 82 24 m 254 298 q 236 270 251 281 q 207 259 222 258 q 183 268 192 259 q 174 284 174 276 q 175 298 174 293 l 283 942 q 313 987 289 968 q 362 1006 337 1006 q 404 991 387 1006 q 420 961 420 976 q 419 943 420 947 l 254 298 z "},"\"":{"ha":468,"x_min":258,"x_max":600,"o":"m 288 708 q 258 732 258 708 q 259 741 258 739 l 299 994 q 322 1032 304 1019 q 359 1046 339 1046 l 361 1046 q 390 1036 378 1046 q 401 994 405 1023 l 332 741 q 315 717 328 726 q 288 708 302 708 m 487 708 q 457 734 456 708 l 457 741 l 498 994 q 520 1032 503 1019 q 557 1046 538 1046 l 560 1046 q 589 1036 578 1046 q 600 1016 600 1026 q 599 994 600 1006 l 531 741 q 514 717 527 726 q 487 708 500 708 z "},"#":{"ha":1078,"x_min":146,"x_max":1151,"o":"m 736 371 l 785 600 l 553 600 l 504 371 l 736 371 m 817 275 l 766 36 l 665 36 l 715 275 l 484 275 l 433 36 l 331 36 l 382 275 l 146 275 l 166 371 l 402 371 l 451 600 l 215 600 l 235 694 l 471 694 l 526 951 l 627 951 l 573 694 l 805 694 l 859 951 l 960 951 l 906 694 l 1151 694 l 1131 600 l 886 600 l 837 371 l 1082 371 l 1061 275 l 817 275 z "},"$":{"ha":690,"x_min":56,"x_max":803,"o":"m 529 1042 l 616 1042 l 598 957 q 803 792 736 946 l 707 738 q 660 817 692 783 q 577 857 627 850 l 507 526 q 541 512 518 521 q 576 497 564 503 q 608 483 588 492 q 639 467 628 474 q 666 448 650 459 q 689 424 681 436 q 707 397 698 412 q 722 332 722 368 q 604 72 722 176 q 391 -18 515 -5 l 372 -105 l 286 -105 l 304 -18 q 142 43 196 -8 q 56 180 94 88 l 159 235 q 200 152 187 170 q 227 122 214 135 q 253 102 239 109 q 326 79 287 83 l 406 456 q 217 576 256 494 q 201 646 201 610 q 316 884 201 795 q 510 956 402 949 l 529 1042 m 427 554 l 492 861 q 379 814 427 853 q 313 668 313 760 q 342 594 313 619 q 427 554 371 569 m 486 427 l 412 81 q 538 140 488 93 q 605 260 589 188 q 609 292 609 281 q 486 427 609 387 z "},"%":{"ha":951,"x_min":205,"x_max":962,"o":"m 856 274 q 834 331 856 309 q 774 354 812 354 q 695 319 736 354 q 655 227 655 283 q 675 170 655 192 q 734 149 696 149 q 809 178 773 149 q 854 253 844 208 q 856 274 857 267 m 566 214 q 652 382 566 312 q 789 436 718 436 q 903 395 861 436 q 945 291 945 353 q 859 123 945 193 q 722 71 793 71 q 608 111 650 71 q 566 214 566 152 m 312 730 q 309 705 311 726 q 330 648 310 669 q 390 627 351 627 q 464 656 429 627 q 512 752 512 696 q 490 809 512 786 q 430 832 467 832 q 356 802 392 832 q 312 730 321 771 m 222 692 q 308 861 222 790 q 445 914 373 914 q 559 873 517 914 q 601 768 601 831 q 515 602 601 671 q 377 549 449 549 q 264 589 306 549 q 222 692 222 630 m 307 93 l 205 93 l 865 895 l 962 895 l 307 93 z "},"&":{"ha":842,"x_min":123,"x_max":865,"o":"m 723 814 q 676 891 708 865 q 578 917 644 917 q 456 873 512 917 q 385 760 400 829 q 381 724 381 741 q 419 631 381 667 q 511 595 458 595 l 579 595 l 559 498 l 493 498 q 327 445 396 498 q 237 292 258 391 q 231 241 231 267 q 280 121 231 165 q 405 77 328 77 q 550 137 481 77 q 637 277 620 197 l 505 277 l 524 371 l 865 371 l 844 275 l 749 275 q 669 122 732 199 q 376 -20 550 -20 q 195 51 268 -20 q 123 229 123 121 q 170 394 123 315 q 302 525 218 476 q 365 551 336 545 q 298 609 324 570 q 272 688 272 647 q 280 769 272 730 q 317 853 288 808 q 387 935 346 899 q 600 1013 478 1013 q 746 969 688 1013 q 824 859 804 926 l 723 814 z "},"'":{"ha":259,"x_min":258,"x_max":401,"o":"m 288 708 q 258 732 258 708 q 259 741 258 739 l 299 994 q 322 1032 304 1019 q 359 1046 339 1046 l 361 1046 q 390 1036 378 1046 q 401 994 405 1023 l 332 741 q 315 717 328 726 q 288 708 302 708 z "},"(":{"ha":372,"x_min":111,"x_max":533,"o":"m 177 -57 q 111 281 111 94 q 236 783 111 530 q 412 1051 308 929 l 533 1051 q 236 494 299 792 q 217 313 217 404 q 298 -57 217 113 l 177 -57 z "},")":{"ha":363,"x_min":49,"x_max":469,"o":"m 168 -57 l 49 -57 q 239 214 162 69 q 340 468 316 358 q 363 673 363 577 q 284 1051 363 882 l 404 1051 q 469 701 469 896 q 444 471 469 591 q 347 209 418 351 q 168 -57 275 66 z "},"*":{"ha":619,"x_min":113,"x_max":696,"o":"m 155 381 q 113 418 113 381 q 133 466 113 450 q 176 483 153 483 l 342 473 l 281 614 q 280 649 276 628 q 314 684 283 669 q 343 692 330 692 q 380 665 372 692 l 423 517 l 528 664 q 569 691 548 691 q 606 681 590 691 q 621 650 621 671 q 606 613 621 634 l 484 473 l 654 483 q 685 473 673 483 q 696 452 696 463 q 693 423 696 441 q 670 393 689 405 q 632 381 652 381 l 469 391 l 530 252 q 532 224 536 237 q 498 182 527 197 q 467 174 482 174 q 431 201 439 174 l 388 351 l 279 199 q 238 172 260 172 q 201 182 216 172 q 186 213 186 192 q 201 250 186 231 l 323 391 l 155 381 z "},"+":{"ha":606,"x_min":135,"x_max":668,"o":"m 155 482 l 363 482 l 408 693 l 504 693 l 459 482 l 668 482 l 648 386 l 439 386 l 394 175 l 298 175 l 343 386 l 135 386 l 155 482 z "},",":{"ha":271,"x_min":67,"x_max":231,"o":"m 170 137 q 184 137 170 137 q 215 121 198 137 q 231 78 231 104 q 214 13 231 52 q 179 -52 197 -26 q 149 -94 161 -77 q 118 -130 136 -111 q 100 -150 101 -149 l 67 -129 q 141 -8 131 -58 q 98 8 115 -8 q 82 49 82 24 q 86 73 81 52 q 116 116 90 94 q 170 137 142 137 z "},"-":{"ha":587,"x_min":155,"x_max":635,"o":"m 176 478 l 635 478 l 614 382 l 155 382 l 176 478 z "},".":{"ha":275,"x_min":82,"x_max":231,"o":"m 82 49 q 86 73 81 52 q 116 116 90 94 q 170 137 142 137 q 215 121 198 137 q 231 88 231 104 q 201 16 231 41 q 143 -9 171 -9 q 98 7 115 -9 q 82 49 82 24 z "},"/":{"ha":548,"x_min":-16,"x_max":800,"o":"m 92 0 l -16 0 l 693 1047 l 800 1047 l 92 0 z "},":":{"ha":287,"x_min":89,"x_max":343,"o":"m 89 49 q 93 73 88 52 q 123 116 97 94 q 177 137 149 137 q 221 121 205 137 q 238 88 238 104 q 208 16 238 41 q 150 -9 178 -9 q 105 7 121 -9 q 89 49 89 24 m 194 543 q 198 567 193 546 q 228 610 202 589 q 282 631 254 631 q 327 615 311 631 q 343 582 343 598 q 313 511 343 536 q 255 486 283 486 q 210 502 227 486 q 194 543 194 518 z "},";":{"ha":287,"x_min":74,"x_max":343,"o":"m 194 543 q 198 567 193 546 q 228 610 202 589 q 282 631 254 631 q 327 615 311 631 q 343 582 343 598 q 313 511 343 536 q 255 486 283 486 q 210 502 227 486 q 194 543 194 518 m 177 137 q 191 137 177 137 q 221 121 205 137 q 238 78 238 104 q 221 13 238 52 q 186 -52 203 -26 q 155 -94 168 -77 q 125 -130 142 -111 q 107 -150 108 -149 l 74 -129 q 148 -8 138 -58 q 105 8 121 -8 q 89 49 89 24 q 93 73 88 52 q 123 116 97 94 q 177 137 149 137 z "},"<":{"ha":572,"x_min":149,"x_max":715,"o":"m 405 16 l 149 431 l 580 838 l 715 838 l 282 429 l 540 16 l 405 16 z "},"=":{"ha":615,"x_min":96,"x_max":712,"o":"m 117 339 l 659 339 l 639 243 l 96 243 l 117 339 m 170 587 l 712 587 l 692 492 l 149 492 l 170 587 z "},">":{"ha":581,"x_min":65,"x_max":632,"o":"m 200 14 l 65 14 l 498 429 l 241 838 l 376 838 l 632 431 l 200 14 z "},"?":{"ha":668,"x_min":199,"x_max":798,"o":"m 281 49 q 284 73 280 52 q 315 116 289 94 q 369 137 341 137 q 414 121 397 137 q 430 88 430 104 q 400 16 430 41 q 341 -9 370 -9 q 297 7 313 -9 q 281 49 281 24 m 460 340 l 441 244 l 334 244 l 355 342 q 391 432 368 400 q 438 484 415 464 q 477 516 460 505 q 520 548 493 528 q 568 582 548 567 q 595 603 588 597 q 622 627 603 609 q 650 658 642 645 q 688 786 688 721 q 646 885 688 850 q 526 920 604 920 q 378 859 449 920 q 294 736 308 798 l 199 753 q 334 940 235 864 q 547 1015 433 1015 q 762 923 694 1015 q 798 807 798 875 q 593 492 798 624 q 533 454 555 469 q 490 409 511 439 q 460 340 469 380 z "},"@":{"ha":1101,"x_min":121,"x_max":1183,"o":"m 876 546 l 868 467 q 889 400 868 430 q 947 371 911 371 q 1028 419 983 371 q 1083 517 1073 468 q 1094 615 1094 566 q 1069 723 1094 664 q 999 828 1044 783 q 888 901 955 873 q 738 928 821 928 q 566 892 654 928 q 408 798 478 857 q 288 659 338 739 q 210 397 210 535 q 307 160 210 258 q 559 62 404 62 q 696 85 623 62 q 828 144 770 109 l 866 75 q 541 -24 709 -24 q 370 7 449 -24 q 237 93 292 39 q 121 385 121 208 q 258 755 121 585 q 486 944 352 875 q 762 1014 621 1014 q 933 982 854 1014 q 1067 897 1013 951 q 1183 619 1183 783 q 1135 433 1183 513 q 999 302 1083 345 q 928 283 962 283 q 857 303 894 283 q 800 351 821 322 q 708 287 761 311 q 602 264 656 264 q 466 316 519 264 q 414 448 414 369 q 419 496 414 470 q 522 659 439 591 q 692 726 604 726 q 828 674 781 726 q 876 546 876 623 m 572 598 q 503 463 503 543 q 536 381 503 413 q 625 350 569 350 q 727 392 682 350 q 786 496 773 434 q 789 521 789 507 q 758 606 789 570 q 676 642 728 642 q 572 598 625 642 z "},"A":{"ha":883,"x_min":49,"x_max":846,"o":"m 622 823 l 398 421 l 680 421 l 622 823 m 685 329 l 348 329 l 168 0 l 49 0 l 614 987 q 700 987 614 987 l 846 0 l 724 0 l 685 329 z "},"B":{"ha":800,"x_min":82,"x_max":846,"o":"m 291 478 l 210 96 l 426 96 q 607 153 539 96 q 692 292 675 210 q 697 331 697 315 l 697 335 q 651 438 698 399 q 507 478 605 478 l 291 478 m 540 892 l 379 893 l 311 572 l 471 572 q 690 650 625 572 q 728 720 721 686 q 736 772 736 753 q 727 810 736 790 q 699 850 719 831 q 540 892 656 892 m 292 987 l 559 987 q 810 898 741 987 q 846 784 846 850 q 754 591 840 667 q 625 530 684 530 q 793 403 758 530 q 802 342 802 371 q 795 283 802 313 q 777 221 789 254 q 735 147 765 189 q 666 74 706 104 q 557 22 625 43 q 406 0 490 0 l 82 0 l 292 987 z "},"C":{"ha":827,"x_min":155,"x_max":954,"o":"m 833 199 q 696 49 781 111 q 471 -20 602 -20 q 229 85 308 -20 q 155 337 155 183 q 221 647 155 492 q 405 906 287 805 q 692 1014 530 1014 q 907 921 838 1014 q 954 810 945 871 l 847 782 q 791 881 840 844 q 671 918 742 918 l 670 918 q 534 882 600 918 q 420 784 469 845 q 285 492 320 658 q 271 353 271 426 q 294 217 271 281 q 369 114 318 153 q 491 75 420 75 q 634 120 563 75 q 740 227 705 164 l 833 199 z "},"D":{"ha":827,"x_min":82,"x_max":902,"o":"m 724 331 q 787 614 787 475 q 642 876 787 823 q 545 892 599 892 l 379 892 l 210 96 l 376 96 q 646 207 549 96 q 724 331 692 261 m 887 493 q 788 243 857 353 q 613 66 719 132 q 383 0 507 0 l 82 0 l 292 987 l 593 987 q 826 883 747 987 q 902 630 902 783 q 887 493 902 562 z "},"E":{"ha":774,"x_min":82,"x_max":916,"o":"m 292 987 l 916 987 l 897 892 l 379 892 l 307 554 l 795 554 l 775 458 l 287 458 l 210 96 l 727 96 l 707 0 l 82 0 l 292 987 z "},"F":{"ha":777,"x_min":82,"x_max":916,"o":"m 292 987 l 916 987 l 897 892 l 379 892 l 307 554 l 795 554 l 775 458 l 287 458 l 189 0 l 82 0 l 292 987 z "},"G":{"ha":924,"x_min":157,"x_max":953,"o":"m 471 -20 q 233 88 313 -20 q 157 349 157 191 q 297 778 157 581 q 536 982 400 924 q 705 1014 611 1014 q 953 854 885 1014 l 849 808 q 782 891 821 863 q 679 918 743 918 q 561 892 615 918 q 463 823 506 866 q 382 724 419 780 q 273 370 273 559 q 368 117 273 196 q 483 75 418 75 q 598 96 548 75 q 683 149 648 117 q 745 222 718 180 q 810 376 794 296 l 544 376 l 564 472 l 937 472 l 924 414 q 821 176 897 283 q 475 -20 681 -20 l 471 -20 z "},"H":{"ha":812,"x_min":82,"x_max":954,"o":"m 292 987 l 399 987 l 307 553 l 755 553 l 847 987 l 954 987 l 745 0 l 637 0 l 734 457 l 286 457 l 189 0 l 82 0 l 292 987 z "},"I":{"ha":301,"x_min":104,"x_max":420,"o":"m 104 0 l 314 987 l 420 987 l 211 0 l 104 0 z "},"J":{"ha":773,"x_min":142,"x_max":907,"o":"m 154 363 l 250 363 q 241 292 241 322 q 283 143 241 205 q 394 82 326 82 q 521 125 463 82 q 667 363 634 209 l 800 987 l 907 987 l 774 363 q 629 88 739 196 q 379 -20 518 -20 q 204 57 267 -20 q 142 256 141 134 l 142 260 q 154 363 142 304 z "},"K":{"ha":840,"x_min":82,"x_max":1036,"o":"m 292 987 l 399 987 l 290 476 l 905 987 l 1036 987 l 503 545 l 838 0 l 697 0 l 418 476 l 264 350 l 189 0 l 82 0 l 292 987 z "},"L":{"ha":749,"x_min":82,"x_max":728,"o":"m 292 987 l 399 987 l 210 96 l 728 96 l 708 0 l 82 0 l 292 987 z "},"M":{"ha":1059,"x_min":82,"x_max":1201,"o":"m 82 0 l 292 987 l 437 987 l 569 142 l 1061 987 l 1201 987 l 991 0 l 888 0 l 1061 817 l 600 11 l 478 11 l 359 817 l 186 0 l 82 0 z "},"N":{"ha":862,"x_min":82,"x_max":1004,"o":"m 82 0 l 292 987 l 395 987 l 730 200 l 897 987 l 1004 987 l 794 0 l 696 0 l 361 807 l 189 0 l 82 0 z "},"O":{"ha":904,"x_min":151,"x_max":977,"o":"m 762 267 q 865 646 865 442 q 819 834 865 758 q 654 918 770 918 q 535 891 591 918 q 438 821 479 864 q 365 720 398 778 q 263 344 267 549 q 309 159 263 232 q 475 77 359 77 q 762 267 651 77 m 151 347 q 282 770 151 568 q 515 981 380 921 q 665 1014 591 1014 q 792 993 740 1014 q 879 937 845 972 q 935 854 913 902 q 977 667 977 765 q 962 502 977 569 q 926 378 948 435 q 873 263 905 321 q 799 155 842 205 q 705 65 755 104 q 454 -20 595 -20 q 193 138 267 -20 q 151 347 151 227 z "},"P":{"ha":745,"x_min":82,"x_max":858,"o":"m 301 525 l 441 525 q 741 710 703 525 q 745 751 746 733 q 519 892 745 892 l 379 892 l 301 525 m 292 987 l 538 987 q 776 928 694 987 q 858 768 857 868 q 713 507 850 606 q 420 428 603 428 l 280 428 l 189 0 l 82 0 l 292 987 z "},"Q":{"ha":929,"x_min":151,"x_max":981,"o":"m 853 492 q 870 630 870 573 q 863 727 870 687 q 840 802 856 766 q 799 863 823 838 q 665 918 745 918 q 522 883 585 918 q 412 787 459 847 q 279 492 315 661 q 264 353 264 420 l 264 350 q 311 162 264 238 q 486 77 361 77 q 567 91 522 77 q 640 127 612 104 l 532 224 l 609 302 l 722 201 q 853 492 812 299 m 151 349 q 283 770 151 568 q 517 981 382 920 q 666 1014 592 1014 q 794 992 741 1014 q 882 936 847 971 q 939 852 916 901 q 981 661 981 762 q 962 473 981 560 q 894 291 943 385 q 791 140 845 196 l 886 58 l 808 -21 l 709 65 q 593 2 650 24 q 466 -20 537 -20 q 341 1 395 -20 q 252 55 287 21 q 194 137 217 90 q 151 345 151 226 l 151 349 z "},"R":{"ha":747,"x_min":82,"x_max":859,"o":"m 301 525 l 441 525 q 741 710 701 525 q 745 751 745 727 q 519 892 745 892 l 379 892 l 301 525 m 626 0 l 426 428 l 280 428 l 189 0 l 82 0 l 292 987 l 538 987 q 771 929 683 987 q 859 766 859 871 q 747 534 859 634 q 548 439 665 460 l 749 0 l 626 0 z "},"S":{"ha":732,"x_min":78,"x_max":846,"o":"m 78 222 l 197 243 q 251 130 199 184 q 391 77 304 77 q 556 125 477 77 q 654 284 654 186 q 616 380 654 339 q 539 441 576 422 q 484 469 503 460 q 417 499 462 480 q 354 528 373 518 q 310 557 335 538 q 270 595 285 575 q 234 708 234 642 q 241 770 234 739 q 361 948 264 882 q 578 1014 458 1014 q 768 956 698 1014 q 846 810 838 899 l 739 793 q 685 880 734 842 q 560 918 637 918 q 423 876 483 918 q 347 734 347 822 q 416 625 347 667 q 493 587 446 608 q 570 553 541 567 q 628 522 599 540 q 690 474 657 504 q 761 312 761 412 q 676 99 761 187 q 361 -20 562 -20 q 106 127 173 -20 q 78 222 86 170 z "},"T":{"ha":843,"x_min":250,"x_max":1010,"o":"m 269 987 l 1010 987 l 990 892 l 680 892 l 490 0 l 383 0 l 573 892 l 250 892 l 269 987 z "},"U":{"ha":858,"x_min":157,"x_max":1000,"o":"m 890 987 l 1000 987 l 883 437 q 718 101 837 222 q 432 -20 599 -20 q 228 59 298 -20 q 157 281 157 137 q 175 437 157 353 l 292 987 l 401 987 l 285 437 q 269 305 269 366 q 319 134 269 191 q 452 77 368 77 q 642 162 555 77 q 774 437 734 252 l 890 987 z "},"V":{"ha":844,"x_min":264,"x_max":1014,"o":"m 903 987 l 1014 987 l 505 0 l 357 0 l 264 987 l 379 987 l 455 114 l 903 987 z "},"W":{"ha":1069,"x_min":211,"x_max":1238,"o":"m 267 987 l 375 987 l 317 123 l 681 962 l 813 962 l 821 123 l 1129 987 l 1238 987 l 872 0 l 724 0 l 720 833 l 363 0 l 211 0 l 267 987 z "},"X":{"ha":823,"x_min":54,"x_max":993,"o":"m 260 987 l 383 987 l 542 576 l 869 987 l 993 987 l 581 494 l 787 0 l 659 0 l 504 397 l 175 0 l 54 0 l 468 494 l 260 987 z "},"Y":{"ha":800,"x_min":261,"x_max":972,"o":"m 261 987 l 375 987 l 530 581 l 858 987 l 972 987 l 568 507 l 460 0 l 353 0 l 460 507 l 261 987 z "},"Z":{"ha":899,"x_min":68,"x_max":1046,"o":"m 297 987 l 1046 987 l 271 96 l 865 96 l 844 0 l 68 0 l 850 892 l 277 892 l 297 987 z "},"[":{"ha":425,"x_min":75,"x_max":577,"o":"m 343 -65 l 75 -65 l 309 1038 l 577 1038 l 557 942 l 391 942 l 197 29 l 363 29 l 343 -65 z "},"\\":{"ha":550,"x_min":203,"x_max":583,"o":"m 468 0 l 203 1047 l 319 1047 l 583 0 l 468 0 z "},"]":{"ha":433,"x_min":74,"x_max":576,"o":"m 74 -65 l 94 31 l 261 31 l 454 942 l 288 942 l 308 1038 l 576 1038 l 342 -65 l 74 -65 z "},"^":{"ha":629,"x_min":256,"x_max":722,"o":"m 722 779 l 595 779 l 520 924 l 382 781 l 256 781 l 493 1013 l 582 1013 l 722 779 z "},"_":{"ha":842,"x_min":26,"x_max":786,"o":"m 26 -157 l 47 -61 l 786 -61 l 766 -157 l 26 -157 z "},"`":{"ha":373,"x_min":309,"x_max":562,"o":"m 556 1137 q 562 1122 562 1128 q 549 1090 562 1104 q 519 1073 533 1073 q 497 1079 505 1073 l 322 1227 q 309 1255 310 1240 l 309 1261 q 326 1297 309 1281 q 369 1318 348 1318 q 401 1306 389 1318 l 556 1137 z "},"a":{"ha":673,"x_min":100,"x_max":691,"o":"m 546 267 q 507 359 546 323 q 405 395 469 395 q 283 347 340 395 q 207 198 207 286 q 245 107 207 142 q 348 72 284 72 q 471 119 412 72 q 546 267 546 180 m 413 486 q 527 449 484 486 q 572 379 571 412 l 586 444 q 594 513 594 482 q 561 612 594 578 q 472 647 528 647 q 300 595 364 647 l 262 665 q 473 739 369 739 q 634 684 577 739 q 691 528 691 629 q 682 444 691 492 l 587 0 l 493 0 l 515 106 q 439 27 504 73 q 293 -20 375 -20 q 156 32 212 -20 q 100 172 100 83 q 106 233 100 202 q 219 414 130 342 q 413 486 308 486 z "},"b":{"ha":708,"x_min":87,"x_max":754,"o":"m 400 986 l 318 601 q 552 747 411 747 q 705 680 655 747 q 754 500 754 612 q 739 364 754 438 q 693 223 723 290 q 620 101 663 157 q 517 13 577 45 q 401 -20 457 -20 q 314 -8 346 -20 q 264 26 283 4 q 217 125 231 64 l 191 0 l 87 0 l 297 986 l 400 986 m 635 366 q 647 491 647 421 q 611 608 647 560 q 513 655 574 655 q 364 577 435 655 q 264 364 293 499 q 253 261 253 311 q 291 122 253 172 q 398 72 328 72 q 537 151 468 72 q 635 366 606 230 z "},"c":{"ha":625,"x_min":118,"x_max":720,"o":"m 622 549 q 584 616 617 583 q 503 650 550 650 q 338 569 416 650 q 233 364 259 488 q 222 271 222 318 q 265 125 222 178 q 378 72 308 72 q 525 149 454 72 q 549 179 540 165 l 621 127 q 504 23 572 66 q 359 -20 435 -20 q 183 59 248 -20 q 118 262 118 138 q 180 505 118 388 q 385 711 258 651 q 526 742 452 742 q 649 701 600 742 q 720 593 698 659 l 622 549 z "},"d":{"ha":708,"x_min":113,"x_max":833,"o":"m 730 986 l 833 986 l 623 0 l 520 0 l 547 125 q 314 -20 454 -20 q 162 50 211 -20 q 113 232 113 119 q 161 480 113 354 q 371 726 233 668 q 469 747 420 747 q 549 735 518 747 q 600 701 581 724 q 648 601 634 663 l 730 986 m 232 366 q 219 257 219 302 q 255 121 219 170 q 352 72 292 72 q 502 151 431 72 q 601 364 572 230 q 613 468 613 421 q 575 606 613 557 q 467 655 537 655 q 329 578 397 655 q 232 366 261 502 z "},"e":{"ha":687,"x_min":130,"x_max":720,"o":"m 261 410 l 615 410 q 620 468 620 444 q 587 598 620 547 q 496 650 553 650 q 390 613 438 650 q 261 410 299 544 m 242 318 q 238 259 238 288 q 270 124 238 177 q 359 72 302 72 q 469 98 416 72 q 553 165 523 124 l 635 127 q 507 20 586 60 q 347 -20 427 -20 q 186 52 242 -20 q 130 242 130 123 q 149 385 130 298 q 218 557 167 472 q 345 692 269 642 q 500 742 421 742 q 628 707 580 742 q 720 488 720 640 q 713 406 720 437 q 695 318 703 361 l 242 318 z "},"f":{"ha":486,"x_min":179,"x_max":692,"o":"m 417 636 l 282 0 l 179 0 l 314 636 l 220 636 l 239 728 l 333 728 l 353 819 q 408 917 364 872 q 499 983 451 961 q 585 1004 547 1004 q 646 990 623 1004 q 692 949 669 977 l 603 878 q 591 896 596 890 q 546 913 577 913 q 492 895 515 913 q 463 847 469 878 l 437 728 l 570 728 l 550 636 l 417 636 z "},"g":{"ha":692,"x_min":50,"x_max":778,"o":"m 623 0 q 546 -170 600 -102 q 422 -271 492 -237 q 289 -304 353 -304 q 178 -285 225 -304 q 104 -233 132 -265 q 50 -92 50 -169 q 50 -74 50 -79 l 147 -74 l 147 -81 q 192 -175 147 -138 q 301 -212 236 -212 q 431 -163 367 -212 q 515 -22 496 -113 l 547 125 q 450 20 504 59 q 328 -20 395 -20 q 221 0 261 -20 q 159 54 182 19 q 113 232 113 123 q 161 480 113 354 q 371 726 233 668 q 469 747 420 747 q 549 735 518 747 q 600 701 581 724 q 648 601 634 663 l 675 728 l 778 728 l 623 0 m 232 366 q 219 257 219 302 q 255 121 219 170 q 352 72 292 72 q 502 151 431 72 q 601 364 572 230 q 613 468 613 421 q 575 606 613 557 q 467 655 537 655 q 329 578 397 655 q 232 366 261 502 z "},"h":{"ha":722,"x_min":87,"x_max":745,"o":"m 638 487 q 509 654 638 654 q 357 573 420 654 q 269 366 295 491 l 191 0 l 87 0 l 297 987 l 400 987 l 319 605 q 415 706 351 665 q 562 747 479 747 q 694 691 644 747 q 745 519 745 634 q 726 367 745 453 l 648 0 l 546 0 l 624 367 q 638 487 638 436 z "},"i":{"ha":292,"x_min":102,"x_max":410,"o":"m 256 728 l 359 728 l 204 0 l 102 0 l 256 728 m 333 840 q 321 840 333 840 q 294 855 309 840 q 279 897 279 869 q 306 946 279 924 q 357 968 332 968 q 395 953 381 968 q 410 927 410 939 q 406 897 410 916 q 380 859 403 878 q 333 840 357 840 z "},"j":{"ha":317,"x_min":-131,"x_max":436,"o":"m 359 840 q 348 840 359 840 q 321 855 336 840 q 306 897 306 869 q 332 946 306 924 q 382 968 359 968 q 421 953 406 968 q 436 926 436 939 q 433 896 436 913 q 406 859 429 878 q 359 840 383 840 m -131 -235 l -43 -165 q -28 -182 -33 -177 q 16 -199 -13 -199 q 103 -115 85 -199 l 282 728 l 385 728 l 210 -94 q 69 -264 186 -209 q -19 -290 14 -290 q -75 -280 -53 -290 q -107 -261 -98 -271 q -131 -235 -116 -252 z "},"k":{"ha":640,"x_min":87,"x_max":741,"o":"m 414 418 l 637 0 l 519 0 l 336 347 l 245 257 l 191 0 l 87 0 l 297 986 l 400 986 l 275 395 l 623 728 l 741 728 l 414 418 z "},"l":{"ha":292,"x_min":125,"x_max":414,"o":"m 234 140 q 232 120 232 129 q 300 69 232 69 l 281 -20 q 165 5 204 -20 q 125 91 125 31 q 131 138 125 114 l 311 986 l 414 986 l 234 140 z "},"m":{"ha":1040,"x_min":87,"x_max":1077,"o":"m 579 0 l 476 0 l 555 371 q 576 526 576 471 q 477 654 576 654 q 270 373 330 654 l 191 0 l 87 0 l 242 728 l 345 728 l 319 604 q 456 736 391 712 q 526 747 488 747 q 646 701 605 747 q 690 583 687 654 q 783 701 723 654 q 918 747 844 747 q 1077 567 1077 747 q 1062 443 1077 513 l 968 0 l 865 0 l 943 368 q 964 524 964 465 q 868 650 964 650 q 659 372 718 650 l 579 0 z "},"n":{"ha":722,"x_min":87,"x_max":745,"o":"m 638 487 q 509 654 638 654 q 357 573 420 654 q 269 366 295 491 l 191 0 l 87 0 l 242 728 l 345 728 l 319 605 q 415 706 351 665 q 562 747 479 747 q 694 691 644 747 q 745 519 745 634 q 726 367 745 453 l 648 0 l 546 0 l 624 367 q 638 487 638 436 z "},"o":{"ha":715,"x_min":133,"x_max":752,"o":"m 146 364 q 282 636 182 531 q 524 742 382 742 q 694 672 636 742 q 752 484 752 602 q 734 342 752 429 q 665 170 715 255 q 535 32 614 84 q 353 -20 456 -20 q 191 52 249 -20 q 133 242 133 123 q 146 364 133 298 m 251 364 q 238 237 238 306 q 273 120 238 168 q 381 72 308 72 q 600 252 522 72 q 647 460 647 363 q 612 603 647 556 q 504 650 577 650 q 342 570 406 650 q 251 364 278 491 z "},"p":{"ha":708,"x_min":26,"x_max":754,"o":"m 345 728 l 318 601 q 552 747 411 747 q 705 680 655 747 q 754 500 754 612 q 739 364 754 438 q 693 223 723 290 q 621 101 663 157 q 517 13 578 45 q 401 -20 457 -20 q 314 -8 346 -20 q 264 26 283 4 q 217 125 231 64 l 129 -290 l 26 -290 l 242 728 l 345 728 m 635 366 q 647 491 647 421 q 611 608 647 560 q 513 655 574 655 q 364 577 435 655 q 264 364 293 499 q 253 261 253 311 q 291 122 253 172 q 398 72 328 72 q 537 151 468 72 q 635 366 606 230 z "},"q":{"ha":711,"x_min":113,"x_max":778,"o":"m 595 -135 q 591 -171 591 -153 q 658 -212 591 -212 l 639 -304 q 485 -189 485 -304 q 490 -139 485 -163 l 547 125 q 392 -8 477 18 q 312 -20 355 -20 q 161 50 210 -20 q 113 232 113 119 q 161 480 113 354 q 371 726 233 668 q 469 747 420 747 q 549 735 518 747 q 600 701 581 724 q 648 601 634 663 l 675 728 l 778 728 l 595 -135 m 232 366 q 219 257 219 302 q 255 121 219 170 q 352 72 292 72 q 502 151 431 72 q 601 364 572 230 q 613 468 613 421 q 575 606 613 557 q 467 655 537 655 q 329 578 397 655 q 232 366 261 502 z "},"r":{"ha":465,"x_min":87,"x_max":654,"o":"m 654 723 l 581 634 q 509 654 551 654 q 357 573 420 654 q 269 366 295 491 l 191 0 l 87 0 l 242 728 l 345 728 l 319 605 q 415 706 351 665 q 546 747 479 747 q 654 723 612 747 z "},"s":{"ha":625,"x_min":96,"x_max":684,"o":"m 468 286 q 458 292 468 286 q 430 307 448 298 q 378 327 412 315 q 316 351 345 338 q 256 386 288 364 q 194 506 194 430 q 255 656 194 591 q 476 745 338 743 q 652 670 597 745 q 684 591 680 632 l 581 570 q 458 653 562 653 q 359 627 404 653 q 300 528 300 592 q 377 438 300 471 q 395 431 382 436 q 412 425 408 426 q 440 414 416 423 q 476 400 465 404 q 509 384 486 395 q 543 365 532 373 q 571 342 554 357 q 595 313 587 328 q 616 247 616 278 q 553 83 616 153 q 446 7 508 34 q 317 -20 383 -20 q 160 26 214 -20 q 96 147 106 71 l 200 166 q 241 96 211 121 q 337 72 271 72 q 448 104 402 72 q 507 195 494 137 q 509 221 509 206 q 498 255 509 237 q 468 286 488 273 z "},"t":{"ha":472,"x_min":189,"x_max":556,"o":"m 300 636 l 204 636 l 224 728 l 320 728 l 356 897 l 458 897 l 422 728 l 556 728 l 536 636 l 403 636 l 299 146 q 296 121 296 131 q 361 66 296 66 l 409 66 l 391 -20 l 343 -20 q 225 5 261 -20 q 189 85 189 30 q 196 143 189 109 l 300 636 z "},"u":{"ha":722,"x_min":140,"x_max":797,"o":"m 246 241 q 375 73 246 73 q 527 155 465 73 q 616 361 589 237 l 694 728 l 797 728 l 642 0 l 539 0 l 565 123 q 469 21 533 62 q 322 -20 405 -20 q 190 37 240 -20 q 140 208 140 94 q 158 361 140 274 l 236 728 l 338 728 l 260 361 q 246 241 246 292 z "},"v":{"ha":694,"x_min":210,"x_max":810,"o":"m 302 0 l 210 728 l 319 728 l 382 132 l 703 728 l 810 728 l 406 0 l 302 0 z "},"w":{"ha":932,"x_min":201,"x_max":1056,"o":"m 597 585 l 319 0 l 240 0 l 201 728 l 304 728 l 317 170 l 576 722 q 678 722 576 722 l 703 170 l 952 728 l 1056 728 l 707 0 l 624 0 l 597 585 z "},"x":{"ha":611,"x_min":36,"x_max":739,"o":"m 590 0 l 475 0 l 375 298 l 155 0 l 36 0 l 327 366 l 192 728 l 307 728 l 404 433 l 624 728 l 739 728 l 452 368 l 590 0 z "},"y":{"ha":722,"x_min":67,"x_max":797,"o":"m 246 241 q 375 73 246 73 q 527 155 465 73 q 616 361 589 237 l 694 728 l 797 728 l 640 -12 q 588 -136 625 -79 q 500 -228 550 -192 q 288 -304 396 -304 q 67 -186 144 -304 l 151 -129 q 307 -212 203 -212 q 442 -167 375 -212 q 534 -22 514 -117 q 565 123 550 56 q 469 21 533 62 q 322 -20 405 -20 q 190 37 240 -20 q 140 208 140 94 q 158 361 140 274 l 236 728 l 338 728 l 260 361 q 246 241 246 292 z "},"z":{"ha":652,"x_min":61,"x_max":770,"o":"m 252 96 l 615 96 l 595 0 l 61 0 l 578 632 l 223 632 l 243 728 l 770 728 l 252 96 z "},"{":{"ha":507,"x_min":166,"x_max":651,"o":"m 166 494 q 260 555 221 511 q 321 656 300 600 q 356 769 342 713 q 382 877 370 825 q 407 945 395 928 q 427 973 418 962 q 449 991 437 983 q 470 1006 461 1000 q 494 1017 478 1012 q 517 1025 510 1021 q 543 1030 524 1028 q 568 1034 563 1032 q 596 1036 574 1035 q 623 1037 619 1037 q 651 1038 626 1037 l 632 946 q 593 949 613 949 q 541 938 574 949 q 495 911 509 927 q 474 865 481 895 q 466 825 468 836 q 458 793 463 814 q 440 727 454 772 q 408 632 427 683 q 362 543 389 581 q 311 494 336 504 q 348 376 348 479 q 325 161 348 273 l 318 132 q 309 79 309 92 q 315 54 309 66 q 348 31 320 41 q 396 20 376 20 q 435 22 416 20 l 416 -69 q 290 -57 323 -66 q 211 18 227 -39 q 209 44 209 26 q 230 170 209 62 q 251 337 251 278 q 166 494 251 467 z "},"|":{"ha":250,"x_min":85,"x_max":391,"o":"m 85 0 l 294 986 l 391 986 l 182 0 l 85 0 z "},"}":{"ha":507,"x_min":77,"x_max":565,"o":"m 565 494 q 470 433 510 479 q 409 328 431 387 q 374 210 388 269 q 346 98 359 152 q 321 27 332 44 q 300 0 310 10 q 279 -19 291 -11 q 258 -33 267 -27 q 234 -44 250 -39 q 211 -52 218 -49 q 184 -58 204 -56 q 159 -61 165 -60 q 131 -63 154 -62 q 105 -64 109 -64 q 77 -65 102 -64 l 96 26 q 134 24 115 24 q 186 35 154 24 q 236 64 219 45 q 260 136 248 81 l 266 165 q 313 328 284 251 q 420 494 370 477 q 381 612 381 511 q 402 808 381 712 q 406 825 404 814 q 413 856 408 836 q 417 890 417 876 q 416 908 417 905 q 378 938 407 927 q 330 949 350 949 q 292 946 311 949 l 311 1038 q 437 1025 403 1035 q 516 950 500 1007 q 517 923 517 939 q 498 807 517 906 q 479 680 479 709 q 479 650 479 652 q 565 494 479 524 z "},"~":{"ha":498,"x_min":132,"x_max":591,"o":"m 153 518 q 171 531 156 521 q 193 547 186 542 q 215 560 200 551 q 240 572 230 568 q 288 583 267 583 q 326 573 309 583 q 356 547 342 562 q 382 517 369 532 q 450 481 414 481 q 501 493 477 481 q 533 510 524 505 q 564 529 542 515 q 591 547 586 544 l 570 449 q 532 422 547 431 q 501 404 517 414 q 476 391 485 394 q 426 382 445 382 q 388 392 407 382 q 354 418 368 403 q 327 449 340 433 q 269 485 295 485 q 176 450 225 485 q 153 434 169 446 q 132 419 138 423 l 153 518 z "},"":{"ha":904,"x_min":151,"x_max":977,"o":"m 762 267 q 865 646 861 433 q 820 835 865 758 q 654 918 770 918 q 365 720 477 918 q 285 517 307 618 q 263 344 263 416 l 263 338 q 309 159 263 233 q 475 77 359 77 q 593 103 537 77 q 762 267 692 150 m 151 344 q 282 770 151 570 q 674 1014 442 1014 q 817 982 757 1014 q 961 781 923 926 q 977 644 977 721 q 962 498 977 567 q 845 218 930 349 q 743 96 798 146 q 613 13 689 45 q 455 -20 537 -20 q 168 210 228 -20 q 151 344 151 271 m 564 372 l 549 305 l 475 305 l 489 374 q 575 496 503 447 q 616 525 594 510 q 641 543 637 541 q 646 547 644 545 q 652 552 648 549 q 656 556 655 555 q 667 565 666 564 q 677 574 673 571 q 688 586 684 578 q 696 596 693 593 q 701 604 699 600 q 707 618 705 612 q 722 687 722 650 q 702 745 722 724 q 623 778 673 778 q 475 706 532 778 q 447 650 453 678 l 380 661 q 474 792 405 739 q 625 845 544 845 q 785 761 745 845 q 800 704 800 731 q 699 510 800 595 q 656 479 678 494 q 603 442 618 456 q 564 372 574 417 m 543 190 q 479 128 527 128 q 450 139 462 128 q 437 163 437 151 q 440 187 437 175 q 460 214 442 199 q 498 230 479 230 q 530 219 517 230 q 543 190 543 208 z "},"¡":{"ha":210,"x_min":27,"x_max":365,"o":"m 365 937 q 361 913 366 935 q 331 870 357 892 q 276 849 304 849 q 232 865 248 849 q 216 898 216 882 q 246 970 216 945 q 304 995 276 995 q 349 979 332 995 q 365 937 365 962 m 193 688 q 211 716 197 705 q 240 727 225 728 q 264 719 255 727 q 273 700 273 710 q 273 688 273 690 l 163 44 q 134 -1 158 18 q 85 -20 110 -20 q 43 -5 60 -20 q 27 25 27 10 q 28 43 27 39 l 193 688 z "},"¢":{"ha":548,"x_min":141,"x_max":609,"o":"m 298 189 q 184 248 227 198 q 141 380 141 298 q 179 524 141 458 q 399 673 245 637 l 430 819 l 522 819 l 490 673 q 609 597 553 657 l 534 533 q 513 557 523 547 q 477 577 503 566 q 419 587 452 587 q 310 546 361 587 q 245 443 259 505 q 241 380 241 422 q 271 307 240 338 q 357 275 302 275 q 514 347 443 275 l 562 286 q 389 186 508 221 l 361 53 l 270 53 l 298 189 z "},"£":{"ha":760,"x_min":98,"x_max":795,"o":"m 297 404 l 143 404 l 162 496 l 323 496 q 447 868 376 742 q 616 994 518 994 q 795 793 766 994 l 696 789 q 670 870 694 837 q 596 904 646 904 q 546 859 575 904 q 457 633 484 762 q 444 574 452 610 q 433 522 437 539 q 427 496 429 505 l 671 496 l 652 404 l 404 404 q 265 92 369 280 l 607 92 q 696 140 654 94 l 734 62 q 644 10 701 22 q 604 3 625 6 q 579 0 583 1 l 98 0 q 156 104 111 28 q 297 404 268 297 z "},"¤":{"ha":581,"x_min":97,"x_max":716,"o":"m 534 544 q 507 613 534 586 q 432 641 479 641 q 334 599 384 641 q 283 492 283 557 q 311 423 283 450 q 387 395 339 395 q 477 431 434 395 q 534 544 534 479 m 625 562 q 547 387 625 467 l 633 387 l 606 254 l 472 254 l 490 342 q 362 304 429 304 q 249 342 296 304 l 231 254 l 97 254 l 125 387 l 211 387 q 190 473 190 426 l 190 478 q 195 517 190 493 q 261 642 210 587 l 179 642 l 208 775 l 341 775 l 323 692 q 452 729 385 729 q 565 692 518 729 l 583 775 l 716 775 l 688 642 l 606 642 q 625 562 623 608 z "},"¥":{"ha":753,"x_min":157,"x_max":916,"o":"m 418 463 l 207 463 l 227 554 l 401 554 l 252 947 l 357 947 l 495 564 l 810 947 l 916 947 l 579 554 l 747 554 l 728 463 l 521 463 l 490 317 l 696 317 l 677 225 l 471 225 l 422 0 l 319 0 l 368 225 l 157 225 l 176 317 l 387 317 l 418 463 z "},"¦":{"ha":207,"x_min":61,"x_max":365,"o":"m 251 437 l 158 0 l 61 0 l 154 437 l 251 437 m 174 534 l 268 972 l 365 972 l 271 534 l 174 534 z "},"§":{"ha":465,"x_min":77,"x_max":599,"o":"m 415 302 l 372 293 q 212 351 277 293 q 146 515 146 409 q 155 591 146 552 q 258 792 179 706 q 429 878 336 878 q 530 853 495 878 q 599 766 564 829 l 492 755 q 461 777 484 768 q 421 786 439 786 l 418 786 q 264 650 325 786 q 311 656 285 656 q 470 590 404 656 q 536 422 536 524 q 530 359 536 387 q 423 158 505 245 q 252 71 340 71 q 146 100 189 71 q 77 197 102 130 l 180 204 q 214 175 189 186 q 261 163 239 163 l 264 163 q 353 201 312 163 q 418 298 395 239 l 418 300 q 418 301 418 301 q 415 302 417 302 m 400 385 q 428 396 425 385 q 430 424 430 408 q 392 522 430 480 q 290 564 353 564 q 250 554 267 564 q 247 530 248 546 q 290 430 247 475 q 388 385 333 385 l 400 385 z "},"¨":{"ha":538,"x_min":293,"x_max":743,"o":"m 422 1142 q 419 1129 422 1142 q 393 1096 416 1115 q 346 1077 370 1077 q 308 1092 322 1077 q 293 1134 293 1106 q 319 1183 293 1162 q 370 1205 346 1205 q 408 1191 394 1205 q 422 1142 429 1170 m 666 1078 q 654 1078 666 1078 q 627 1093 642 1078 q 612 1123 612 1108 q 639 1185 612 1163 q 690 1206 665 1206 q 743 1156 740 1206 q 716 1100 743 1122 q 666 1078 690 1078 z "},"©":{"ha":639,"x_min":130,"x_max":737,"o":"m 515 414 q 406 368 460 368 q 321 399 353 368 q 290 479 290 431 q 354 608 290 554 q 465 648 404 648 q 556 608 525 648 l 491 553 q 446 572 471 572 q 397 553 420 572 q 368 502 368 529 q 382 459 368 474 q 424 444 397 444 q 475 463 451 444 l 515 414 m 312 663 q 210 463 210 579 q 259 338 210 387 q 393 289 309 289 q 554 353 477 289 q 656 555 650 433 q 607 679 656 629 q 473 728 557 728 q 312 663 389 728 m 130 451 q 208 657 130 559 q 339 766 262 726 q 496 806 416 806 q 670 739 603 806 q 737 570 737 672 q 730 509 737 538 q 599 298 705 386 q 378 211 493 211 q 197 278 264 211 q 130 446 130 345 l 130 451 z "},"ª":{"ha":517,"x_min":250,"x_max":574,"o":"m 460 900 q 453 908 460 900 q 416 916 446 916 q 360 893 387 916 q 332 829 332 871 q 346 799 332 814 q 389 783 359 783 q 446 804 418 783 q 474 870 474 826 q 460 900 474 883 m 498 986 q 444 1042 498 1042 q 372 1020 400 1042 l 359 1009 l 328 1067 l 339 1076 q 459 1116 397 1116 q 553 1072 522 1116 q 574 1013 574 1044 q 569 955 574 982 l 519 719 l 444 719 l 450 742 q 355 709 406 709 q 277 742 303 709 q 250 803 250 774 q 317 949 250 895 q 415 989 366 989 q 495 962 481 989 q 498 986 498 979 z "},"«":{"ha":591,"x_min":159,"x_max":696,"o":"m 604 758 l 696 758 l 524 561 l 612 364 l 520 364 l 432 561 l 604 758 m 332 758 l 424 758 l 252 561 l 340 364 l 248 364 l 159 561 l 332 758 z "},"¬":{"ha":696,"x_min":212,"x_max":753,"o":"m 703 370 l 610 370 l 640 509 l 212 509 l 233 606 l 753 606 l 703 370 z "},"­":{"ha":644,"x_min":180,"x_max":659,"o":"m 200 595 l 659 595 l 639 498 l 180 498 l 200 595 z "},"®":{"ha":806,"x_min":163,"x_max":871,"o":"m 300 625 q 243 445 243 542 q 313 292 243 344 q 450 243 378 243 q 589 273 522 243 q 711 366 655 303 q 789 567 789 455 q 769 659 789 618 q 716 725 749 701 q 573 775 648 775 q 381 710 475 775 q 300 625 336 678 m 163 430 q 237 663 163 554 q 468 833 320 785 q 590 854 531 854 q 791 779 713 854 q 871 584 870 703 q 773 330 866 439 q 618 207 705 249 q 460 164 530 164 q 340 181 389 164 q 250 231 290 199 q 186 315 210 263 q 163 430 163 366 m 460 543 l 494 543 q 573 552 544 543 q 608 587 602 560 q 609 591 609 589 l 609 595 q 579 625 609 618 q 498 632 549 632 l 479 632 l 460 543 m 435 685 l 490 685 q 664 600 664 685 q 631 530 664 559 q 549 498 610 511 l 624 336 l 556 336 l 493 490 l 448 489 l 416 336 l 360 336 l 435 685 z "},"¯":{"ha":644,"x_min":302,"x_max":777,"o":"m 318 896 l 777 896 l 762 824 l 302 824 l 318 896 z "},"°":{"ha":406,"x_min":199,"x_max":562,"o":"m 481 822 q 459 879 481 857 q 399 901 437 901 q 321 866 361 901 q 280 775 280 831 q 302 719 280 741 q 362 697 324 697 q 435 727 401 697 q 481 822 481 767 m 203 796 q 280 920 218 869 q 413 971 343 971 q 522 931 482 971 q 562 830 562 891 q 558 796 562 814 q 479 672 543 723 q 347 621 416 621 q 238 661 278 621 q 199 762 199 701 q 203 796 199 779 z "},"±":{"ha":667,"x_min":168,"x_max":758,"o":"m 188 282 l 647 282 l 627 186 l 168 186 l 188 282 m 245 677 l 454 677 l 498 888 l 594 888 l 549 677 l 758 677 l 738 581 l 529 581 l 484 370 l 389 370 l 433 581 l 225 581 l 245 677 z "},"²":{"ha":450,"x_min":182,"x_max":614,"o":"m 351 1007 l 268 1043 l 278 1063 q 362 1154 304 1116 q 480 1192 420 1192 q 560 1172 532 1192 q 598 1132 587 1151 q 614 1073 614 1106 q 600 989 614 1017 q 463 849 560 907 l 423 826 q 365 783 393 808 q 319 733 334 753 l 557 733 l 537 638 l 182 638 l 186 662 q 212 731 193 695 q 296 837 246 795 q 397 910 336 871 l 415 921 q 428 928 423 926 q 433 931 433 930 l 450 943 l 467 956 l 481 968 l 494 984 l 503 1000 l 510 1021 q 513 1050 513 1037 q 499 1080 513 1063 q 459 1097 486 1097 q 407 1080 433 1097 q 363 1031 380 1063 l 351 1007 z "},"³":{"ha":454,"x_min":199,"x_max":608,"o":"m 539 945 q 581 850 581 903 q 576 815 581 833 q 495 688 560 739 q 350 638 429 638 q 258 668 301 638 q 204 748 214 698 l 199 772 l 302 802 l 308 783 q 332 747 315 760 q 378 734 349 734 q 438 755 408 734 q 474 807 468 777 q 477 850 481 836 q 437 890 469 880 q 406 896 422 896 l 356 896 l 375 985 l 432 985 q 476 1004 454 985 q 505 1054 505 1029 q 457 1108 505 1108 l 455 1108 q 390 1069 416 1108 l 375 1047 l 293 1089 l 309 1111 q 477 1203 378 1203 q 548 1185 515 1203 q 594 1137 581 1166 q 608 1081 608 1107 q 539 945 608 1002 z "},"´":{"ha":373,"x_min":276,"x_max":596,"o":"m 328 1079 q 304 1073 319 1073 q 283 1085 290 1073 q 276 1109 276 1097 q 293 1137 276 1121 l 519 1306 q 550 1318 537 1318 q 590 1298 580 1318 q 596 1281 596 1289 q 595 1269 596 1274 q 594 1263 595 1265 q 587 1249 592 1259 q 566 1227 583 1239 l 328 1079 z "},"µ":{"ha":680,"x_min":47,"x_max":715,"o":"m 507 66 q 339 -18 421 -18 q 275 -8 292 -18 q 253 4 258 1 q 241 15 248 7 q 231 26 233 23 q 212 50 222 36 l 144 -268 l 47 -268 l 230 591 l 328 591 l 262 281 q 252 191 252 231 q 353 75 252 75 q 487 146 430 75 q 553 281 538 212 l 618 591 l 715 591 l 590 0 l 493 0 l 507 66 z "},"¶":{"ha":780,"x_min":219,"x_max":889,"o":"m 768 863 l 619 854 l 545 507 l 691 501 l 768 863 m 517 832 q 349 735 391 793 q 319 641 319 694 q 379 551 319 579 q 452 525 406 538 l 517 832 m 673 415 l 527 422 l 457 92 l 604 92 l 673 415 m 340 0 l 433 436 q 259 513 306 465 q 219 618 219 555 q 575 930 229 861 q 755 947 662 947 l 889 947 l 688 0 l 340 0 z "},"·":{"ha":297,"x_min":200,"x_max":349,"o":"m 200 479 q 204 504 199 482 q 234 546 208 525 q 288 568 260 568 q 333 551 316 568 q 349 518 349 534 q 319 447 349 472 q 261 422 289 422 q 216 438 233 422 q 200 479 200 454 z "},"¸":{"ha":321,"x_min":52,"x_max":239,"o":"m 52 -129 q 131 -58 125 -83 q 132 -48 132 -55 q 130 -34 132 -41 q 125 -21 127 -26 q 117 -5 123 -16 q 109 12 111 6 l 204 50 q 239 -41 238 9 q 234 -75 237 -62 q 218 -107 231 -88 q 182 -143 205 -126 q 144 -170 160 -159 q 99 -195 127 -180 q 63 -214 71 -210 l 52 -129 z "},"¹":{"ha":308,"x_min":252,"x_max":468,"o":"m 339 1047 l 256 1047 l 402 1179 l 468 1179 l 353 638 l 252 638 l 339 1047 z "},"º":{"ha":456,"x_min":255,"x_max":618,"o":"m 537 1097 q 515 1153 537 1130 q 456 1175 494 1175 q 377 1140 418 1175 q 336 1050 336 1105 q 358 995 336 1018 q 418 972 380 972 q 491 1001 457 972 q 537 1097 537 1040 m 259 1071 q 337 1195 275 1145 q 469 1246 400 1246 q 578 1206 538 1246 q 618 1107 618 1166 q 536 947 618 1014 q 404 895 473 895 q 295 935 335 895 q 255 1037 255 974 q 259 1071 255 1054 z "},"»":{"ha":633,"x_min":144,"x_max":680,"o":"m 319 758 l 408 561 l 235 364 l 144 364 l 317 561 l 228 758 l 319 758 m 592 758 l 680 561 l 508 364 l 416 364 l 589 561 l 500 758 l 592 758 z "},"¼":{"ha":886,"x_min":12,"x_max":1083,"o":"m 353 1047 l 269 1047 l 416 1179 l 481 1179 l 366 638 l 266 638 l 353 1047 m 113 -100 l 12 -100 l 985 1084 l 1083 1084 l 113 -100 m 777 8 l 840 8 l 820 -87 l 756 -87 l 727 -222 l 627 -222 l 656 -87 l 429 -87 l 747 319 l 842 319 l 777 8 m 610 9 l 677 9 l 703 126 l 610 9 z "},"½":{"ha":886,"x_min":12,"x_max":1083,"o":"m 605 147 l 522 183 l 532 203 q 616 295 558 257 q 734 332 674 332 q 852 271 816 332 q 868 212 868 245 q 854 130 868 160 q 773 28 825 68 q 717 -11 754 14 l 677 -34 q 621 -77 651 -50 q 573 -127 590 -104 l 811 -127 l 791 -222 l 435 -222 l 441 -198 q 600 16 464 -79 q 652 50 614 26 l 669 61 q 682 68 677 66 q 687 71 686 71 l 705 83 l 722 96 l 735 109 l 748 124 l 757 140 l 764 161 q 766 190 766 177 q 753 220 766 203 q 713 237 739 237 q 661 220 687 237 q 618 171 635 203 l 605 147 m 353 1047 l 269 1047 l 416 1179 l 481 1179 l 366 638 l 266 638 l 353 1047 m 113 -100 l 12 -100 l 985 1084 l 1083 1084 l 113 -100 z "},"¾":{"ha":886,"x_min":12,"x_max":1083,"o":"m 536 945 q 578 850 578 903 q 574 815 578 833 q 492 688 557 739 q 347 638 427 638 q 255 668 298 638 q 201 748 212 698 l 196 772 l 300 802 l 305 783 q 329 747 312 760 q 376 734 346 734 q 435 755 406 734 q 472 807 465 777 q 475 850 478 836 q 435 890 466 880 q 404 896 420 896 l 353 896 l 372 985 l 429 985 q 473 1004 452 985 q 502 1054 502 1029 q 454 1108 502 1108 l 452 1108 q 387 1069 413 1108 l 372 1047 l 290 1089 l 307 1111 q 475 1203 375 1203 q 545 1185 513 1203 q 591 1137 578 1166 q 605 1081 605 1107 q 536 945 605 1002 m 113 -100 l 12 -100 l 985 1084 l 1083 1084 l 113 -100 m 777 8 l 840 8 l 820 -87 l 756 -87 l 727 -222 l 627 -222 l 656 -87 l 429 -87 l 747 319 l 842 319 l 777 8 m 610 9 l 677 9 l 703 126 l 610 9 z "},"¿":{"ha":647,"x_min":50,"x_max":648,"o":"m 566 903 q 562 879 566 900 q 531 836 557 857 q 477 814 505 814 q 433 831 449 814 q 416 864 416 848 q 447 935 416 910 q 505 960 477 960 q 549 944 533 960 q 566 903 566 928 m 386 612 l 406 707 l 513 707 l 492 609 q 455 519 479 551 q 409 467 431 488 q 370 435 386 447 q 326 404 353 423 q 281 372 298 385 q 260 356 264 359 q 240 339 256 353 q 219 319 224 326 q 202 299 214 313 q 186 274 191 286 q 159 155 159 208 q 201 66 159 101 q 320 32 243 32 q 468 93 397 32 q 553 216 539 153 l 648 199 q 512 12 611 87 q 303 -64 414 -64 q 121 -10 193 -64 q 50 144 50 44 q 254 458 50 328 q 313 498 292 483 q 356 542 335 513 q 386 612 378 572 z "},"À":{"ha":883,"x_min":43,"x_max":840,"o":"m 724 1137 q 730 1122 730 1130 q 718 1090 730 1104 q 687 1073 701 1073 q 665 1079 673 1073 l 490 1227 q 478 1264 475 1244 q 496 1299 482 1285 q 537 1318 516 1318 q 570 1306 557 1318 l 724 1137 m 616 823 l 393 421 l 674 421 l 616 823 m 680 329 l 342 329 l 163 0 l 43 0 l 608 987 l 694 987 l 840 0 l 718 0 l 680 329 z "},"Á":{"ha":883,"x_min":43,"x_max":937,"o":"m 634 1137 l 861 1306 q 891 1318 878 1318 q 931 1298 921 1318 q 937 1281 937 1289 q 937 1269 937 1274 q 935 1263 936 1265 q 928 1249 933 1259 q 907 1227 924 1239 l 669 1079 q 654 1073 659 1073 q 623 1086 631 1073 q 619 1117 612 1105 q 634 1137 625 1128 m 616 823 l 393 421 l 674 421 l 616 823 m 680 329 l 342 329 l 163 0 l 43 0 l 608 987 l 694 987 l 840 0 l 718 0 l 680 329 z "},"Â":{"ha":876,"x_min":56,"x_max":909,"o":"m 629 823 l 405 421 l 686 421 l 629 823 m 692 329 l 355 329 l 175 0 l 56 0 l 621 987 q 707 987 621 987 l 852 0 l 730 0 l 692 329 m 909 1059 l 782 1059 l 707 1203 l 569 1060 l 443 1060 l 680 1292 l 769 1292 l 909 1059 z "},"Ã":{"ha":876,"x_min":56,"x_max":928,"o":"m 629 823 l 405 421 l 686 421 l 629 823 m 692 329 l 355 329 l 175 0 l 56 0 l 621 987 q 707 987 621 987 l 852 0 l 730 0 l 692 329 m 490 1200 q 508 1214 493 1203 q 530 1229 524 1224 q 552 1242 537 1234 q 577 1255 567 1251 q 625 1265 604 1265 q 663 1255 646 1265 q 693 1229 680 1244 q 719 1199 706 1214 q 787 1163 751 1163 q 901 1211 828 1163 q 928 1230 921 1225 l 907 1131 q 869 1105 884 1114 q 838 1086 854 1096 q 813 1074 822 1076 q 763 1064 782 1064 q 725 1075 744 1064 q 691 1100 705 1085 q 663 1131 677 1116 q 606 1167 632 1167 q 513 1133 562 1167 q 490 1117 506 1128 q 469 1101 475 1105 l 490 1200 z "},"Ä":{"ha":876,"x_min":56,"x_max":917,"o":"m 629 823 l 405 421 l 686 421 l 629 823 m 692 329 l 355 329 l 175 0 l 56 0 l 621 987 q 707 987 621 987 l 852 0 l 730 0 l 692 329 m 521 1076 q 509 1076 521 1076 q 482 1091 497 1076 q 467 1133 467 1106 q 494 1182 467 1160 q 545 1204 521 1204 q 583 1191 569 1204 q 597 1142 604 1169 q 568 1095 591 1114 q 521 1076 545 1076 m 787 1122 q 814 1184 787 1162 q 864 1206 840 1206 q 902 1192 888 1206 q 917 1149 916 1178 q 891 1099 918 1121 q 841 1078 865 1078 q 802 1092 817 1078 q 787 1122 787 1107 z "},"Å":{"ha":876,"x_min":56,"x_max":886,"o":"m 629 823 l 405 421 l 686 421 l 629 823 m 692 329 l 355 329 l 175 0 l 56 0 l 621 987 q 707 987 621 987 l 852 0 l 730 0 l 692 329 m 805 1202 q 783 1259 805 1237 q 724 1281 762 1281 q 645 1246 686 1281 q 604 1156 604 1211 q 626 1099 604 1121 q 686 1078 648 1078 q 758 1107 724 1078 q 805 1202 805 1147 m 526 1177 q 604 1300 541 1249 q 736 1352 667 1352 q 846 1312 806 1352 q 886 1211 886 1272 q 882 1177 886 1194 q 803 1052 866 1103 q 671 1001 741 1001 q 562 1041 602 1001 q 522 1143 522 1081 q 526 1177 522 1160 z "},"Æ":{"ha":941,"x_min":56,"x_max":1147,"o":"m 625 437 l 446 437 l 178 0 l 56 0 l 667 987 l 1147 987 l 1126 886 l 827 886 l 751 534 l 1051 534 l 1030 435 l 730 435 l 659 100 l 959 100 l 938 0 l 532 0 l 625 437 m 646 534 l 720 889 l 507 534 l 646 534 z "},"Ç":{"ha":827,"x_min":169,"x_max":968,"o":"m 847 199 q 709 49 795 111 q 484 -20 615 -20 q 243 85 321 -20 q 169 337 169 183 q 235 647 169 492 q 418 906 300 805 q 705 1014 544 1014 q 921 921 851 1014 q 968 810 959 871 l 861 782 q 805 881 854 844 q 685 918 755 918 l 684 918 q 548 882 613 918 q 434 784 483 845 q 298 492 334 658 q 284 353 284 426 q 308 217 284 281 q 382 114 332 153 q 505 75 433 75 q 648 120 576 75 q 753 227 719 164 l 847 199 m 346 -203 q 425 -132 419 -158 q 426 -122 426 -129 q 424 -108 426 -115 q 419 -95 422 -100 q 411 -79 417 -90 q 403 -62 406 -68 l 498 -24 q 533 -115 532 -64 q 528 -149 531 -136 q 512 -181 526 -162 q 477 -217 499 -200 q 438 -243 454 -233 q 393 -269 422 -254 q 357 -288 365 -283 l 346 -203 z "},"È":{"ha":774,"x_min":82,"x_max":916,"o":"m 746 1137 q 752 1122 752 1130 q 739 1090 752 1104 q 709 1073 723 1073 q 687 1079 694 1073 l 512 1227 q 500 1264 496 1244 q 518 1299 504 1285 q 558 1318 538 1318 q 591 1306 579 1318 l 746 1137 m 292 987 l 916 987 l 897 892 l 379 892 l 307 554 l 795 554 l 775 458 l 287 458 l 210 96 l 727 96 l 707 0 l 82 0 l 292 987 z "},"É":{"ha":774,"x_min":82,"x_max":916,"o":"m 553 1137 l 780 1306 q 810 1318 798 1318 q 850 1298 840 1318 q 852 1259 862 1279 q 827 1227 843 1239 l 588 1079 q 573 1073 579 1073 q 543 1086 550 1073 q 538 1117 532 1105 q 553 1137 545 1128 m 292 987 l 916 987 l 897 892 l 379 892 l 307 554 l 795 554 l 775 458 l 287 458 l 210 96 l 727 96 l 707 0 l 82 0 l 292 987 z "},"Ê":{"ha":777,"x_min":89,"x_max":923,"o":"m 298 987 l 923 987 l 903 892 l 386 892 l 314 554 l 802 554 l 782 458 l 294 458 l 216 96 l 734 96 l 713 0 l 89 0 l 298 987 m 866 1043 l 739 1043 l 663 1187 l 526 1044 l 399 1044 l 637 1276 l 726 1276 l 866 1043 z "},"Ë":{"ha":777,"x_min":89,"x_max":923,"o":"m 298 987 l 923 987 l 903 892 l 386 892 l 314 554 l 802 554 l 782 458 l 294 458 l 216 96 l 734 96 l 713 0 l 89 0 l 298 987 m 477 1088 q 466 1088 477 1088 q 439 1103 454 1088 q 424 1146 424 1118 q 450 1195 424 1173 q 501 1217 477 1217 q 554 1166 551 1217 q 528 1110 554 1132 q 477 1088 501 1088 m 744 1135 q 770 1196 744 1175 q 821 1218 797 1218 q 859 1204 845 1218 q 873 1162 873 1190 q 848 1112 874 1133 q 797 1090 821 1090 q 759 1104 773 1090 q 744 1135 744 1119 z "},"Ì":{"ha":301,"x_min":104,"x_max":446,"o":"m 439 1137 q 446 1122 446 1128 q 433 1090 446 1104 q 402 1073 416 1073 q 380 1079 388 1073 l 205 1227 q 194 1264 190 1244 q 212 1299 197 1285 q 252 1318 231 1318 q 285 1306 273 1318 l 439 1137 m 104 0 l 314 987 l 420 987 l 211 0 l 104 0 z "},"Í":{"ha":298,"x_min":111,"x_max":667,"o":"m 363 1137 l 590 1306 q 621 1318 608 1318 q 661 1298 650 1318 q 667 1281 667 1289 q 666 1269 667 1274 q 665 1263 665 1265 q 658 1249 663 1259 q 637 1227 653 1239 l 398 1079 q 382 1073 389 1073 q 353 1086 360 1073 q 348 1117 342 1105 q 363 1137 355 1128 m 111 0 l 321 987 l 427 987 l 218 0 l 111 0 z "},"Î":{"ha":298,"x_min":111,"x_max":620,"o":"m 111 0 l 321 987 l 427 987 l 218 0 l 111 0 m 620 1051 l 492 1051 l 418 1196 l 280 1053 l 154 1053 l 391 1284 l 480 1284 l 620 1051 z "},"Ï":{"ha":298,"x_min":111,"x_max":630,"o":"m 111 0 l 321 987 l 427 987 l 218 0 l 111 0 m 195 1092 q 188 1099 195 1092 q 180 1135 180 1107 q 207 1184 180 1162 q 257 1206 233 1206 q 295 1192 281 1206 q 310 1149 309 1178 q 284 1099 311 1121 q 234 1078 258 1078 q 195 1092 210 1078 m 553 1079 q 542 1079 553 1079 q 515 1094 530 1079 q 500 1124 500 1109 q 526 1185 500 1164 q 577 1207 553 1207 q 630 1156 627 1207 q 604 1101 630 1122 q 553 1079 577 1079 z "},"Ð":{"ha":935,"x_min":193,"x_max":1009,"o":"m 317 449 l 193 449 l 214 545 l 337 545 l 431 987 l 689 987 q 924 889 840 987 q 1009 630 1009 790 q 922 300 1009 458 q 654 38 822 114 q 479 0 569 0 l 221 0 l 317 449 m 423 449 l 348 97 l 500 97 q 741 207 631 97 q 887 492 850 317 q 901 610 901 557 q 839 814 901 738 q 669 890 777 890 l 517 890 l 444 545 l 647 545 l 627 449 l 423 449 z "},"Ñ":{"ha":876,"x_min":89,"x_max":1010,"o":"m 89 0 l 298 987 l 402 987 l 737 200 l 904 987 l 1010 987 l 801 0 l 703 0 l 368 807 l 196 0 l 89 0 m 498 1186 q 516 1199 502 1189 q 538 1215 531 1210 q 560 1228 546 1219 q 585 1240 574 1236 q 633 1251 613 1251 q 670 1241 654 1251 q 700 1215 687 1230 q 727 1185 713 1200 q 794 1149 758 1149 q 845 1161 822 1149 q 878 1178 869 1173 q 908 1197 886 1183 q 936 1215 930 1212 l 915 1117 q 877 1090 891 1099 q 846 1072 862 1082 q 821 1059 829 1062 q 768 1050 790 1050 q 723 1066 747 1050 q 685 1101 699 1082 q 613 1153 645 1153 q 502 1105 568 1153 q 477 1087 481 1090 l 498 1186 z "},"Ò":{"ha":904,"x_min":151,"x_max":977,"o":"m 716 1137 q 722 1122 722 1130 q 709 1090 722 1104 q 679 1073 693 1073 q 657 1079 665 1073 l 482 1227 q 470 1264 467 1244 q 488 1299 474 1285 q 529 1318 508 1318 q 562 1306 549 1318 l 716 1137 m 762 267 q 865 646 865 442 q 819 834 865 758 q 654 918 770 918 q 535 891 591 918 q 438 821 479 864 q 365 720 398 778 q 263 344 267 549 q 309 159 263 232 q 475 77 359 77 q 762 267 651 77 m 151 347 q 282 770 151 568 q 515 981 380 921 q 665 1014 591 1014 q 792 993 740 1014 q 879 937 845 972 q 935 854 913 902 q 977 667 977 765 q 962 502 977 569 q 926 378 948 435 q 873 263 905 321 q 799 155 842 205 q 705 65 755 104 q 454 -20 595 -20 q 193 138 267 -20 q 151 347 151 227 z "},"Ó":{"ha":904,"x_min":151,"x_max":977,"o":"m 643 1137 l 869 1306 q 900 1318 887 1318 q 940 1298 930 1318 q 942 1259 951 1279 q 916 1227 932 1239 l 677 1079 q 663 1073 669 1073 q 632 1086 640 1073 q 628 1117 621 1105 q 643 1137 634 1128 m 762 267 q 865 646 865 442 q 819 834 865 758 q 654 918 770 918 q 535 891 591 918 q 438 821 479 864 q 365 720 398 778 q 263 344 267 549 q 309 159 263 232 q 475 77 359 77 q 762 267 651 77 m 151 347 q 282 770 151 568 q 515 981 380 921 q 665 1014 591 1014 q 792 993 740 1014 q 879 937 845 972 q 935 854 913 902 q 977 667 977 765 q 962 502 977 569 q 926 378 948 435 q 873 263 905 321 q 799 155 842 205 q 705 65 755 104 q 454 -20 595 -20 q 193 138 267 -20 q 151 347 151 227 z "},"Ô":{"ha":901,"x_min":158,"x_max":983,"o":"m 769 267 q 871 646 871 442 q 826 834 871 758 q 661 918 777 918 q 542 891 597 918 q 445 821 486 864 q 372 720 405 778 q 270 344 273 549 q 315 159 270 232 q 481 77 366 77 q 769 267 658 77 m 158 347 q 289 770 158 568 q 522 981 387 921 q 672 1014 597 1014 q 799 993 747 1014 q 886 937 852 972 q 942 854 920 902 q 983 667 983 765 q 969 502 983 569 q 933 378 955 435 q 880 263 911 321 q 805 155 848 205 q 711 65 762 104 q 461 -20 602 -20 q 199 138 273 -20 q 158 347 158 227 m 924 1060 l 796 1060 l 722 1204 l 584 1061 l 458 1061 l 694 1293 l 783 1293 l 924 1060 z "},"Õ":{"ha":901,"x_min":158,"x_max":983,"o":"m 769 267 q 871 646 871 442 q 826 834 871 758 q 661 918 777 918 q 542 891 597 918 q 445 821 486 864 q 372 720 405 778 q 270 344 273 549 q 315 159 270 232 q 481 77 366 77 q 769 267 658 77 m 158 347 q 289 770 158 568 q 522 981 387 921 q 672 1014 597 1014 q 799 993 747 1014 q 886 937 852 972 q 942 854 920 902 q 983 667 983 765 q 969 502 983 569 q 933 378 955 435 q 880 263 911 321 q 805 155 848 205 q 711 65 762 104 q 461 -20 602 -20 q 199 138 273 -20 q 158 347 158 227 m 506 1200 q 525 1214 509 1203 q 547 1229 540 1224 q 568 1242 553 1234 q 593 1255 583 1251 q 642 1265 621 1265 q 679 1255 663 1265 q 709 1229 696 1244 q 735 1199 722 1214 q 803 1163 767 1163 q 917 1211 844 1163 q 944 1230 937 1225 l 924 1131 q 885 1105 900 1114 q 854 1086 871 1096 q 829 1074 838 1076 q 780 1064 799 1064 q 741 1075 760 1064 q 707 1100 722 1085 q 680 1131 693 1116 q 622 1167 648 1167 q 529 1133 578 1167 q 507 1117 522 1128 q 485 1101 491 1105 l 506 1200 z "},"Ö":{"ha":901,"x_min":158,"x_max":983,"o":"m 769 267 q 871 646 871 442 q 826 834 871 758 q 661 918 777 918 q 542 891 597 918 q 445 821 486 864 q 372 720 405 778 q 270 344 273 549 q 315 159 270 232 q 481 77 366 77 q 769 267 658 77 m 158 347 q 289 770 158 568 q 522 981 387 921 q 672 1014 597 1014 q 799 993 747 1014 q 886 937 852 972 q 942 854 920 902 q 983 667 983 765 q 969 502 983 569 q 933 378 955 435 q 880 263 911 321 q 805 155 848 205 q 711 65 762 104 q 461 -20 602 -20 q 199 138 273 -20 q 158 347 158 227 m 602 1145 q 599 1131 602 1145 q 572 1099 595 1118 q 526 1080 549 1080 q 487 1094 502 1080 q 473 1137 473 1109 q 499 1186 473 1164 q 550 1208 526 1208 q 587 1194 574 1208 q 602 1145 609 1173 m 871 1209 q 922 1154 920 1209 q 896 1103 922 1124 q 845 1081 869 1081 q 807 1096 821 1081 q 792 1126 792 1110 q 819 1187 792 1166 q 871 1209 845 1209 z "},"×":{"ha":565,"x_min":140,"x_max":631,"o":"m 140 292 l 317 440 l 199 588 l 280 656 l 399 509 l 577 657 l 631 590 l 454 441 l 572 293 l 491 224 l 372 373 l 195 224 l 140 292 z "},"Ø":{"ha":871,"x_min":143,"x_max":943,"o":"m 943 644 l 943 635 q 816 216 943 414 q 593 12 722 70 q 432 -20 520 -20 q 277 28 343 -20 l 246 -20 l 143 -20 l 216 91 q 153 339 153 184 q 281 761 153 560 q 505 968 375 909 q 659 1002 577 1002 q 798 968 740 1002 l 829 1015 l 932 1015 l 864 912 q 943 644 943 815 m 335 115 q 453 75 385 75 q 575 101 521 75 q 668 168 629 127 q 739 264 707 210 q 820 467 799 365 q 842 660 842 568 q 802 819 842 751 l 335 115 m 281 189 l 741 882 q 636 907 696 907 q 522 881 576 907 q 429 811 468 854 q 357 712 389 769 q 276 508 298 608 q 255 341 255 409 l 255 338 q 281 189 255 247 z "},"Ù":{"ha":858,"x_min":157,"x_max":1000,"o":"m 722 1137 q 728 1122 728 1130 q 715 1090 728 1104 q 684 1073 699 1073 q 663 1079 670 1073 l 488 1227 q 476 1264 472 1244 q 494 1299 479 1285 q 534 1318 513 1318 q 567 1306 555 1318 l 722 1137 m 890 987 l 1000 987 l 883 437 q 718 101 837 222 q 432 -20 599 -20 q 228 59 298 -20 q 157 281 157 137 q 175 437 157 353 l 292 987 l 401 987 l 285 437 q 269 305 269 366 q 319 134 269 191 q 452 77 368 77 q 642 162 555 77 q 774 437 734 252 l 890 987 z "},"Ú":{"ha":858,"x_min":157,"x_max":1000,"o":"m 616 1137 l 842 1306 q 873 1318 860 1318 q 913 1298 903 1318 q 915 1259 924 1279 q 889 1227 905 1239 l 650 1079 q 635 1073 641 1073 q 605 1086 612 1073 q 601 1117 594 1105 q 616 1137 607 1128 m 890 987 l 1000 987 l 883 437 q 718 101 837 222 q 432 -20 599 -20 q 228 59 298 -20 q 157 281 157 137 q 175 437 157 353 l 292 987 l 401 987 l 285 437 q 269 305 269 366 q 319 134 269 191 q 452 77 368 77 q 642 162 555 77 q 774 437 734 252 l 890 987 z "},"Û":{"ha":880,"x_min":163,"x_max":1006,"o":"m 897 987 l 1006 987 l 890 437 q 725 101 844 222 q 439 -20 606 -20 q 234 59 305 -20 q 163 281 163 137 q 182 437 163 353 l 298 987 l 408 987 l 292 437 q 276 305 276 366 q 326 134 276 191 q 459 77 375 77 q 649 162 562 77 q 781 437 741 252 l 897 987 m 894 1063 l 766 1063 l 691 1207 l 554 1064 l 428 1064 l 665 1296 l 753 1296 l 894 1063 z "},"Ü":{"ha":880,"x_min":163,"x_max":1006,"o":"m 897 987 l 1006 987 l 890 437 q 725 101 844 222 q 439 -20 606 -20 q 234 59 305 -20 q 163 281 163 137 q 182 437 163 353 l 298 987 l 408 987 l 292 437 q 276 305 276 366 q 326 134 276 191 q 459 77 375 77 q 649 162 562 77 q 781 437 741 252 l 897 987 m 587 1145 q 584 1131 587 1145 q 557 1099 581 1118 q 511 1080 534 1080 q 472 1094 487 1080 q 458 1137 458 1109 q 484 1186 458 1164 q 535 1208 511 1208 q 572 1194 559 1208 q 587 1145 594 1173 m 856 1209 q 907 1154 905 1209 q 881 1103 907 1124 q 830 1081 854 1081 q 792 1096 806 1081 q 777 1126 777 1110 q 804 1187 777 1166 q 856 1209 830 1209 z "},"Ý":{"ha":800,"x_min":261,"x_max":972,"o":"m 574 1137 l 801 1306 q 831 1318 819 1318 q 871 1298 861 1318 q 873 1259 883 1279 q 848 1227 864 1239 l 609 1079 q 594 1073 600 1073 q 564 1086 571 1073 q 559 1117 553 1105 q 574 1137 566 1128 m 261 987 l 375 987 l 530 581 l 858 987 l 972 987 l 568 507 l 460 0 l 353 0 l 460 507 l 261 987 z "},"Þ":{"ha":901,"x_min":98,"x_max":810,"o":"m 274 323 q 541 359 425 323 q 645 417 604 379 q 701 538 701 469 q 351 685 701 685 l 274 323 m 308 987 l 415 987 l 371 780 q 810 562 810 780 q 764 407 810 481 q 605 281 715 330 q 254 229 483 229 l 205 0 l 98 0 l 308 987 z "},"ß":{"ha":822,"x_min":62,"x_max":910,"o":"m 284 781 q 438 942 342 880 q 652 1003 534 1003 q 840 948 769 1003 q 910 796 910 892 q 905 751 910 772 q 901 728 901 730 q 860 642 890 682 q 789 575 830 602 q 637 507 712 525 q 773 423 718 486 q 817 302 817 373 l 817 299 q 812 256 817 280 q 410 -20 753 -20 q 292 16 356 -20 l 371 99 q 390 90 378 96 q 430 75 417 75 q 637 127 569 75 q 712 256 694 172 q 715 287 715 273 q 680 378 715 337 q 589 439 644 418 q 472 460 533 460 l 448 460 q 418 456 431 460 l 440 559 q 465 557 450 557 l 493 557 q 618 577 553 557 q 736 637 684 597 q 800 728 789 678 q 805 780 805 753 q 637 910 805 910 q 479 868 541 910 q 377 755 418 827 q 299 551 337 683 q 221 239 262 418 q 163 0 180 60 l 62 0 q 131 265 89 88 q 210 578 172 442 q 284 781 248 714 z "},"à":{"ha":675,"x_min":100,"x_max":691,"o":"m 602 901 q 609 886 609 893 q 596 855 609 869 q 565 838 579 838 q 543 844 551 838 l 368 992 q 356 1020 357 1004 l 356 1031 q 374 1063 360 1050 q 415 1083 394 1083 q 448 1071 436 1083 l 602 901 m 546 267 q 507 359 546 323 q 405 395 469 395 q 283 347 340 395 q 207 198 207 286 q 245 107 207 142 q 348 72 284 72 q 471 119 412 72 q 546 267 546 180 m 413 486 q 527 449 484 486 q 572 379 571 412 l 586 444 q 594 513 594 482 q 561 612 594 578 q 472 647 528 647 q 300 595 364 647 l 262 665 q 473 739 369 739 q 634 684 577 739 q 691 528 691 629 q 682 444 691 492 l 587 0 l 493 0 l 515 106 q 439 27 504 73 q 293 -20 375 -20 q 156 32 212 -20 q 100 172 100 83 q 106 233 100 202 q 219 414 130 342 q 413 486 308 486 z "},"á":{"ha":675,"x_min":100,"x_max":773,"o":"m 470 901 l 697 1071 q 727 1083 715 1083 q 767 1063 757 1083 q 773 1046 773 1053 q 743 992 773 1014 l 505 844 q 490 838 495 838 q 459 850 467 838 q 455 882 448 869 q 470 901 462 895 m 546 267 q 507 359 546 323 q 405 395 469 395 q 283 347 340 395 q 207 198 207 286 q 245 107 207 142 q 348 72 284 72 q 471 119 412 72 q 546 267 546 180 m 413 486 q 527 449 484 486 q 572 379 571 412 l 586 444 q 594 513 594 482 q 561 612 594 578 q 472 647 528 647 q 300 595 364 647 l 262 665 q 473 739 369 739 q 634 684 577 739 q 691 528 691 629 q 682 444 691 492 l 587 0 l 493 0 l 515 106 q 439 27 504 73 q 293 -20 375 -20 q 156 32 212 -20 q 100 172 100 83 q 106 233 100 202 q 219 414 130 342 q 413 486 308 486 z "},"â":{"ha":703,"x_min":106,"x_max":730,"o":"m 553 267 q 514 359 553 323 q 411 395 475 395 q 290 347 347 395 q 214 198 214 286 q 252 107 214 142 q 355 72 291 72 q 477 119 419 72 q 553 267 553 180 m 420 486 q 534 449 490 486 q 579 379 578 412 l 593 444 q 601 513 601 482 q 568 612 601 578 q 479 647 534 647 q 307 595 371 647 l 269 665 q 480 739 376 739 q 641 684 584 739 q 698 528 698 629 q 688 444 698 492 l 594 0 l 500 0 l 522 106 q 446 27 511 73 q 300 -20 382 -20 q 162 32 218 -20 q 106 172 106 83 q 113 233 106 202 q 225 414 136 342 q 420 486 315 486 m 730 772 l 603 772 l 528 917 l 391 774 l 264 774 l 501 1006 l 590 1006 l 730 772 z "},"ã":{"ha":703,"x_min":106,"x_max":758,"o":"m 553 267 q 514 359 553 323 q 411 395 475 395 q 290 347 347 395 q 214 198 214 286 q 252 107 214 142 q 355 72 291 72 q 477 119 419 72 q 553 267 553 180 m 420 486 q 534 449 490 486 q 579 379 578 412 l 593 444 q 601 513 601 482 q 568 612 601 578 q 479 647 534 647 q 307 595 371 647 l 269 665 q 480 739 376 739 q 641 684 584 739 q 698 528 698 629 q 688 444 698 492 l 594 0 l 500 0 l 522 106 q 446 27 511 73 q 300 -20 382 -20 q 162 32 218 -20 q 106 172 106 83 q 113 233 106 202 q 225 414 136 342 q 420 486 315 486 m 319 917 q 338 930 323 920 q 360 945 353 941 q 382 959 367 950 q 407 971 397 967 q 455 982 434 982 q 493 971 476 982 q 523 946 509 961 q 549 916 536 930 q 616 880 581 880 q 668 892 644 880 q 700 909 691 904 q 731 928 709 913 q 758 946 753 943 l 737 848 q 699 821 713 830 q 668 803 684 812 q 643 790 652 793 q 593 781 612 781 q 554 791 574 781 q 521 817 535 802 q 494 848 507 832 q 435 884 462 884 q 342 849 392 884 q 320 833 336 844 q 298 818 304 822 l 319 917 z "},"ä":{"ha":703,"x_min":106,"x_max":753,"o":"m 553 267 q 514 359 553 323 q 411 395 475 395 q 290 347 347 395 q 214 198 214 286 q 252 107 214 142 q 355 72 291 72 q 477 119 419 72 q 553 267 553 180 m 420 486 q 534 449 490 486 q 579 379 578 412 l 593 444 q 601 513 601 482 q 568 612 601 578 q 479 647 534 647 q 307 595 371 647 l 269 665 q 480 739 376 739 q 641 684 584 739 q 698 528 698 629 q 688 444 698 492 l 594 0 l 500 0 l 522 106 q 446 27 511 73 q 300 -20 382 -20 q 162 32 218 -20 q 106 172 106 83 q 113 233 106 202 q 225 414 136 342 q 420 486 315 486 m 357 827 q 345 827 357 827 q 318 842 333 827 q 303 884 303 857 q 330 933 303 911 q 381 956 357 956 q 419 941 405 956 q 433 893 440 920 q 404 846 427 865 q 357 827 380 827 m 623 873 q 650 935 623 913 q 700 957 676 957 q 738 943 724 957 q 753 901 752 929 q 727 850 753 872 q 676 829 701 829 q 638 843 652 829 q 623 873 623 858 z "},"å":{"ha":703,"x_min":106,"x_max":723,"o":"m 553 267 q 514 359 553 323 q 411 395 475 395 q 290 347 347 395 q 214 198 214 286 q 252 107 214 142 q 355 72 291 72 q 477 119 419 72 q 553 267 553 180 m 420 486 q 534 449 490 486 q 579 379 578 412 l 593 444 q 601 513 601 482 q 568 612 601 578 q 479 647 534 647 q 307 595 371 647 l 269 665 q 480 739 376 739 q 641 684 584 739 q 698 528 698 629 q 688 444 698 492 l 594 0 l 500 0 l 522 106 q 446 27 511 73 q 300 -20 382 -20 q 162 32 218 -20 q 106 172 106 83 q 113 233 106 202 q 225 414 136 342 q 420 486 315 486 m 642 951 q 621 1007 642 985 q 561 1029 599 1029 q 482 995 523 1029 q 441 904 441 960 q 463 848 441 869 q 523 826 485 826 q 595 856 562 826 q 642 951 642 896 m 363 925 q 441 1049 378 998 q 574 1100 505 1100 q 683 1060 643 1100 q 723 959 723 1020 q 719 925 723 943 q 641 801 703 852 q 508 749 578 749 q 399 789 439 749 q 359 891 359 829 q 363 925 359 907 z "},"æ":{"ha":1008,"x_min":100,"x_max":1028,"o":"m 204 180 q 311 72 204 72 q 420 121 374 72 q 488 288 483 185 q 460 375 488 342 q 372 408 433 408 q 269 361 311 408 q 211 240 227 313 q 204 180 204 208 m 541 535 q 436 647 543 647 q 362 634 392 647 q 300 595 332 621 l 262 664 q 282 678 266 667 q 302 692 298 689 q 322 704 307 695 q 344 716 336 713 q 366 725 351 720 q 393 733 380 731 q 456 739 429 739 q 558 709 519 739 q 620 617 597 679 q 721 712 673 682 q 837 742 769 742 q 982 681 935 742 q 1028 513 1029 620 l 1028 508 q 999 318 1028 435 l 599 318 q 588 229 588 267 q 593 165 588 190 q 609 119 598 141 q 694 72 633 72 q 764 94 741 72 q 795 126 787 116 q 825 165 803 136 l 907 127 q 841 48 871 78 q 675 -20 770 -20 q 579 5 610 -20 q 564 18 570 13 q 551 34 558 22 q 540 50 544 45 q 530 69 536 56 q 511 111 522 87 q 486 77 494 87 q 467 55 477 68 q 450 37 456 43 q 432 22 444 32 q 411 8 420 12 q 388 -3 401 3 q 359 -12 374 -9 q 292 -20 321 -20 q 150 33 199 -20 q 100 170 100 85 q 216 425 105 327 q 402 500 299 500 q 484 484 465 500 q 511 457 504 467 q 526 429 518 447 q 530 449 528 434 q 536 483 532 463 q 541 531 541 503 l 541 535 m 618 410 l 915 410 q 921 493 921 461 l 921 496 q 921 500 921 498 q 817 650 921 650 q 644 491 710 650 q 618 410 627 452 z "},"ç":{"ha":686,"x_min":125,"x_max":727,"o":"m 629 549 q 590 616 624 583 q 509 650 557 650 q 345 569 423 650 q 239 364 266 488 q 229 271 229 318 q 272 125 229 178 q 385 72 315 72 q 532 149 461 72 q 556 179 547 165 l 628 127 q 510 23 578 66 q 366 -20 442 -20 q 190 59 255 -20 q 125 262 125 138 q 187 505 125 388 q 392 711 265 651 q 532 742 458 742 q 655 701 606 742 q 727 593 705 659 l 629 549 m 219 -199 q 298 -129 292 -153 q 298 -119 298 -125 q 296 -104 298 -112 q 292 -92 294 -97 q 284 -76 290 -87 q 275 -58 278 -64 l 371 -20 q 406 -111 405 -61 q 401 -146 404 -133 q 385 -178 398 -159 q 349 -213 372 -197 q 311 -240 327 -230 q 266 -265 294 -250 q 230 -284 237 -280 l 219 -199 z "},"è":{"ha":675,"x_min":130,"x_max":720,"o":"m 589 901 q 595 886 595 893 q 583 855 595 869 q 551 838 566 838 q 530 844 537 838 l 355 992 q 342 1020 344 1004 l 342 1031 q 361 1063 347 1050 q 401 1083 380 1083 q 435 1071 422 1083 l 589 901 m 261 410 l 615 410 q 620 468 620 444 q 587 598 620 547 q 496 650 553 650 q 390 613 438 650 q 261 410 299 544 m 242 318 q 238 259 238 288 q 270 124 238 177 q 359 72 302 72 q 469 98 416 72 q 553 165 523 124 l 635 127 q 507 20 586 60 q 347 -20 427 -20 q 186 52 242 -20 q 130 242 130 123 q 149 385 130 298 q 218 557 167 472 q 345 692 269 642 q 500 742 421 742 q 628 707 580 742 q 720 488 720 640 q 713 406 720 437 q 695 318 703 361 l 242 318 z "},"é":{"ha":709,"x_min":137,"x_max":787,"o":"m 484 901 l 711 1071 q 741 1083 728 1083 q 781 1063 770 1083 q 787 1046 787 1053 q 757 992 787 1014 l 518 844 q 503 838 509 838 q 473 850 480 838 q 469 882 462 869 q 484 901 475 895 m 268 410 l 622 410 q 627 468 627 444 q 593 598 627 547 q 503 650 560 650 q 397 613 445 650 q 268 410 306 544 m 249 318 q 245 259 245 288 q 277 124 245 177 q 366 72 309 72 q 476 98 422 72 q 559 165 530 124 l 642 127 q 513 20 593 60 q 354 -20 434 -20 q 193 52 249 -20 q 137 242 137 123 q 155 385 137 298 q 225 557 174 472 q 352 692 276 642 q 507 742 428 742 q 635 707 587 742 q 726 488 726 640 q 720 406 726 437 q 702 318 710 361 l 249 318 z "},"ê":{"ha":709,"x_min":137,"x_max":759,"o":"m 268 410 l 622 410 q 627 468 627 444 q 593 598 627 547 q 503 650 560 650 q 397 613 445 650 q 268 410 306 544 m 249 318 q 245 259 245 288 q 277 124 245 177 q 366 72 309 72 q 476 98 422 72 q 559 165 530 124 l 642 127 q 513 20 593 60 q 354 -20 434 -20 q 193 52 249 -20 q 137 242 137 123 q 155 385 137 298 q 225 557 174 472 q 352 692 276 642 q 507 742 428 742 q 635 707 587 742 q 726 488 726 640 q 720 406 726 437 q 702 318 710 361 l 249 318 m 759 782 l 631 782 l 556 926 l 419 783 l 293 783 l 530 1015 l 618 1015 l 759 782 z "},"ë":{"ha":709,"x_min":137,"x_max":776,"o":"m 268 410 l 622 410 q 627 468 627 444 q 593 598 627 547 q 503 650 560 650 q 397 613 445 650 q 268 410 306 544 m 249 318 q 245 259 245 288 q 277 124 245 177 q 366 72 309 72 q 476 98 422 72 q 559 165 530 124 l 642 127 q 513 20 593 60 q 354 -20 434 -20 q 193 52 249 -20 q 137 242 137 123 q 155 385 137 298 q 225 557 174 472 q 352 692 276 642 q 507 742 428 742 q 635 707 587 742 q 726 488 726 640 q 720 406 726 437 q 702 318 710 361 l 249 318 m 341 843 q 333 851 341 843 q 326 886 326 858 q 353 935 326 913 q 403 957 379 957 q 441 943 427 957 q 456 901 455 929 q 430 850 456 872 q 379 829 404 829 q 341 843 355 829 m 699 830 q 687 830 699 830 q 661 845 675 830 q 646 875 646 860 q 672 937 646 915 q 723 958 699 958 q 776 907 773 958 q 749 852 776 873 q 699 830 723 830 z "},"ì":{"ha":292,"x_min":102,"x_max":393,"o":"m 386 901 q 393 886 393 892 q 380 855 393 869 q 348 838 363 838 q 327 844 334 838 l 152 992 q 140 1020 141 1004 l 140 1031 q 158 1063 144 1050 q 199 1083 178 1083 q 232 1071 220 1083 l 386 901 m 256 728 l 359 728 l 204 0 l 102 0 l 256 728 z "},"í":{"ha":286,"x_min":102,"x_max":608,"o":"m 304 901 l 532 1071 q 562 1083 549 1083 q 602 1063 591 1083 q 608 1046 608 1053 q 578 992 608 1014 l 339 844 q 324 838 330 838 q 294 850 301 838 q 290 882 283 869 q 304 901 296 895 m 256 728 l 359 728 l 204 0 l 102 0 l 256 728 z "},"î":{"ha":602,"x_min":239,"x_max":706,"o":"m 706 758 l 578 758 l 503 903 l 366 760 l 239 760 l 477 991 l 566 991 l 706 758 m 420 728 l 523 728 l 368 0 l 265 0 l 420 728 z "},"ï":{"ha":452,"x_min":184,"x_max":638,"o":"m 242 805 q 230 805 242 805 q 203 820 218 805 q 189 862 189 835 q 215 911 189 890 q 266 933 242 933 q 304 920 290 933 q 318 870 325 899 q 289 824 311 842 q 242 805 266 805 m 509 851 q 535 913 509 891 q 586 935 562 935 q 624 921 610 935 q 638 878 637 907 q 612 828 639 850 q 562 806 586 806 q 523 821 538 806 q 509 851 509 836 m 339 728 l 442 728 l 288 0 l 184 0 l 339 728 z "},"ð":{"ha":699,"x_min":110,"x_max":765,"o":"m 265 412 q 216 246 216 328 q 258 118 216 164 q 349 72 300 72 q 499 145 426 72 q 592 309 573 218 q 597 350 597 334 l 597 353 q 544 484 597 431 q 421 536 491 536 q 338 500 381 536 q 265 412 296 465 m 650 875 q 712 744 684 823 q 740 590 740 665 q 728 487 740 566 q 711 385 716 408 q 702 340 704 354 q 563 83 669 185 q 338 -20 457 -20 q 165 42 220 -20 q 110 208 110 104 q 122 311 110 254 q 244 536 150 444 q 448 628 339 628 q 542 610 515 628 q 578 584 569 592 q 605 555 587 576 q 627 528 622 534 q 632 595 632 551 q 612 711 632 640 q 561 817 592 783 l 437 720 l 384 787 l 494 875 q 406 892 450 892 q 311 886 362 892 l 322 986 q 378 987 340 987 q 590 940 508 987 l 715 1035 l 765 961 l 650 875 z "},"ñ":{"ha":708,"x_min":94,"x_max":772,"o":"m 645 487 q 516 654 645 654 q 364 573 427 654 q 275 366 302 491 l 197 0 l 94 0 l 249 728 l 352 728 l 326 605 q 422 706 358 665 q 569 747 486 747 q 701 691 651 747 q 751 519 751 634 q 733 367 751 453 l 655 0 l 553 0 l 631 367 q 645 487 645 436 m 334 925 q 352 938 338 928 q 374 954 367 949 q 396 967 382 958 q 420 979 410 975 q 469 990 449 990 q 506 980 490 990 q 536 954 523 969 q 563 924 549 939 q 630 888 594 888 q 681 900 658 888 q 713 917 705 912 q 744 936 722 922 q 772 954 766 951 l 751 856 q 712 829 727 838 q 682 811 698 821 q 656 798 665 801 q 606 789 625 789 q 568 799 587 789 q 535 825 549 810 q 507 856 521 840 q 450 892 476 892 q 357 857 406 892 q 334 841 350 852 q 313 826 319 830 l 334 925 z "},"ò":{"ha":675,"x_min":133,"x_max":752,"o":"m 562 901 q 568 886 568 894 q 555 854 568 868 q 524 837 538 837 q 503 843 510 837 l 328 991 q 316 1028 312 1008 q 334 1063 319 1049 q 374 1082 353 1082 q 407 1070 395 1082 l 562 901 m 146 364 q 282 636 182 531 q 524 742 382 742 q 694 672 636 742 q 752 484 752 602 q 734 342 752 429 q 665 170 715 255 q 535 32 614 84 q 353 -20 456 -20 q 191 52 249 -20 q 133 242 133 123 q 146 364 133 298 m 251 364 q 238 237 238 306 q 273 120 238 168 q 381 72 308 72 q 600 252 522 72 q 647 460 647 363 q 612 603 647 556 q 504 650 577 650 q 342 570 406 650 q 251 364 278 491 z "},"ó":{"ha":675,"x_min":133,"x_max":829,"o":"m 526 901 l 753 1071 q 784 1083 771 1083 q 823 1063 813 1083 q 829 1046 829 1053 q 800 992 829 1014 l 561 844 q 546 838 552 838 q 515 850 523 838 q 511 882 505 869 q 526 901 518 895 m 146 364 q 282 636 182 531 q 524 742 382 742 q 694 672 636 742 q 752 484 752 602 q 734 342 752 429 q 665 170 715 255 q 535 32 614 84 q 353 -20 456 -20 q 191 52 249 -20 q 133 242 133 123 q 146 364 133 298 m 251 364 q 238 237 238 306 q 273 120 238 168 q 381 72 308 72 q 600 252 522 72 q 647 460 647 363 q 612 603 647 556 q 504 650 577 650 q 342 570 406 650 q 251 364 278 491 z "},"ô":{"ha":720,"x_min":140,"x_max":759,"o":"m 153 364 q 289 636 189 531 q 530 742 389 742 q 701 672 643 742 q 759 484 759 602 q 741 342 759 429 q 672 170 722 255 q 542 32 621 84 q 359 -20 463 -20 q 198 52 256 -20 q 140 242 140 123 q 153 364 140 298 m 258 364 q 245 237 245 306 q 280 120 245 168 q 388 72 315 72 q 606 252 529 72 q 654 460 654 363 q 619 603 654 556 q 511 650 584 650 q 349 570 413 650 q 258 364 285 491 m 753 761 l 625 761 l 551 905 l 413 762 l 287 762 l 524 994 l 613 994 l 753 761 z "},"õ":{"ha":720,"x_min":140,"x_max":783,"o":"m 153 364 q 289 636 189 531 q 530 742 389 742 q 701 672 643 742 q 759 484 759 602 q 741 342 759 429 q 672 170 722 255 q 542 32 621 84 q 359 -20 463 -20 q 198 52 256 -20 q 140 242 140 123 q 153 364 140 298 m 258 364 q 245 237 245 306 q 280 120 245 168 q 388 72 315 72 q 606 252 529 72 q 654 460 654 363 q 619 603 654 556 q 511 650 584 650 q 349 570 413 650 q 258 364 285 491 m 345 897 q 363 910 348 900 q 385 926 378 921 q 407 939 392 930 q 432 951 422 947 q 480 962 459 962 q 518 952 501 962 q 548 926 534 941 q 574 897 561 911 q 642 860 606 860 q 755 909 683 860 q 783 926 776 922 l 762 828 q 742 814 758 825 q 721 800 726 804 q 703 788 716 797 q 681 777 689 780 q 662 769 673 774 q 620 761 642 761 q 579 771 598 761 q 546 797 559 782 q 518 827 532 812 q 460 864 487 864 q 368 829 417 864 q 345 813 361 825 q 323 798 330 802 l 345 897 z "},"ö":{"ha":719,"x_min":140,"x_max":785,"o":"m 153 364 q 289 636 189 531 q 530 742 389 742 q 701 672 643 742 q 759 484 759 602 q 741 342 759 429 q 672 170 722 255 q 542 32 621 84 q 359 -20 463 -20 q 198 52 256 -20 q 140 242 140 123 q 153 364 140 298 m 258 364 q 245 237 245 306 q 280 120 245 168 q 388 72 315 72 q 606 252 529 72 q 654 460 654 363 q 619 603 654 556 q 511 650 584 650 q 349 570 413 650 q 258 364 285 491 m 465 890 q 461 876 465 890 q 435 844 458 863 q 388 825 412 825 q 350 839 364 825 q 335 882 335 854 q 361 931 335 909 q 412 953 388 953 q 450 939 436 953 q 465 890 471 918 m 708 826 q 696 826 708 826 q 669 841 684 826 q 654 871 654 856 q 681 932 654 911 q 732 954 707 954 q 785 903 782 954 q 758 848 785 869 q 708 826 732 826 z "},"÷":{"ha":618,"x_min":162,"x_max":642,"o":"m 272 174 q 276 198 271 176 q 306 240 280 219 q 360 262 332 262 q 405 245 388 262 q 421 213 421 229 q 391 141 421 166 q 333 116 361 116 q 288 132 304 116 q 272 174 272 149 m 377 668 q 381 692 376 671 q 411 735 385 713 q 466 756 437 756 q 510 740 494 756 q 526 707 526 723 q 496 635 526 661 q 438 610 466 610 q 393 627 410 610 q 377 668 377 643 m 182 478 l 642 478 l 621 382 l 162 382 l 182 478 z "},"ø":{"ha":694,"x_min":54,"x_max":801,"o":"m 615 523 l 275 118 q 361 72 309 72 q 455 98 414 72 q 526 168 496 125 q 608 364 584 254 q 620 461 620 420 q 615 523 620 503 m 581 607 q 495 650 545 650 q 405 624 446 650 q 334 556 364 598 q 250 364 272 471 q 237 267 237 307 q 242 203 237 227 l 581 607 m 724 486 l 724 477 q 706 341 724 427 q 637 170 688 256 q 511 32 587 83 q 348 -20 435 -20 q 204 33 260 -20 l 161 -20 l 54 -20 l 159 104 q 134 236 134 164 q 146 364 135 308 q 280 636 182 530 q 509 742 378 742 q 652 691 597 742 l 696 745 l 801 745 l 699 622 q 724 486 724 564 z "},"ù":{"ha":675,"x_min":140,"x_max":797,"o":"m 574 901 q 581 886 581 893 q 568 855 581 869 q 537 838 551 838 q 515 844 523 838 l 340 992 q 328 1020 330 1004 l 328 1031 q 347 1063 332 1050 q 387 1083 366 1083 q 420 1071 408 1083 l 574 901 m 246 241 q 375 73 246 73 q 527 155 465 73 q 616 361 589 237 l 694 728 l 797 728 l 642 0 l 539 0 l 565 123 q 469 21 533 62 q 322 -20 405 -20 q 190 37 240 -20 q 140 208 140 94 q 158 361 140 274 l 236 728 l 338 728 l 260 361 q 246 241 246 292 z "},"ú":{"ha":675,"x_min":168,"x_max":825,"o":"m 511 901 l 739 1071 q 769 1083 756 1083 q 808 1063 798 1083 q 811 1024 820 1044 q 785 992 802 1004 l 546 844 q 531 838 537 838 q 500 850 508 838 q 496 882 490 869 q 511 901 503 895 m 275 241 q 404 73 275 73 q 555 155 493 73 q 644 361 618 237 l 722 728 l 825 728 l 671 0 l 568 0 l 593 123 q 497 21 562 62 q 351 -20 433 -20 q 218 37 269 -20 q 168 208 168 94 q 186 361 168 274 l 264 728 l 367 728 l 289 361 q 275 241 275 292 z "},"û":{"ha":722,"x_min":146,"x_max":804,"o":"m 253 241 q 382 73 253 73 q 534 155 471 73 q 623 361 596 237 l 701 728 l 804 728 l 649 0 l 546 0 l 572 123 q 476 21 540 62 q 329 -20 412 -20 q 197 37 247 -20 q 146 208 146 94 q 165 361 146 274 l 243 728 l 345 728 l 267 361 q 253 241 253 292 m 762 811 l 635 811 l 559 956 l 422 812 l 296 812 l 533 1044 l 622 1044 l 762 811 z "},"ü":{"ha":722,"x_min":146,"x_max":804,"o":"m 253 241 q 382 73 253 73 q 534 155 471 73 q 623 361 596 237 l 701 728 l 804 728 l 649 0 l 546 0 l 572 123 q 476 21 540 62 q 329 -20 412 -20 q 197 37 247 -20 q 146 208 146 94 q 165 361 146 274 l 243 728 l 345 728 l 267 361 q 253 241 253 292 m 380 830 q 368 830 380 830 q 341 845 356 830 q 326 887 326 860 q 353 937 326 915 q 404 958 379 958 q 456 907 454 958 q 430 852 456 873 q 380 830 404 830 m 646 876 q 673 938 646 916 q 723 960 699 960 q 761 946 747 960 q 776 903 775 932 q 750 853 777 875 q 700 831 724 831 q 661 846 675 831 q 646 876 646 861 z "},"ý":{"ha":675,"x_min":67,"x_max":797,"o":"m 479 901 l 706 1071 q 736 1083 724 1083 q 776 1063 766 1083 q 778 1024 787 1044 q 752 992 769 1004 l 513 844 q 498 838 505 838 q 468 850 475 838 q 464 882 457 869 q 479 901 471 895 m 246 241 q 375 73 246 73 q 527 155 465 73 q 616 361 589 237 l 694 728 l 797 728 l 640 -12 q 588 -136 625 -79 q 500 -228 550 -192 q 288 -304 396 -304 q 67 -186 144 -304 l 151 -129 q 307 -212 203 -212 q 442 -167 375 -212 q 534 -22 514 -117 q 565 123 550 56 q 469 21 533 62 q 322 -20 405 -20 q 190 37 240 -20 q 140 208 140 94 q 158 361 140 274 l 236 728 l 338 728 l 260 361 q 246 241 246 292 z "},"þ":{"ha":680,"x_min":87,"x_max":753,"o":"m 191 0 l 87 0 l 297 986 l 400 986 l 351 754 q 450 841 402 811 q 566 871 498 871 q 707 803 660 871 q 753 625 753 735 q 707 383 753 511 q 496 133 638 191 q 394 111 441 111 q 320 121 347 111 q 279 146 294 132 q 235 211 247 179 q 191 0 208 82 m 635 494 q 649 625 649 560 q 624 734 649 689 q 558 779 599 779 q 477 759 517 779 q 401 703 437 739 q 292 494 320 623 q 281 395 281 441 l 281 391 q 317 252 280 301 q 404 203 354 203 q 544 280 481 203 q 635 494 606 357 z "},"ÿ":{"ha":722,"x_min":74,"x_max":804,"o":"m 253 241 q 382 73 253 73 q 534 155 471 73 q 623 361 596 237 l 701 728 l 804 728 l 646 -12 q 594 -136 632 -79 q 507 -228 557 -192 q 295 -304 403 -304 q 74 -186 151 -304 l 158 -129 q 314 -212 210 -212 q 449 -167 382 -212 q 541 -22 521 -117 q 572 123 557 56 q 476 21 540 62 q 329 -20 412 -20 q 197 37 247 -20 q 146 208 146 94 q 165 361 146 274 l 243 728 l 345 728 l 267 361 q 253 241 253 292 m 392 823 q 380 823 392 823 q 353 838 368 823 q 338 880 338 852 q 365 929 338 907 q 416 951 391 951 q 469 900 466 951 q 442 844 469 866 q 392 823 416 823 m 711 824 q 700 824 711 824 q 673 839 688 824 q 658 869 658 854 q 684 930 658 909 q 735 952 711 952 q 788 901 785 952 q 762 846 788 867 q 711 824 735 824 z "},"Ā":{"ha":883,"x_min":43,"x_max":918,"o":"m 458 1179 l 918 1179 l 902 1107 l 443 1107 l 458 1179 m 616 823 l 393 421 l 674 421 l 616 823 m 680 329 l 342 329 l 163 0 l 43 0 l 608 987 q 694 987 608 987 l 840 0 l 718 0 l 680 329 z "},"ā":{"ha":675,"x_min":100,"x_max":770,"o":"m 311 896 l 770 896 l 754 824 l 295 824 l 311 896 m 546 267 q 507 359 546 323 q 405 395 469 395 q 283 347 340 395 q 207 198 207 286 q 245 107 207 142 q 348 72 284 72 q 471 119 412 72 q 546 267 546 180 m 413 486 q 527 449 484 486 q 572 379 571 412 l 586 444 q 594 513 594 482 q 561 612 594 578 q 472 647 528 647 q 300 595 364 647 l 262 665 q 473 739 369 739 q 634 684 577 739 q 691 528 691 629 q 682 444 691 492 l 587 0 l 493 0 l 515 106 q 439 27 504 73 q 293 -20 375 -20 q 156 32 212 -20 q 100 172 100 83 q 106 233 100 202 q 219 414 130 342 q 413 486 308 486 z "},"Ă":{"ha":883,"x_min":43,"x_max":915,"o":"m 616 823 l 393 421 l 674 421 l 616 823 m 680 329 l 342 329 l 163 0 l 43 0 l 608 987 q 694 987 608 987 l 840 0 l 718 0 l 680 329 m 500 1215 l 503 1242 q 504 1246 503 1245 l 559 1246 q 621 1135 576 1171 q 684 1119 644 1118 q 750 1135 723 1120 q 861 1246 797 1164 l 915 1246 q 914 1243 914 1245 q 913 1240 914 1240 q 843 1118 903 1192 q 760 1053 811 1080 q 663 1027 708 1027 q 577 1053 618 1027 q 518 1127 537 1080 q 500 1215 500 1175 z "},"ă":{"ha":675,"x_min":100,"x_max":764,"o":"m 546 267 q 507 359 546 323 q 405 395 469 395 q 283 347 340 395 q 207 198 207 286 q 245 107 207 142 q 348 72 284 72 q 471 119 412 72 q 546 267 546 180 m 413 486 q 527 449 484 486 q 572 379 571 412 l 586 444 q 594 513 594 482 q 561 612 594 578 q 472 647 528 647 q 300 595 364 647 l 262 665 q 473 739 369 739 q 634 684 577 739 q 691 528 691 629 q 682 444 691 492 l 587 0 l 493 0 l 515 106 q 439 27 504 73 q 293 -20 375 -20 q 156 32 212 -20 q 100 172 100 83 q 106 233 100 202 q 219 414 130 342 q 413 486 308 486 m 349 979 l 353 1008 q 353 1011 353 1010 l 408 1011 q 471 900 425 935 q 535 882 494 883 q 609 907 572 884 q 710 1011 646 929 l 764 1011 q 764 1008 764 1010 q 763 1004 764 1005 q 692 883 752 957 q 609 818 661 844 q 512 791 557 791 q 427 818 467 791 q 368 892 387 844 q 349 979 349 940 z "},"Ą":{"ha":883,"x_min":43,"x_max":840,"o":"m 616 823 l 393 421 l 674 421 l 616 823 m 680 329 l 342 329 l 163 0 l 43 0 l 608 987 q 694 987 608 987 l 840 0 l 718 0 l 680 329 m 829 -129 l 782 -214 q 777 -210 780 -212 q 750 -192 766 -203 q 701 -151 725 -175 q 673 -112 677 -126 q 669 -88 669 -98 q 685 -29 669 -66 q 753 50 701 9 l 833 12 q 784 -48 790 -31 q 797 -98 774 -76 l 812 -114 q 829 -129 817 -117 z "},"ą":{"ha":675,"x_min":100,"x_max":691,"o":"m 546 267 q 507 359 546 323 q 405 395 469 395 q 283 347 340 395 q 207 198 207 286 q 245 107 207 142 q 348 72 284 72 q 471 119 412 72 q 546 267 546 180 m 413 486 q 527 449 484 486 q 572 379 571 412 l 586 444 q 594 513 594 482 q 561 612 594 578 q 472 647 528 647 q 300 595 364 647 l 262 665 q 473 739 369 739 q 634 684 577 739 q 691 528 691 629 q 682 444 691 492 l 587 0 l 493 0 l 515 106 q 439 27 504 73 q 293 -20 375 -20 q 156 32 212 -20 q 100 172 100 83 q 106 233 100 202 q 219 414 130 342 q 413 486 308 486 m 592 12 q 540 -58 540 -40 q 556 -98 535 -77 l 572 -114 q 589 -129 576 -117 l 541 -214 q 536 -210 539 -212 q 509 -192 526 -203 q 460 -151 484 -175 q 432 -112 435 -126 q 429 -88 429 -98 q 445 -29 429 -66 q 513 50 460 9 l 592 12 z "},"Ć":{"ha":827,"x_min":155,"x_max":954,"o":"m 833 199 q 696 49 781 111 q 471 -20 602 -20 q 229 85 308 -20 q 155 337 155 183 q 221 647 155 492 q 405 906 287 805 q 692 1014 530 1014 q 907 921 838 1014 q 954 810 945 871 l 847 782 q 791 881 840 844 q 671 918 742 918 l 670 918 q 534 882 600 918 q 420 784 469 845 q 285 492 320 658 q 271 353 271 426 q 294 217 271 281 q 369 114 318 153 q 491 75 420 75 q 634 120 563 75 q 740 227 705 164 l 833 199 m 667 1079 q 643 1073 657 1073 q 622 1085 629 1073 q 615 1109 615 1097 q 632 1137 615 1121 l 859 1306 q 889 1318 876 1318 q 929 1298 919 1318 q 935 1281 935 1289 q 935 1269 935 1274 q 933 1263 934 1265 q 926 1249 931 1259 q 905 1227 922 1239 l 667 1079 z "},"ć":{"ha":625,"x_min":118,"x_max":799,"o":"m 622 549 q 584 616 617 583 q 503 650 550 650 q 338 569 416 650 q 233 364 259 488 q 222 271 222 318 q 265 125 222 178 q 378 72 308 72 q 525 149 454 72 q 549 179 540 165 l 621 127 q 504 23 572 66 q 359 -20 435 -20 q 183 59 248 -20 q 118 262 118 138 q 180 505 118 388 q 385 711 258 651 q 526 742 452 742 q 649 701 600 742 q 720 593 698 659 l 622 549 m 530 844 q 507 838 521 838 q 486 849 492 838 q 479 874 479 861 q 496 901 479 888 l 723 1071 q 753 1083 741 1083 q 793 1063 783 1083 q 799 1046 799 1053 q 769 992 799 1014 l 530 844 z "},"Ĉ":{"ha":827,"x_min":155,"x_max":954,"o":"m 833 199 q 696 49 781 111 q 471 -20 602 -20 q 229 85 308 -20 q 155 337 155 183 q 221 647 155 492 q 405 906 287 805 q 692 1014 530 1014 q 907 921 838 1014 q 954 810 945 871 l 847 782 q 791 881 840 844 q 671 918 742 918 l 670 918 q 534 882 600 918 q 420 784 469 845 q 285 492 320 658 q 271 353 271 426 q 294 217 271 281 q 369 114 318 153 q 491 75 420 75 q 634 120 563 75 q 740 227 705 164 l 833 199 m 928 1027 l 800 1027 l 725 1171 l 587 1028 l 461 1028 l 699 1260 l 787 1260 l 928 1027 z "},"ĉ":{"ha":625,"x_min":113,"x_max":764,"o":"m 617 549 q 579 616 612 583 q 498 650 545 650 q 333 569 412 650 q 228 364 254 488 q 218 271 218 318 q 260 125 218 178 q 374 72 303 72 q 520 149 450 72 q 545 179 535 165 l 616 127 q 499 23 567 66 q 354 -20 431 -20 q 178 59 243 -20 q 113 262 113 138 q 176 505 113 388 q 380 711 254 651 q 521 742 447 742 q 644 701 595 742 q 715 593 693 659 l 617 549 m 764 795 l 636 795 l 561 939 l 424 796 l 298 796 l 534 1028 l 623 1028 l 764 795 z "},"Ċ":{"ha":827,"x_min":155,"x_max":954,"o":"m 833 199 q 696 49 781 111 q 471 -20 602 -20 q 229 85 308 -20 q 155 337 155 183 q 221 647 155 492 q 405 906 287 805 q 692 1014 530 1014 q 907 921 838 1014 q 954 810 945 871 l 847 782 q 791 881 840 844 q 671 918 742 918 l 670 918 q 534 882 600 918 q 420 784 469 845 q 285 492 320 658 q 271 353 271 426 q 294 217 271 281 q 369 114 318 153 q 491 75 420 75 q 634 120 563 75 q 740 227 705 164 l 833 199 m 740 1142 q 736 1129 740 1142 q 710 1096 733 1115 q 663 1077 687 1077 q 625 1092 640 1077 q 610 1134 610 1106 q 637 1183 610 1162 q 687 1205 663 1205 q 726 1191 711 1205 q 740 1142 747 1170 z "},"ċ":{"ha":625,"x_min":118,"x_max":720,"o":"m 622 549 q 584 616 617 583 q 503 650 550 650 q 338 569 416 650 q 233 364 259 488 q 222 271 222 318 q 265 125 222 178 q 378 72 308 72 q 525 149 454 72 q 549 179 540 165 l 621 127 q 504 23 572 66 q 359 -20 435 -20 q 183 59 248 -20 q 118 262 118 138 q 180 505 118 388 q 385 711 258 651 q 526 742 452 742 q 649 701 600 742 q 720 593 698 659 l 622 549 m 551 855 q 539 855 551 855 q 513 870 528 855 q 498 912 498 885 q 524 962 498 940 q 575 983 551 983 q 628 932 625 983 q 602 877 628 899 q 551 855 575 855 z "},"Č":{"ha":827,"x_min":155,"x_max":979,"o":"m 833 199 q 696 49 781 111 q 471 -20 602 -20 q 229 85 308 -20 q 155 337 155 183 q 221 647 155 492 q 405 906 287 805 q 692 1014 530 1014 q 907 921 838 1014 q 954 810 945 871 l 847 782 q 791 881 840 844 q 671 918 742 918 l 670 918 q 534 882 600 918 q 420 784 469 845 q 285 492 320 658 q 271 353 271 426 q 294 217 271 281 q 369 114 318 153 q 491 75 420 75 q 634 120 563 75 q 740 227 705 164 l 833 199 m 979 1260 l 739 1027 l 650 1027 l 512 1259 l 638 1259 l 715 1116 l 851 1260 l 979 1260 z "},"č":{"ha":625,"x_min":114,"x_max":829,"o":"m 618 549 q 579 616 613 583 q 498 650 546 650 q 334 569 412 650 q 229 364 255 488 q 218 271 218 318 q 261 125 218 178 q 374 72 304 72 q 521 149 450 72 q 545 179 536 165 l 617 127 q 499 23 568 66 q 355 -20 431 -20 q 179 59 244 -20 q 114 262 114 138 q 176 505 114 388 q 381 711 254 651 q 522 742 448 742 q 645 701 595 742 q 716 593 694 659 l 618 549 m 829 1027 l 589 793 l 500 793 l 361 1025 l 488 1025 l 565 882 l 701 1027 l 829 1027 z "},"Ď":{"ha":827,"x_min":82,"x_max":902,"o":"m 724 331 q 787 614 787 475 q 642 876 787 823 q 545 892 599 892 l 379 892 l 210 96 l 376 96 q 646 207 549 96 q 724 331 692 261 m 887 493 q 788 243 857 353 q 613 66 719 132 q 383 0 507 0 l 82 0 l 292 987 l 593 987 q 826 883 747 987 q 902 630 902 783 q 887 493 902 562 m 859 1260 l 620 1027 l 531 1027 l 393 1259 l 519 1259 l 595 1116 l 732 1260 l 859 1260 z "},"ď":{"ha":819,"x_min":113,"x_max":1007,"o":"m 730 986 l 833 986 l 623 0 l 520 0 l 547 125 q 314 -20 454 -20 q 162 50 211 -20 q 113 232 113 119 q 161 480 113 354 q 371 726 233 668 q 469 747 420 747 q 549 735 518 747 q 600 701 581 724 q 648 601 634 663 l 730 986 m 232 366 q 219 257 219 302 q 255 121 219 170 q 352 72 292 72 q 502 151 431 72 q 601 364 572 230 q 613 468 613 421 q 575 606 613 557 q 467 655 537 655 q 329 578 397 655 q 232 366 261 502 m 1007 985 l 1005 968 q 976 888 994 919 q 924 813 954 852 l 911 798 l 888 814 q 942 911 932 867 q 913 924 924 911 q 902 948 902 937 q 924 1007 902 987 q 966 1027 946 1027 q 996 1014 985 1027 q 1007 985 1007 1002 z "},"Đ":{"ha":935,"x_min":168,"x_max":983,"o":"m 291 449 l 168 449 l 188 545 l 311 545 l 405 987 l 663 987 q 898 888 813 987 q 983 631 983 789 q 968 492 983 562 q 863 242 938 355 q 681 65 789 130 q 453 0 572 0 l 195 0 l 291 449 m 397 449 l 322 97 l 473 97 q 714 207 606 97 q 861 492 823 317 q 875 610 875 557 q 812 814 875 738 q 642 890 749 890 l 491 890 l 418 545 l 621 545 l 600 449 l 397 449 z "},"đ":{"ha":708,"x_min":149,"x_max":941,"o":"m 269 366 q 256 250 256 306 q 275 151 256 193 q 389 72 310 72 q 539 151 468 72 q 638 364 610 230 q 650 477 650 422 q 629 577 650 533 q 513 655 592 655 q 366 578 434 655 q 269 366 298 501 m 149 231 l 150 251 q 210 509 155 383 q 385 716 276 659 q 500 747 445 747 q 637 701 601 747 q 685 601 671 659 l 728 800 l 560 800 l 581 896 l 748 896 l 767 986 l 870 986 l 851 896 l 941 896 l 920 800 l 831 800 l 661 0 l 557 0 l 584 125 q 430 -8 515 19 q 346 -20 395 -20 q 256 1 297 -20 q 158 146 182 39 q 149 231 149 186 z "},"Ē":{"ha":774,"x_min":82,"x_max":916,"o":"m 292 987 l 916 987 l 897 892 l 379 892 l 307 554 l 795 554 l 775 458 l 287 458 l 210 96 l 727 96 l 707 0 l 82 0 l 292 987 m 444 1201 l 903 1201 l 888 1129 l 429 1129 l 444 1201 z "},"ē":{"ha":675,"x_min":130,"x_max":771,"o":"m 261 410 l 615 410 q 620 468 620 444 q 587 598 620 547 q 496 650 553 650 q 390 613 438 650 q 261 410 299 544 m 242 318 q 238 259 238 288 q 270 124 238 177 q 359 72 302 72 q 469 98 416 72 q 553 165 523 124 l 635 127 q 507 20 586 60 q 347 -20 427 -20 q 186 52 242 -20 q 130 242 130 123 q 149 385 130 298 q 218 557 167 472 q 345 692 269 642 q 500 742 421 742 q 628 707 580 742 q 720 488 720 640 q 713 406 720 437 q 695 318 703 361 l 242 318 m 312 896 l 771 896 l 755 824 l 296 824 l 312 896 z "},"Ĕ":{"ha":774,"x_min":82,"x_max":916,"o":"m 292 987 l 916 987 l 897 892 l 379 892 l 307 554 l 795 554 l 775 458 l 287 458 l 210 96 l 727 96 l 707 0 l 82 0 l 292 987 m 474 1215 l 477 1242 q 478 1246 477 1245 l 533 1246 q 595 1135 550 1171 q 658 1119 618 1118 q 724 1135 697 1120 q 835 1246 771 1164 l 889 1246 q 888 1243 888 1245 q 888 1240 888 1240 q 817 1118 877 1192 q 734 1053 785 1080 q 637 1027 682 1027 q 552 1053 592 1027 q 493 1127 511 1080 q 474 1215 474 1175 z "},"ĕ":{"ha":675,"x_min":130,"x_max":777,"o":"m 261 410 l 615 410 q 620 468 620 444 q 587 598 620 547 q 496 650 553 650 q 390 613 438 650 q 261 410 299 544 m 242 318 q 238 259 238 288 q 270 124 238 177 q 359 72 302 72 q 469 98 416 72 q 553 165 523 124 l 635 127 q 507 20 586 60 q 347 -20 427 -20 q 186 52 242 -20 q 130 242 130 123 q 149 385 130 298 q 218 557 167 472 q 345 692 269 642 q 500 742 421 742 q 628 707 580 742 q 720 488 720 640 q 713 406 720 437 q 695 318 703 361 l 242 318 m 361 979 l 365 1008 q 366 1011 365 1010 l 420 1011 q 483 900 437 935 q 547 882 506 883 q 622 907 585 884 q 722 1011 659 929 l 777 1011 q 776 1008 776 1010 q 775 1004 776 1005 q 705 883 764 957 q 621 818 673 844 q 525 791 570 791 q 439 818 479 791 q 380 892 399 844 q 361 979 361 940 z "},"Ė":{"ha":774,"x_min":82,"x_max":916,"o":"m 292 987 l 916 987 l 897 892 l 379 892 l 307 554 l 795 554 l 775 458 l 287 458 l 210 96 l 727 96 l 707 0 l 82 0 l 292 987 m 713 1142 q 709 1129 713 1142 q 683 1096 706 1115 q 636 1077 660 1077 q 598 1092 612 1077 q 583 1134 583 1106 q 610 1183 583 1162 q 660 1205 636 1205 q 699 1191 684 1205 q 713 1142 720 1170 z "},"ė":{"ha":675,"x_min":130,"x_max":720,"o":"m 261 410 l 615 410 q 620 468 620 444 q 587 598 620 547 q 496 650 553 650 q 390 613 438 650 q 261 410 299 544 m 242 318 q 238 259 238 288 q 270 124 238 177 q 359 72 302 72 q 469 98 416 72 q 553 165 523 124 l 635 127 q 507 20 586 60 q 347 -20 427 -20 q 186 52 242 -20 q 130 242 130 123 q 149 385 130 298 q 218 557 167 472 q 345 692 269 642 q 500 742 421 742 q 628 707 580 742 q 720 488 720 640 q 713 406 720 437 q 695 318 703 361 l 242 318 m 519 855 q 507 855 519 855 q 480 870 495 855 q 465 912 465 885 q 492 962 465 940 q 543 983 518 983 q 595 932 593 983 q 569 877 595 899 q 519 855 543 855 z "},"Ę":{"ha":774,"x_min":82,"x_max":916,"o":"m 292 987 l 916 987 l 897 892 l 379 892 l 307 554 l 795 554 l 775 458 l 287 458 l 210 96 l 727 96 l 707 0 l 82 0 l 292 987 m 670 12 q 618 -58 618 -40 q 634 -98 613 -77 l 650 -114 q 667 -129 654 -117 l 619 -214 q 614 -210 617 -212 q 587 -192 604 -203 q 538 -151 562 -175 q 510 -112 514 -126 q 507 -88 507 -98 q 523 -29 507 -66 q 591 50 538 9 l 670 12 z "},"ę":{"ha":675,"x_min":130,"x_max":720,"o":"m 261 410 l 615 410 q 620 468 620 444 q 587 598 620 547 q 496 650 553 650 q 390 613 438 650 q 261 410 299 544 m 242 318 q 238 259 238 288 q 270 124 238 177 q 359 72 302 72 q 469 98 416 72 q 553 165 523 124 l 635 127 q 507 20 586 60 q 347 -20 427 -20 q 186 52 242 -20 q 130 242 130 123 q 149 385 130 298 q 218 557 167 472 q 345 692 269 642 q 500 742 421 742 q 628 707 580 742 q 720 488 720 640 q 713 406 720 437 q 695 318 703 361 l 242 318 m 397 12 q 345 -58 345 -38 q 361 -98 340 -77 q 366 -103 363 -100 q 370 -109 369 -106 q 379 -115 376 -113 q 394 -129 382 -117 l 347 -214 q 341 -210 345 -212 q 314 -191 331 -203 q 266 -151 290 -175 q 238 -112 241 -126 q 234 -88 234 -98 q 250 -29 234 -66 q 318 50 266 9 l 397 12 z "},"Ě":{"ha":774,"x_min":82,"x_max":926,"o":"m 292 987 l 916 987 l 897 892 l 379 892 l 307 554 l 795 554 l 775 458 l 287 458 l 210 96 l 727 96 l 707 0 l 82 0 l 292 987 m 926 1260 l 686 1027 l 597 1027 l 459 1259 l 585 1259 l 662 1116 l 798 1260 l 926 1260 z "},"ě":{"ha":675,"x_min":130,"x_max":807,"o":"m 261 410 l 615 410 q 620 468 620 444 q 587 598 620 547 q 496 650 553 650 q 390 613 438 650 q 261 410 299 544 m 242 318 q 238 259 238 288 q 270 124 238 177 q 359 72 302 72 q 469 98 416 72 q 553 165 523 124 l 635 127 q 507 20 586 60 q 347 -20 427 -20 q 186 52 242 -20 q 130 242 130 123 q 149 385 130 298 q 218 557 167 472 q 345 692 269 642 q 500 742 421 742 q 628 707 580 742 q 720 488 720 640 q 713 406 720 437 q 695 318 703 361 l 242 318 m 807 1025 l 568 791 l 479 791 l 340 1023 l 467 1023 l 543 880 l 680 1025 l 807 1025 z "},"Ĝ":{"ha":924,"x_min":157,"x_max":953,"o":"m 471 -20 q 233 88 313 -20 q 157 349 157 191 q 297 778 157 581 q 536 982 400 924 q 705 1014 611 1014 q 953 854 885 1014 l 849 808 q 782 891 821 863 q 679 918 743 918 q 561 892 615 918 q 463 823 506 866 q 382 724 419 780 q 273 370 273 559 q 368 117 273 196 q 483 75 418 75 q 598 96 548 75 q 683 149 648 117 q 745 222 718 180 q 810 376 794 296 l 544 376 l 564 472 l 937 472 l 924 414 q 821 176 897 283 q 475 -20 681 -20 l 471 -20 m 928 1027 l 800 1027 l 725 1171 l 587 1028 l 461 1028 l 699 1260 l 787 1260 l 928 1027 z "},"ĝ":{"ha":708,"x_min":50,"x_max":778,"o":"m 623 0 q 546 -170 600 -102 q 422 -271 492 -237 q 289 -304 353 -304 q 178 -285 225 -304 q 104 -233 132 -265 q 50 -92 50 -169 q 50 -74 50 -79 l 147 -74 l 147 -81 q 192 -175 147 -138 q 301 -212 236 -212 q 431 -163 367 -212 q 515 -22 496 -113 l 547 125 q 450 20 504 59 q 328 -20 395 -20 q 221 0 261 -20 q 159 54 182 19 q 113 232 113 123 q 161 480 113 354 q 371 726 233 668 q 469 747 420 747 q 549 735 518 747 q 600 701 581 724 q 648 601 634 663 l 675 728 l 778 728 l 623 0 m 232 366 q 219 257 219 302 q 255 121 219 170 q 352 72 292 72 q 502 151 431 72 q 601 364 572 230 q 613 468 613 421 q 575 606 613 557 q 467 655 537 655 q 329 578 397 655 q 232 366 261 502 m 758 791 l 630 791 l 555 935 l 417 792 l 291 792 l 528 1024 l 617 1024 l 758 791 z "},"Ğ":{"ha":924,"x_min":157,"x_max":953,"o":"m 471 -20 q 233 88 313 -20 q 157 349 157 191 q 297 778 157 581 q 536 982 400 924 q 705 1014 611 1014 q 953 854 885 1014 l 849 808 q 782 891 821 863 q 679 918 743 918 q 561 892 615 918 q 463 823 506 866 q 382 724 419 780 q 273 370 273 559 q 368 117 273 196 q 483 75 418 75 q 598 96 548 75 q 683 149 648 117 q 745 222 718 180 q 810 376 794 296 l 544 376 l 564 472 l 937 472 l 924 414 q 821 176 897 283 q 475 -20 681 -20 l 471 -20 m 501 1215 l 505 1242 q 505 1246 505 1245 l 560 1246 q 623 1135 577 1171 q 685 1119 646 1118 q 751 1135 724 1120 q 862 1246 798 1164 l 916 1246 q 916 1243 916 1245 q 915 1240 916 1240 q 844 1118 904 1192 q 761 1053 812 1080 q 664 1027 709 1027 q 579 1053 619 1027 q 520 1127 538 1080 q 501 1215 501 1175 z "},"ğ":{"ha":708,"x_min":50,"x_max":778,"o":"m 623 0 q 546 -170 600 -102 q 422 -271 492 -237 q 289 -304 353 -304 q 178 -285 225 -304 q 104 -233 132 -265 q 50 -92 50 -169 q 50 -74 50 -79 l 147 -74 l 147 -81 q 192 -175 147 -138 q 301 -212 236 -212 q 431 -163 367 -212 q 515 -22 496 -113 l 547 125 q 450 20 504 59 q 328 -20 395 -20 q 221 0 261 -20 q 159 54 182 19 q 113 232 113 123 q 161 480 113 354 q 371 726 233 668 q 469 747 420 747 q 549 735 518 747 q 600 701 581 724 q 648 601 634 663 l 675 728 l 778 728 l 623 0 m 232 366 q 219 257 219 302 q 255 121 219 170 q 352 72 292 72 q 502 151 431 72 q 601 364 572 230 q 613 468 613 421 q 575 606 613 557 q 467 655 537 655 q 329 578 397 655 q 232 366 261 502 m 359 981 l 362 1009 q 363 1013 362 1012 l 418 1013 q 480 901 435 937 q 545 884 503 884 q 619 908 582 886 q 720 1013 656 930 l 774 1013 q 773 1009 773 1012 q 772 1006 773 1006 q 702 884 762 958 q 619 819 670 845 q 523 793 568 793 q 436 820 477 793 q 377 893 395 846 q 359 981 359 939 z "},"Ġ":{"ha":924,"x_min":157,"x_max":953,"o":"m 471 -20 q 233 88 313 -20 q 157 349 157 191 q 297 778 157 581 q 536 982 400 924 q 705 1014 611 1014 q 953 854 885 1014 l 849 808 q 782 891 821 863 q 679 918 743 918 q 561 892 615 918 q 463 823 506 866 q 382 724 419 780 q 273 370 273 559 q 368 117 273 196 q 483 75 418 75 q 598 96 548 75 q 683 149 648 117 q 745 222 718 180 q 810 376 794 296 l 544 376 l 564 472 l 937 472 l 924 414 q 821 176 897 283 q 475 -20 681 -20 l 471 -20 m 783 1142 q 779 1129 783 1142 q 753 1096 776 1115 q 706 1077 730 1077 q 668 1092 682 1077 q 653 1134 653 1106 q 680 1183 653 1162 q 730 1205 706 1205 q 768 1191 754 1205 q 783 1142 789 1170 z "},"ġ":{"ha":708,"x_min":50,"x_max":778,"o":"m 623 0 q 546 -170 600 -102 q 422 -271 492 -237 q 289 -304 353 -304 q 178 -285 225 -304 q 104 -233 132 -265 q 50 -92 50 -169 q 50 -74 50 -79 l 147 -74 l 147 -81 q 192 -175 147 -138 q 301 -212 236 -212 q 431 -163 367 -212 q 515 -22 496 -113 l 547 125 q 450 20 504 59 q 328 -20 395 -20 q 221 0 261 -20 q 159 54 182 19 q 113 232 113 123 q 161 480 113 354 q 371 726 233 668 q 469 747 420 747 q 549 735 518 747 q 600 701 581 724 q 648 601 634 663 l 675 728 l 778 728 l 623 0 m 232 366 q 219 257 219 302 q 255 121 219 170 q 352 72 292 72 q 502 151 431 72 q 601 364 572 230 q 613 468 613 421 q 575 606 613 557 q 467 655 537 655 q 329 578 397 655 q 232 366 261 502 m 541 855 q 529 855 541 855 q 502 870 517 855 q 487 912 487 885 q 513 962 487 940 q 564 983 540 983 q 617 932 614 983 q 591 877 617 899 q 541 855 564 855 z "},"Ģ":{"ha":924,"x_min":157,"x_max":953,"o":"m 471 -20 q 233 88 313 -20 q 157 349 157 191 q 297 778 157 581 q 536 982 400 924 q 705 1014 611 1014 q 953 854 885 1014 l 849 808 q 782 891 821 863 q 679 918 743 918 q 561 892 615 918 q 463 823 506 866 q 382 724 419 780 q 273 370 273 559 q 368 117 273 196 q 483 75 418 75 q 598 96 548 75 q 683 149 648 117 q 745 222 718 180 q 810 376 794 296 l 544 376 l 564 472 l 937 472 l 924 414 q 821 176 897 283 q 475 -20 681 -20 l 471 -20 m 455 -18 q 469 -18 455 -18 q 499 -34 483 -18 q 515 -77 515 -50 q 498 -142 515 -104 q 464 -206 481 -180 q 433 -249 446 -232 q 403 -284 420 -265 q 385 -304 386 -303 l 351 -283 q 426 -163 416 -212 q 383 -147 399 -163 q 367 -106 367 -131 q 371 -82 366 -103 q 401 -39 375 -60 q 455 -18 427 -18 z "},"ģ":{"ha":708,"x_min":50,"x_max":778,"o":"m 623 0 q 546 -170 600 -102 q 422 -271 492 -237 q 289 -304 353 -304 q 178 -285 225 -304 q 104 -233 132 -265 q 50 -92 50 -169 q 50 -74 50 -79 l 147 -74 l 147 -81 q 192 -175 147 -138 q 301 -212 236 -212 q 431 -163 367 -212 q 515 -22 496 -113 l 547 125 q 450 20 504 59 q 328 -20 395 -20 q 221 0 261 -20 q 159 54 182 19 q 113 232 113 123 q 161 480 113 354 q 371 726 233 668 q 469 747 420 747 q 549 735 518 747 q 600 701 581 724 q 648 601 634 663 l 675 728 l 778 728 l 623 0 m 232 366 q 219 257 219 302 q 255 121 219 170 q 352 72 292 72 q 502 151 431 72 q 601 364 572 230 q 613 468 613 421 q 575 606 613 557 q 467 655 537 655 q 329 578 397 655 q 232 366 261 502 m 616 1075 q 630 1075 616 1075 q 661 1058 644 1075 q 677 1016 677 1042 q 660 951 677 990 q 625 886 643 912 q 595 844 608 861 q 565 808 582 827 q 547 788 547 789 l 513 809 q 587 930 577 880 q 545 946 561 930 q 528 987 528 962 q 532 1011 528 989 q 563 1054 536 1032 q 616 1075 589 1075 z "},"Ĥ":{"ha":812,"x_min":82,"x_max":954,"o":"m 292 987 l 399 987 l 307 553 l 755 553 l 847 987 l 954 987 l 745 0 l 637 0 l 734 457 l 286 457 l 189 0 l 82 0 l 292 987 m 865 1027 l 737 1027 l 662 1171 l 524 1028 l 398 1028 l 635 1260 l 724 1260 l 865 1027 z "},"ĥ":{"ha":673,"x_min":87,"x_max":811,"o":"m 638 487 q 509 654 638 654 q 357 573 420 654 q 269 366 295 491 l 191 0 l 87 0 l 297 987 l 400 987 l 319 605 q 415 706 351 665 q 562 747 479 747 q 694 691 644 747 q 745 519 745 634 q 726 367 745 453 l 648 0 l 546 0 l 624 367 q 638 487 638 436 m 811 1027 l 684 1027 l 608 1171 l 471 1028 l 345 1028 l 582 1260 l 671 1260 l 811 1027 z "},"Ħ":{"ha":812,"x_min":82,"x_max":954,"o":"m 292 987 l 399 987 l 344 726 l 792 726 l 847 987 l 954 987 l 899 726 l 937 726 l 922 657 l 884 657 l 745 0 l 637 0 l 734 457 l 286 457 l 189 0 l 82 0 l 222 657 l 168 657 l 183 726 l 237 726 l 292 987 m 777 657 l 329 657 l 307 553 l 755 553 l 777 657 z "},"ħ":{"ha":673,"x_min":87,"x_max":744,"o":"m 637 485 q 509 654 637 654 q 354 568 418 654 q 269 366 295 489 l 191 0 l 87 0 l 258 800 l 191 800 l 211 896 l 278 896 l 297 987 l 400 987 l 381 896 l 572 896 l 551 800 l 361 800 l 319 605 q 416 708 354 668 q 545 747 479 747 q 744 538 736 747 l 744 520 q 726 367 744 449 l 648 0 l 546 0 l 624 367 q 637 479 636 425 l 637 485 z "},"Ĩ":{"ha":301,"x_min":104,"x_max":671,"o":"m 104 0 l 314 987 l 420 987 l 211 0 l 104 0 m 233 1228 q 271 1256 250 1240 q 370 1293 323 1293 q 435 1257 405 1293 q 466 1221 456 1233 q 522 1191 493 1191 q 624 1227 570 1191 q 671 1257 646 1241 l 650 1159 q 598 1125 616 1137 q 556 1102 581 1112 q 508 1092 530 1092 q 433 1128 467 1092 q 412 1153 432 1129 q 349 1195 375 1195 q 256 1160 303 1195 q 212 1129 243 1151 l 233 1228 z "},"ĩ":{"ha":292,"x_min":102,"x_max":578,"o":"m 140 927 q 176 952 152 935 q 278 992 229 992 q 342 956 311 992 q 355 941 347 951 q 373 920 364 931 q 429 890 399 890 q 531 926 478 890 q 578 956 536 929 l 557 858 q 506 824 524 836 q 464 801 489 811 q 416 791 438 791 q 341 827 374 791 q 319 852 340 828 q 257 894 283 894 q 163 859 209 894 q 119 828 138 842 l 140 927 m 256 728 l 359 728 l 204 0 l 102 0 l 256 728 z "},"Ī":{"ha":301,"x_min":104,"x_max":629,"o":"m 104 0 l 314 987 l 420 987 l 211 0 l 104 0 m 170 1179 l 629 1179 l 614 1107 l 155 1107 l 170 1179 z "},"ī":{"ha":292,"x_min":102,"x_max":583,"o":"m 124 895 l 583 895 l 568 823 l 109 823 l 124 895 m 256 728 l 359 728 l 204 0 l 102 0 l 256 728 z "},"Ĭ":{"ha":301,"x_min":104,"x_max":625,"o":"m 104 0 l 314 987 l 420 987 l 211 0 l 104 0 m 553 1118 q 470 1053 522 1080 q 373 1027 418 1027 q 288 1053 328 1027 q 229 1127 248 1080 q 210 1201 210 1175 q 214 1246 210 1226 l 269 1246 q 332 1135 286 1171 q 394 1119 355 1118 q 460 1135 433 1120 q 571 1246 507 1164 l 625 1246 q 553 1118 615 1194 z "},"ĭ":{"ha":292,"x_min":95,"x_max":560,"o":"m 488 855 q 405 790 456 817 q 308 764 353 764 q 223 790 263 764 q 164 864 182 817 q 145 938 145 912 q 149 983 145 963 l 204 983 q 267 872 221 907 q 331 854 290 855 q 405 879 368 857 q 506 983 442 901 l 560 983 q 488 855 550 931 m 250 728 l 352 728 l 197 0 l 95 0 l 250 728 z "},"Į":{"ha":301,"x_min":63,"x_max":420,"o":"m 104 0 l 314 987 l 420 987 l 211 0 l 104 0 m 223 -129 l 176 -214 q 170 -210 174 -212 q 144 -192 160 -203 q 94 -151 119 -175 q 66 -112 70 -126 q 63 -88 63 -98 q 79 -29 63 -66 q 147 50 95 9 l 227 12 q 178 -48 184 -28 q 191 -98 170 -77 l 206 -114 q 223 -129 211 -117 z "},"į":{"ha":292,"x_min":63,"x_max":410,"o":"m 256 728 l 359 728 l 204 0 l 102 0 l 256 728 m 333 840 q 321 840 333 840 q 294 855 309 840 q 279 897 279 869 q 306 946 279 924 q 357 968 332 968 q 395 953 381 968 q 410 927 410 939 q 406 897 410 916 q 380 859 403 878 q 333 840 357 840 m 223 -129 l 176 -214 q 170 -210 174 -212 q 144 -192 160 -203 q 94 -151 119 -175 q 66 -112 70 -126 q 63 -88 63 -98 q 79 -29 63 -66 q 147 50 95 9 l 227 12 q 178 -48 184 -28 q 191 -98 170 -77 l 206 -114 q 223 -129 211 -117 z "},"İ":{"ha":301,"x_min":104,"x_max":463,"o":"m 104 0 l 314 987 l 420 987 l 211 0 l 104 0 m 463 1142 q 459 1129 463 1142 q 433 1096 456 1115 q 386 1077 410 1077 q 348 1092 362 1077 q 333 1134 333 1106 q 359 1183 333 1162 q 410 1205 386 1205 q 448 1191 434 1205 q 463 1142 469 1170 z "},"ı":{"ha":292,"x_min":95,"x_max":352,"o":"m 250 728 l 352 728 l 197 0 l 95 0 l 250 728 z "},"Ĳ":{"ha":918,"x_min":104,"x_max":1053,"o":"m 104 0 l 314 987 l 420 987 l 211 0 l 104 0 m 446 243 q 574 73 446 73 q 730 160 664 73 q 815 361 789 239 l 949 993 l 1053 993 l 920 368 q 755 79 884 201 q 658 9 711 39 q 538 -20 605 -20 q 367 71 414 -20 q 340 193 340 122 q 359 368 340 264 l 461 368 q 446 249 448 292 q 446 243 446 249 z "},"ĳ":{"ha":481,"x_min":33,"x_max":601,"o":"m 358 968 q 409 912 408 968 q 383 862 410 884 q 333 840 357 840 q 295 854 309 840 q 280 884 281 868 q 306 945 279 923 q 358 968 332 968 m 256 728 l 359 728 l 204 0 l 102 0 l 256 728 m 121 -165 q 180 -199 147 -199 q 267 -115 250 -199 l 446 728 l 549 728 l 374 -94 q 292 -228 356 -178 q 140 -290 212 -290 q 58 -262 91 -290 q 33 -235 51 -256 l 121 -165 m 522 840 q 470 898 470 840 q 496 946 470 924 q 549 968 523 968 q 588 952 575 968 q 601 924 601 937 q 574 862 601 884 q 522 840 547 840 z "},"Ĵ":{"ha":773,"x_min":142,"x_max":1094,"o":"m 154 363 l 250 363 q 241 292 241 322 q 283 143 241 205 q 394 82 326 82 q 521 125 463 82 q 667 363 634 209 l 800 987 l 907 987 l 774 363 q 629 88 739 196 q 379 -20 518 -20 q 204 57 267 -20 q 142 256 141 134 l 142 260 q 154 363 142 304 m 1094 1027 l 966 1027 l 891 1171 l 753 1028 l 627 1028 l 865 1260 l 954 1260 l 1094 1027 z "},"ĵ":{"ha":317,"x_min":-131,"x_max":578,"o":"m 578 794 l 450 794 l 375 939 l 237 795 l 111 795 l 349 1027 l 437 1027 l 578 794 m -43 -165 q 16 -199 -17 -199 q 103 -115 85 -199 l 282 728 l 385 728 l 210 -94 q 128 -228 192 -178 q -24 -290 48 -290 q -106 -262 -73 -290 q -131 -235 -113 -256 l -43 -165 z "},"Ķ":{"ha":840,"x_min":82,"x_max":1036,"o":"m 292 987 l 399 987 l 290 476 l 905 987 l 1036 987 l 503 545 l 838 0 l 697 0 l 418 476 l 264 350 l 189 0 l 82 0 l 292 987 m 359 -16 q 373 -16 359 -16 q 403 -32 387 -16 q 420 -75 420 -49 q 402 -139 420 -100 q 368 -204 385 -178 q 337 -247 350 -230 q 307 -282 324 -263 q 289 -302 290 -301 l 256 -281 q 330 -161 320 -210 q 287 -145 304 -161 q 271 -104 271 -129 q 274 -80 270 -101 q 305 -37 279 -58 q 359 -16 331 -16 z "},"ķ":{"ha":604,"x_min":87,"x_max":741,"o":"m 414 418 l 637 0 l 519 0 l 336 347 l 245 257 l 191 0 l 87 0 l 297 986 l 400 986 l 275 395 l 623 728 l 741 728 l 414 418 m 325 -16 q 339 -16 325 -16 q 369 -32 353 -16 q 385 -75 385 -49 q 368 -139 385 -100 q 333 -204 351 -178 q 302 -247 315 -230 q 272 -282 290 -263 q 254 -302 255 -301 l 221 -281 q 296 -161 286 -210 q 253 -145 269 -161 q 236 -104 236 -129 q 240 -80 235 -101 q 270 -37 244 -58 q 325 -16 296 -16 z "},"ĸ":{"ha":719,"x_min":82,"x_max":753,"o":"m 237 727 l 344 727 l 281 434 l 627 730 l 753 730 l 333 366 l 635 0 l 488 0 l 248 275 l 189 0 l 82 0 l 237 727 z "},"Ĺ":{"ha":749,"x_min":82,"x_max":728,"o":"m 292 987 l 399 987 l 210 96 l 728 96 l 708 0 l 82 0 l 292 987 m 368 1079 q 344 1073 358 1073 q 323 1085 330 1073 q 316 1109 316 1097 q 333 1137 316 1121 l 559 1306 q 590 1318 577 1318 q 630 1298 620 1318 q 636 1281 636 1289 q 635 1269 636 1274 q 633 1263 635 1265 q 627 1249 632 1259 q 606 1227 623 1239 l 368 1079 z "},"ĺ":{"ha":320,"x_min":125,"x_max":642,"o":"m 234 140 q 232 120 232 129 q 300 69 232 69 l 281 -20 q 165 5 204 -20 q 125 91 125 31 q 131 138 125 114 l 311 986 l 414 986 l 234 140 m 374 1079 q 350 1073 364 1073 q 329 1085 336 1073 q 322 1109 322 1097 q 339 1137 322 1121 l 566 1306 q 596 1318 583 1318 q 636 1298 626 1318 q 642 1281 642 1289 q 642 1269 642 1274 q 640 1263 641 1265 q 633 1249 638 1259 q 612 1227 629 1239 l 374 1079 z "},"Ļ":{"ha":749,"x_min":82,"x_max":728,"o":"m 292 987 l 399 987 l 210 96 l 728 96 l 708 0 l 82 0 l 292 987 m 361 -16 q 375 -16 361 -16 q 406 -32 389 -16 q 422 -75 422 -49 q 405 -139 422 -100 q 370 -204 388 -178 q 340 -247 353 -230 q 310 -282 327 -263 q 292 -302 292 -301 l 258 -281 q 333 -161 323 -210 q 290 -145 307 -161 q 273 -104 273 -129 q 277 -80 273 -101 q 308 -37 281 -58 q 361 -16 334 -16 z "},"ļ":{"ha":320,"x_min":95,"x_max":414,"o":"m 234 140 q 232 120 232 129 q 300 69 232 69 l 281 -20 q 165 5 204 -20 q 125 91 125 31 q 131 138 125 114 l 311 986 l 414 986 l 234 140 m 198 -18 q 212 -18 198 -18 q 243 -35 227 -18 q 259 -77 259 -52 q 242 -142 259 -103 q 207 -207 224 -181 q 176 -249 189 -233 q 146 -285 163 -266 q 128 -305 129 -304 l 95 -284 q 170 -163 159 -213 q 127 -148 143 -163 q 111 -106 111 -132 q 114 -81 110 -101 q 144 -40 118 -61 q 198 -18 170 -18 z "},"Ľ":{"ha":749,"x_min":82,"x_max":728,"o":"m 292 987 l 399 987 l 210 96 l 728 96 l 708 0 l 82 0 l 292 987 m 539 985 l 537 968 q 508 888 526 919 q 456 813 486 852 l 443 798 l 420 814 q 474 911 464 867 q 445 924 456 911 q 434 948 434 937 q 456 1007 434 987 q 498 1027 478 1027 q 528 1014 517 1027 q 539 985 539 1002 z "},"ľ":{"ha":363,"x_min":125,"x_max":539,"o":"m 234 140 q 232 120 232 129 q 300 69 232 69 l 281 -20 q 165 5 204 -20 q 125 91 125 31 q 131 138 125 114 l 311 986 l 414 986 l 234 140 m 539 985 l 537 968 q 508 888 526 919 q 456 813 486 852 l 443 798 l 420 814 q 474 911 464 867 q 445 924 456 911 q 434 948 434 937 q 456 1007 434 987 q 498 1027 478 1027 q 528 1014 517 1027 q 539 985 539 1002 z "},"Ŀ":{"ha":749,"x_min":82,"x_max":728,"o":"m 292 987 l 399 987 l 210 96 l 728 96 l 708 0 l 82 0 l 292 987 m 478 479 q 482 504 477 482 q 512 546 486 525 q 566 568 538 568 q 611 551 594 568 q 627 518 627 534 q 597 447 627 472 q 539 422 567 422 q 494 438 511 422 q 478 479 478 454 z "},"ŀ":{"ha":424,"x_min":125,"x_max":561,"o":"m 234 140 q 232 120 232 129 q 300 69 232 69 l 281 -20 q 165 5 204 -20 q 125 91 125 31 q 131 138 125 114 l 311 986 l 414 986 l 234 140 m 412 479 q 415 504 411 482 q 446 546 420 525 q 500 568 472 568 q 544 551 528 568 q 561 518 561 534 q 531 447 561 472 q 472 422 500 422 q 428 438 444 422 q 412 479 412 454 z "},"Ł":{"ha":749,"x_min":82,"x_max":728,"o":"m 85 346 l 115 483 l 199 553 l 292 987 l 399 987 l 330 662 l 433 747 l 404 606 l 300 522 l 210 96 l 728 96 l 708 0 l 82 0 l 170 416 l 85 346 z "},"ł":{"ha":320,"x_min":85,"x_max":433,"o":"m 85 346 l 115 483 l 204 557 l 295 986 l 397 986 l 328 661 l 433 747 l 404 606 l 298 520 l 218 140 q 216 120 216 129 q 283 69 216 69 l 264 -20 q 149 6 189 -20 q 109 91 109 31 q 115 138 109 109 l 174 419 l 85 346 z "},"Ń":{"ha":862,"x_min":82,"x_max":1004,"o":"m 82 0 l 292 987 l 395 987 l 730 200 l 897 987 l 1004 987 l 794 0 l 696 0 l 361 807 l 189 0 l 82 0 m 634 1079 q 610 1073 625 1073 q 589 1085 596 1073 q 583 1109 583 1097 q 600 1137 583 1121 l 826 1306 q 857 1318 844 1318 q 897 1298 886 1318 q 903 1281 903 1289 q 902 1269 903 1274 q 901 1263 901 1265 q 894 1249 899 1259 q 873 1227 889 1239 l 634 1079 z "},"ń":{"ha":675,"x_min":94,"x_max":765,"o":"m 645 487 q 516 654 645 654 q 364 573 427 654 q 275 366 302 491 l 197 0 l 94 0 l 249 728 l 352 728 l 326 605 q 422 706 358 665 q 569 747 486 747 q 701 691 651 747 q 751 519 751 634 q 733 367 751 453 l 655 0 l 553 0 l 631 367 q 645 487 645 436 m 446 871 q 463 899 446 884 l 689 1069 q 719 1081 707 1081 q 759 1061 749 1081 q 765 1042 765 1051 q 735 990 765 1012 l 497 842 q 481 836 488 836 q 446 871 446 836 z "},"Ņ":{"ha":862,"x_min":82,"x_max":1004,"o":"m 82 0 l 292 987 l 395 987 l 730 200 l 897 987 l 1004 987 l 794 0 l 696 0 l 361 807 l 189 0 l 82 0 m 391 -18 q 405 -18 391 -18 q 435 -34 419 -18 q 452 -77 452 -50 q 435 -142 452 -104 q 400 -206 418 -180 q 370 -249 382 -232 q 339 -284 357 -265 q 321 -304 322 -303 l 288 -283 q 362 -163 352 -212 q 319 -147 336 -163 q 303 -106 303 -131 q 307 -82 302 -103 q 337 -39 311 -60 q 391 -18 363 -18 z "},"ņ":{"ha":675,"x_min":87,"x_max":745,"o":"m 638 487 q 509 654 638 654 q 357 573 420 654 q 269 366 295 491 l 191 0 l 87 0 l 242 728 l 345 728 l 319 605 q 415 706 351 665 q 562 747 479 747 q 694 691 644 747 q 745 519 745 634 q 726 367 745 453 l 648 0 l 546 0 l 624 367 q 638 487 638 436 m 356 -18 q 370 -18 356 -18 q 400 -34 384 -18 q 416 -77 416 -50 q 399 -142 416 -104 q 365 -206 382 -180 q 334 -249 347 -232 q 304 -284 321 -265 q 286 -304 287 -303 l 252 -283 q 327 -163 317 -212 q 284 -147 300 -163 q 268 -106 268 -131 q 272 -82 267 -103 q 302 -39 276 -60 q 356 -18 328 -18 z "},"Ň":{"ha":862,"x_min":82,"x_max":1004,"o":"m 82 0 l 292 987 l 395 987 l 730 200 l 897 987 l 1004 987 l 794 0 l 696 0 l 361 807 l 189 0 l 82 0 m 938 1260 l 699 1027 l 610 1027 l 471 1259 l 597 1259 l 674 1116 l 810 1260 l 938 1260 z "},"ň":{"ha":675,"x_min":87,"x_max":815,"o":"m 638 487 q 509 654 638 654 q 357 573 420 654 q 269 366 295 491 l 191 0 l 87 0 l 242 728 l 345 728 l 319 605 q 415 706 351 665 q 562 747 479 747 q 694 691 644 747 q 745 519 745 634 q 726 367 745 453 l 648 0 l 546 0 l 624 367 q 638 487 638 436 m 815 1027 l 576 793 l 487 793 l 348 1025 l 474 1025 l 551 882 l 688 1027 l 815 1027 z "},"ŉ":{"ha":892,"x_min":258,"x_max":916,"o":"m 809 487 q 680 654 809 654 q 528 573 591 654 q 439 366 466 491 l 361 0 l 258 0 l 413 728 l 516 728 l 490 605 q 586 706 522 665 q 733 747 650 747 q 865 691 815 747 q 916 519 916 634 q 897 367 916 453 l 819 0 l 717 0 l 795 367 q 809 487 809 436 m 370 1075 q 384 1075 370 1075 q 414 1058 397 1075 q 431 1016 431 1042 q 413 951 431 990 q 378 886 396 912 q 348 844 361 861 q 318 808 335 827 q 300 788 300 789 l 267 809 q 340 930 330 880 q 298 946 314 930 q 281 987 281 962 q 285 1011 281 989 q 316 1054 290 1032 q 370 1075 342 1075 z "},"Ŋ":{"ha":862,"x_min":79,"x_max":935,"o":"m 499 -59 l 521 32 q 651 82 591 32 q 731 223 711 132 l 814 612 q 828 724 827 673 l 828 730 q 699 900 828 900 q 600 877 671 900 q 473 816 555 860 q 347 722 391 772 q 313 612 333 705 l 182 0 l 79 0 l 284 987 l 387 987 l 363 850 q 562 953 459 913 q 734 993 664 993 q 935 784 926 993 l 935 767 q 916 612 935 699 l 838 246 l 839 245 q 838 243 838 245 l 838 239 q 786 110 830 201 q 707 19 762 62 q 502 -59 605 -59 l 499 -59 z "},"ŋ":{"ha":708,"x_min":73,"x_max":730,"o":"m 295 -304 l 317 -214 q 447 -164 387 -214 q 527 -22 507 -114 l 610 367 q 623 479 622 425 l 623 485 q 495 654 623 654 q 339 568 403 654 q 254 366 281 492 l 176 0 l 73 0 l 228 728 l 331 728 l 305 605 q 402 708 340 668 q 531 747 464 747 q 730 538 722 747 l 730 520 q 712 367 730 449 l 634 1 l 635 0 q 582 -136 624 -47 q 502 -226 558 -182 q 298 -304 401 -304 l 295 -304 z "},"Ō":{"ha":904,"x_min":151,"x_max":977,"o":"m 762 267 q 865 646 865 442 q 819 834 865 758 q 654 918 770 918 q 535 891 591 918 q 438 821 479 864 q 365 720 398 778 q 263 344 267 549 q 309 159 263 232 q 475 77 359 77 q 762 267 651 77 m 151 347 q 282 770 151 568 q 515 981 380 921 q 665 1014 591 1014 q 792 993 740 1014 q 879 937 845 972 q 935 854 913 902 q 977 667 977 765 q 962 502 977 569 q 926 378 948 435 q 873 263 905 321 q 799 155 842 205 q 705 65 755 104 q 454 -20 595 -20 q 193 138 267 -20 q 151 347 151 227 m 481 1179 l 941 1179 l 926 1107 l 467 1107 l 481 1179 z "},"ō":{"ha":675,"x_min":133,"x_max":776,"o":"m 146 364 q 282 636 182 531 q 524 742 382 742 q 694 672 636 742 q 752 484 752 602 q 734 342 752 429 q 665 170 715 255 q 535 32 614 84 q 353 -20 456 -20 q 191 52 249 -20 q 133 242 133 123 q 146 364 133 298 m 251 364 q 238 237 238 306 q 273 120 238 168 q 381 72 308 72 q 600 252 522 72 q 647 460 647 363 q 612 603 647 556 q 504 650 577 650 q 342 570 406 650 q 251 364 278 491 m 317 898 l 776 898 l 761 826 l 302 826 l 317 898 z "},"Ŏ":{"ha":904,"x_min":151,"x_max":977,"o":"m 762 267 q 865 646 865 442 q 819 834 865 758 q 654 918 770 918 q 535 891 591 918 q 438 821 479 864 q 365 720 398 778 q 263 344 267 549 q 309 159 263 232 q 475 77 359 77 q 762 267 651 77 m 151 347 q 282 770 151 568 q 515 981 380 921 q 665 1014 591 1014 q 792 993 740 1014 q 879 937 845 972 q 935 854 913 902 q 977 667 977 765 q 962 502 977 569 q 926 378 948 435 q 873 263 905 321 q 799 155 842 205 q 705 65 755 104 q 454 -20 595 -20 q 193 138 267 -20 q 151 347 151 227 m 501 1215 l 505 1242 q 505 1246 505 1245 l 560 1246 q 623 1135 577 1171 q 685 1119 646 1118 q 751 1135 724 1120 q 862 1246 798 1164 l 916 1246 q 916 1243 916 1245 q 915 1240 916 1240 q 844 1118 904 1192 q 761 1053 812 1080 q 664 1027 709 1027 q 579 1053 619 1027 q 520 1127 538 1080 q 501 1215 501 1175 z "},"ŏ":{"ha":675,"x_min":133,"x_max":783,"o":"m 146 364 q 282 636 182 531 q 524 742 382 742 q 694 672 636 742 q 752 484 752 602 q 734 342 752 429 q 665 170 715 255 q 535 32 614 84 q 353 -20 456 -20 q 191 52 249 -20 q 133 242 133 123 q 146 364 133 298 m 251 364 q 238 237 238 306 q 273 120 238 168 q 381 72 308 72 q 600 252 522 72 q 647 460 647 363 q 612 603 647 556 q 504 650 577 650 q 342 570 406 650 q 251 364 278 491 m 711 883 q 627 818 679 844 q 531 791 576 791 q 445 818 486 791 q 386 892 405 844 q 368 965 368 940 q 372 1011 368 991 l 427 1011 q 489 900 444 935 q 553 882 512 883 q 628 907 591 884 q 728 1011 665 929 l 783 1011 q 711 883 772 959 z "},"Ő":{"ha":904,"x_min":151,"x_max":1041,"o":"m 762 267 q 865 646 865 442 q 819 834 865 758 q 654 918 770 918 q 535 891 591 918 q 438 821 479 864 q 365 720 398 778 q 263 344 267 549 q 309 159 263 232 q 475 77 359 77 q 762 267 651 77 m 151 347 q 282 770 151 568 q 515 981 380 921 q 665 1014 591 1014 q 792 993 740 1014 q 879 937 845 972 q 935 854 913 902 q 977 667 977 765 q 962 502 977 569 q 926 378 948 435 q 873 263 905 321 q 799 155 842 205 q 705 65 755 104 q 454 -20 595 -20 q 193 138 267 -20 q 151 347 151 227 m 768 1034 q 758 1056 758 1043 q 768 1082 758 1069 l 954 1295 q 996 1317 975 1317 q 1028 1305 1016 1317 q 1041 1283 1041 1294 q 1039 1261 1041 1272 q 1022 1235 1037 1251 l 819 1038 q 793 1027 807 1027 q 768 1034 779 1027 m 558 1027 q 525 1059 525 1027 q 535 1082 525 1069 l 720 1295 q 762 1317 742 1317 q 795 1305 783 1317 q 808 1283 808 1294 q 806 1261 808 1272 q 789 1235 804 1251 l 585 1038 q 558 1027 574 1027 z "},"ő":{"ha":675,"x_min":133,"x_max":889,"o":"m 146 364 q 282 636 182 531 q 524 742 382 742 q 694 672 636 742 q 752 484 752 602 q 734 342 752 429 q 665 170 715 255 q 535 32 614 84 q 353 -20 456 -20 q 191 52 249 -20 q 133 242 133 123 q 146 364 133 298 m 251 364 q 238 237 238 306 q 273 120 238 168 q 381 72 308 72 q 600 252 522 72 q 647 460 647 363 q 612 603 647 556 q 504 650 577 650 q 342 570 406 650 q 251 364 278 491 m 617 800 q 607 822 607 810 q 617 848 607 835 l 802 1061 q 844 1083 823 1083 q 877 1072 865 1083 q 889 1048 889 1061 q 887 1026 889 1036 q 871 1001 886 1017 l 667 804 q 642 793 656 793 q 617 800 628 793 m 384 800 q 374 822 374 810 q 384 848 374 835 l 568 1061 q 611 1083 590 1083 q 644 1072 631 1083 q 656 1048 656 1061 q 654 1026 656 1036 q 637 1001 652 1017 l 434 804 q 409 793 422 793 q 384 800 395 793 z "},"Œ":{"ha":1059,"x_min":151,"x_max":1201,"o":"m 151 344 q 282 770 151 570 q 674 1014 442 1014 q 813 987 793 1014 l 1201 987 l 1181 892 l 869 892 l 798 554 l 1080 554 l 1060 458 l 777 458 l 700 96 l 1012 96 l 991 0 l 579 0 q 446 -20 518 -20 q 313 11 373 -20 q 168 210 205 64 q 151 344 151 271 m 594 103 l 762 892 q 758 894 761 892 q 657 918 725 918 q 365 720 477 918 q 285 517 307 618 q 263 344 263 416 l 263 338 q 309 159 263 233 q 475 77 359 77 q 593 103 544 77 l 594 103 z "},"œ":{"ha":1008,"x_min":132,"x_max":1040,"o":"m 479 98 q 451 231 451 158 q 539 557 451 414 q 589 626 566 600 q 497 650 559 650 q 384 610 436 650 q 251 364 288 536 q 238 253 238 306 q 381 72 238 72 q 479 98 427 72 m 138 170 q 132 251 132 205 q 148 372 132 297 q 279 633 182 532 q 524 742 382 742 q 670 694 614 742 q 819 742 744 742 q 942 711 894 742 q 1040 487 1040 648 q 1034 406 1040 437 q 1024 360 1027 375 q 1020 337 1021 345 q 1016 318 1017 322 l 563 318 q 558 256 558 281 q 565 188 558 231 q 604 109 572 145 q 687 72 635 72 q 790 98 738 72 q 873 165 842 123 l 956 127 q 827 20 906 60 q 666 -20 747 -20 q 530 28 584 -20 q 360 -20 453 -20 q 210 33 268 -20 q 138 170 152 86 m 582 410 l 936 410 q 941 485 941 439 q 919 579 941 532 q 810 650 886 650 q 711 613 760 650 q 582 410 621 546 z "},"Ŕ":{"ha":747,"x_min":82,"x_max":859,"o":"m 301 525 l 441 525 q 741 710 701 525 q 745 751 745 727 q 519 892 745 892 l 379 892 l 301 525 m 626 0 l 426 428 l 280 428 l 189 0 l 82 0 l 292 987 l 538 987 q 771 929 683 987 q 859 766 859 871 q 747 534 859 634 q 548 439 665 460 l 749 0 l 626 0 m 522 1079 q 498 1073 512 1073 q 477 1085 484 1073 q 470 1109 470 1097 q 487 1137 470 1121 l 713 1306 q 744 1318 731 1318 q 784 1298 774 1318 q 790 1281 790 1289 q 789 1269 790 1274 q 788 1263 789 1265 q 781 1249 786 1259 q 760 1227 777 1239 l 522 1079 z "},"ŕ":{"ha":465,"x_min":87,"x_max":657,"o":"m 654 723 l 581 634 q 509 654 551 654 q 357 573 420 654 q 269 366 295 491 l 191 0 l 87 0 l 242 728 l 345 728 l 319 605 q 415 706 351 665 q 546 747 479 747 q 654 723 612 747 m 389 844 q 365 838 380 838 q 344 849 351 838 q 338 874 338 861 q 354 901 338 888 l 581 1071 q 612 1083 599 1083 q 651 1063 641 1083 q 657 1046 657 1053 q 627 992 657 1014 l 389 844 z "},"Ŗ":{"ha":747,"x_min":82,"x_max":859,"o":"m 301 525 l 441 525 q 741 710 701 525 q 745 751 745 727 q 519 892 745 892 l 379 892 l 301 525 m 626 0 l 426 428 l 280 428 l 189 0 l 82 0 l 292 987 l 538 987 q 771 929 683 987 q 859 766 859 871 q 747 534 859 634 q 548 439 665 460 l 749 0 l 626 0 m 348 -18 q 362 -18 348 -18 q 392 -34 376 -18 q 408 -77 408 -50 q 391 -142 408 -104 q 357 -206 374 -180 q 326 -249 339 -232 q 296 -284 313 -265 q 278 -304 279 -303 l 244 -283 q 319 -163 309 -212 q 276 -147 292 -163 q 260 -106 260 -131 q 263 -82 259 -103 q 294 -39 268 -60 q 348 -18 319 -18 z "},"ŗ":{"ha":465,"x_min":41,"x_max":667,"o":"m 667 723 l 593 634 q 522 654 564 654 q 370 573 433 654 q 281 366 308 491 l 203 0 l 100 0 l 255 728 l 358 728 l 332 605 q 428 706 364 665 q 559 747 492 747 q 667 723 625 747 m 144 -18 q 158 -18 144 -18 q 189 -34 172 -18 q 205 -77 205 -50 q 189 -142 205 -104 q 154 -206 172 -180 q 123 -249 136 -232 q 93 -284 111 -265 q 75 -304 76 -303 l 41 -283 q 116 -163 106 -212 q 73 -147 90 -163 q 57 -106 57 -131 q 61 -82 56 -103 q 91 -39 65 -60 q 144 -18 117 -18 z "},"Ř":{"ha":747,"x_min":82,"x_max":859,"o":"m 301 525 l 441 525 q 741 710 701 525 q 745 751 745 727 q 519 892 745 892 l 379 892 l 301 525 m 626 0 l 426 428 l 280 428 l 189 0 l 82 0 l 292 987 l 538 987 q 771 929 683 987 q 859 766 859 871 q 747 534 859 634 q 548 439 665 460 l 749 0 l 626 0 m 859 1260 l 620 1027 l 531 1027 l 393 1259 l 519 1259 l 595 1116 l 732 1260 l 859 1260 z "},"ř":{"ha":465,"x_min":94,"x_max":707,"o":"m 661 723 l 587 634 q 516 654 558 654 q 364 573 427 654 q 275 366 302 491 l 197 0 l 94 0 l 249 728 l 352 728 l 326 605 q 422 706 358 665 q 552 747 486 747 q 661 723 618 747 m 707 1027 l 467 793 l 378 793 l 239 1025 l 366 1025 l 443 882 l 579 1027 l 707 1027 z "},"Ś":{"ha":732,"x_min":78,"x_max":846,"o":"m 78 222 l 197 243 q 251 130 199 184 q 391 77 304 77 q 556 125 477 77 q 654 284 654 186 q 616 380 654 339 q 539 441 576 422 q 484 469 503 460 q 417 499 462 480 q 354 528 373 518 q 310 557 335 538 q 270 595 285 575 q 234 708 234 642 q 241 770 234 739 q 361 948 264 882 q 578 1014 458 1014 q 768 956 698 1014 q 846 810 838 899 l 739 793 q 685 880 734 842 q 560 918 637 918 q 423 876 483 918 q 347 734 347 822 q 416 625 347 667 q 493 587 446 608 q 570 553 541 567 q 628 522 599 540 q 690 474 657 504 q 761 312 761 412 q 676 99 761 187 q 361 -20 562 -20 q 106 127 173 -20 q 78 222 86 170 m 574 1079 q 551 1073 565 1073 q 530 1085 536 1073 q 523 1109 523 1097 q 540 1137 523 1121 l 766 1306 q 797 1318 784 1318 q 837 1298 827 1318 q 843 1281 843 1289 q 842 1269 843 1274 q 841 1263 842 1265 q 834 1249 839 1259 q 813 1227 829 1239 l 574 1079 z "},"ś":{"ha":625,"x_min":96,"x_max":743,"o":"m 468 286 q 458 292 468 286 q 430 307 448 298 q 378 327 412 315 q 316 351 345 338 q 256 386 288 364 q 194 506 194 430 q 255 656 194 591 q 476 745 338 743 q 652 670 597 745 q 684 591 680 632 l 581 570 q 458 653 562 653 q 359 627 404 653 q 300 528 300 592 q 377 438 300 471 q 395 431 382 436 q 412 425 408 426 q 440 414 416 423 q 476 400 465 404 q 509 384 486 395 q 543 365 532 373 q 571 342 554 357 q 595 313 587 328 q 616 247 616 278 q 553 83 616 153 q 446 7 508 34 q 317 -20 383 -20 q 160 26 214 -20 q 96 147 106 71 l 200 166 q 241 96 211 121 q 337 72 271 72 q 448 104 402 72 q 507 195 494 137 q 509 221 509 206 q 498 255 509 237 q 468 286 488 273 m 475 844 q 451 838 465 838 q 430 849 437 838 q 424 874 424 861 q 440 901 424 888 l 667 1071 q 697 1083 685 1083 q 737 1063 727 1083 q 743 1046 743 1053 q 713 992 743 1014 l 475 844 z "},"Ŝ":{"ha":732,"x_min":78,"x_max":846,"o":"m 78 222 l 197 243 q 251 130 199 184 q 391 77 304 77 q 556 125 477 77 q 654 284 654 186 q 616 380 654 339 q 539 441 576 422 q 484 469 503 460 q 417 499 462 480 q 354 528 373 518 q 310 557 335 538 q 270 595 285 575 q 234 708 234 642 q 241 770 234 739 q 361 948 264 882 q 578 1014 458 1014 q 768 956 698 1014 q 846 810 838 899 l 739 793 q 685 880 734 842 q 560 918 637 918 q 423 876 483 918 q 347 734 347 822 q 416 625 347 667 q 493 587 446 608 q 570 553 541 567 q 628 522 599 540 q 690 474 657 504 q 761 312 761 412 q 676 99 761 187 q 361 -20 562 -20 q 106 127 173 -20 q 78 222 86 170 m 811 1027 l 684 1027 l 608 1171 l 471 1028 l 345 1028 l 582 1260 l 671 1260 l 811 1027 z "},"ŝ":{"ha":625,"x_min":96,"x_max":740,"o":"m 468 286 q 458 292 468 286 q 430 307 448 298 q 378 327 412 315 q 316 351 345 338 q 256 386 288 364 q 194 506 194 430 q 255 656 194 591 q 476 745 338 743 q 652 670 597 745 q 684 591 680 632 l 581 570 q 458 653 562 653 q 359 627 404 653 q 300 528 300 592 q 377 438 300 471 q 395 431 382 436 q 412 425 408 426 q 440 414 416 423 q 476 400 465 404 q 509 384 486 395 q 543 365 532 373 q 571 342 554 357 q 595 313 587 328 q 616 247 616 278 q 553 83 616 153 q 446 7 508 34 q 317 -20 383 -20 q 160 26 214 -20 q 96 147 106 71 l 200 166 q 241 96 211 121 q 337 72 271 72 q 448 104 402 72 q 507 195 494 137 q 509 221 509 206 q 498 255 509 237 q 468 286 488 273 m 740 794 l 612 794 l 537 939 l 399 795 l 273 795 l 511 1027 l 600 1027 l 740 794 z "},"Ş":{"ha":732,"x_min":78,"x_max":846,"o":"m 78 222 l 197 243 q 252 130 199 183 q 391 77 304 77 q 556 126 477 77 q 654 282 654 187 q 606 389 654 345 q 524 450 568 427 l 479 472 q 437 490 472 475 l 401 505 q 331 542 362 522 q 290 574 300 563 q 243 644 252 611 q 234 705 235 676 l 234 709 q 241 770 234 739 q 361 948 264 882 q 578 1014 458 1014 q 767 956 698 1014 q 846 810 837 899 l 739 793 q 686 880 734 842 q 561 918 637 918 q 423 876 484 918 q 347 735 347 822 l 347 725 q 371 662 351 682 q 475 595 410 623 q 510 580 491 587 q 690 476 641 525 q 747 394 735 431 q 760 322 758 357 l 760 309 q 676 99 760 186 q 361 -20 562 -20 q 164 46 233 -20 q 78 222 94 113 m 241 -184 q 286 -150 273 -166 q 298 -117 298 -134 q 275 -58 298 -100 l 371 -20 q 406 -111 404 -61 q 349 -213 406 -173 q 274 -261 310 -241 q 230 -284 237 -280 l 219 -199 l 241 -184 z "},"ş":{"ha":625,"x_min":91,"x_max":679,"o":"m 504 218 q 382 323 504 285 q 217 420 256 368 q 189 507 189 458 q 194 549 189 524 q 293 693 214 642 q 471 745 372 744 q 631 689 581 745 q 666 639 656 660 q 679 591 675 618 l 576 570 q 454 653 556 653 q 354 627 399 653 q 296 527 296 593 q 312 479 296 495 q 369 439 344 447 q 400 428 395 431 q 415 421 406 425 q 432 415 425 418 l 463 403 q 524 374 509 385 q 552 355 538 364 q 575 334 565 347 l 593 307 q 611 239 608 283 l 611 235 q 606 195 611 223 q 500 41 586 102 q 311 -20 414 -20 q 153 27 207 -20 q 91 147 100 73 l 195 166 q 236 96 205 121 q 331 72 267 72 q 443 104 396 72 q 501 195 489 136 q 504 218 504 205 m 183 -199 q 195 -191 188 -197 q 206 -184 202 -186 q 234 -164 210 -182 q 260 -137 258 -146 q 262 -115 262 -127 q 239 -58 262 -103 l 335 -20 q 370 -111 368 -61 q 313 -213 370 -172 q 193 -284 264 -249 l 183 -199 z "},"Š":{"ha":732,"x_min":78,"x_max":859,"o":"m 78 222 l 197 243 q 251 130 199 184 q 391 77 304 77 q 556 125 477 77 q 654 284 654 186 q 616 380 654 339 q 539 441 576 422 q 484 469 503 460 q 417 499 462 480 q 354 528 373 518 q 310 557 335 538 q 270 595 285 575 q 234 708 234 642 q 241 770 234 739 q 361 948 264 882 q 578 1014 458 1014 q 768 956 698 1014 q 846 810 838 899 l 739 793 q 685 880 734 842 q 560 918 637 918 q 423 876 483 918 q 347 734 347 822 q 416 625 347 667 q 493 587 446 608 q 570 553 541 567 q 628 522 599 540 q 690 474 657 504 q 761 312 761 412 q 676 99 761 187 q 361 -20 562 -20 q 106 127 173 -20 q 78 222 86 170 m 859 1260 l 620 1027 l 531 1027 l 393 1259 l 519 1259 l 595 1116 l 732 1260 l 859 1260 z "},"š":{"ha":625,"x_min":96,"x_max":764,"o":"m 468 286 q 458 292 468 286 q 430 307 448 298 q 378 327 412 315 q 316 351 345 338 q 256 386 288 364 q 194 506 194 430 q 255 656 194 591 q 476 745 338 743 q 652 670 597 745 q 684 591 680 632 l 581 570 q 458 653 562 653 q 359 627 404 653 q 300 528 300 592 q 377 438 300 471 q 395 431 382 436 q 412 425 408 426 q 440 414 416 423 q 476 400 465 404 q 509 384 486 395 q 543 365 532 373 q 571 342 554 357 q 595 313 587 328 q 616 247 616 278 q 553 83 616 153 q 446 7 508 34 q 317 -20 383 -20 q 160 26 214 -20 q 96 147 106 71 l 200 166 q 241 96 211 121 q 337 72 271 72 q 448 104 402 72 q 507 195 494 137 q 509 221 509 206 q 498 255 509 237 q 468 286 488 273 m 764 1027 l 524 793 l 435 793 l 296 1025 l 422 1025 l 500 882 l 636 1027 l 764 1027 z "},"Ţ":{"ha":843,"x_min":250,"x_max":1010,"o":"m 269 987 l 1010 987 l 990 892 l 680 892 l 490 0 l 383 0 l 573 892 l 250 892 l 269 987 m 504 -54 l 502 -66 q 381 -186 488 -129 l 329 -214 l 317 -130 q 397 -58 391 -83 q 398 -46 397 -54 q 374 12 399 -38 l 470 50 q 505 -40 504 8 l 504 -54 z "},"ţ":{"ha":472,"x_min":161,"x_max":556,"o":"m 300 636 l 204 636 l 224 728 l 320 728 l 356 897 l 458 897 l 422 728 l 556 728 l 536 636 l 403 636 l 299 146 q 296 121 296 131 q 361 66 296 66 l 409 66 l 391 -20 l 343 -20 q 225 5 261 -20 q 189 85 189 30 q 196 143 189 109 l 300 636 m 348 -54 l 346 -66 q 225 -186 332 -129 l 173 -214 l 161 -130 q 241 -58 235 -83 q 242 -46 241 -54 q 218 12 243 -38 l 314 50 q 349 -40 348 8 l 348 -54 z "},"Ť":{"ha":843,"x_min":250,"x_max":1010,"o":"m 269 987 l 1010 987 l 990 892 l 680 892 l 490 0 l 383 0 l 573 892 l 250 892 l 269 987 m 941 1260 l 701 1027 l 612 1027 l 474 1259 l 600 1259 l 677 1116 l 813 1260 l 941 1260 z "},"ť":{"ha":510,"x_min":189,"x_max":686,"o":"m 300 636 l 204 636 l 224 728 l 320 728 l 356 897 l 458 897 l 422 728 l 556 728 l 536 636 l 403 636 l 299 146 q 296 121 296 131 q 361 66 296 66 l 409 66 l 391 -20 l 343 -20 q 225 5 261 -20 q 189 85 189 30 q 196 143 189 109 l 300 636 m 686 985 l 684 968 q 654 888 673 919 q 603 813 632 852 l 589 798 l 566 814 q 621 911 610 867 q 591 924 602 911 q 581 948 581 937 q 603 1007 581 987 q 644 1027 625 1027 q 675 1014 664 1027 q 686 985 686 1002 z "},"Ŧ":{"ha":843,"x_min":245,"x_max":1010,"o":"m 269 987 l 1010 987 l 990 892 l 680 892 l 593 483 l 827 483 l 806 387 l 572 387 l 490 0 l 383 0 l 465 387 l 245 387 l 266 483 l 486 483 l 573 892 l 250 892 l 269 987 z "},"ŧ":{"ha":472,"x_min":117,"x_max":556,"o":"m 300 636 l 204 636 l 224 728 l 320 728 l 356 897 l 458 897 l 422 728 l 556 728 l 536 636 l 403 636 l 370 483 l 539 483 l 519 387 l 350 387 l 299 146 q 296 121 296 130 q 361 66 296 66 l 409 66 l 391 -20 l 343 -20 q 210 18 243 -20 q 189 78 189 43 q 196 143 189 113 l 248 387 l 117 387 l 138 483 l 268 483 l 300 636 z "},"Ũ":{"ha":858,"x_min":157,"x_max":1000,"o":"m 890 987 l 1000 987 l 883 437 q 718 101 837 222 q 432 -20 599 -20 q 228 59 298 -20 q 157 281 157 137 q 175 437 157 353 l 292 987 l 401 987 l 285 437 q 269 305 269 366 q 319 134 269 191 q 452 77 368 77 q 642 162 555 77 q 774 437 734 252 l 890 987 m 474 1198 q 513 1225 491 1209 q 612 1263 564 1263 q 677 1226 646 1263 q 707 1191 697 1202 q 763 1160 734 1160 q 865 1196 810 1160 q 913 1227 870 1200 l 892 1128 q 841 1095 858 1107 q 762 1061 795 1061 q 675 1097 709 1061 q 654 1122 674 1099 q 591 1164 617 1164 q 497 1130 543 1164 q 453 1099 484 1120 l 474 1198 z "},"ũ":{"ha":675,"x_min":140,"x_max":797,"o":"m 246 241 q 375 73 246 73 q 527 155 465 73 q 616 361 589 237 l 694 728 l 797 728 l 642 0 l 539 0 l 565 123 q 469 21 533 62 q 322 -20 405 -20 q 190 37 240 -20 q 140 208 140 94 q 158 361 140 274 l 236 728 l 338 728 l 260 361 q 246 241 246 292 m 345 928 q 383 955 361 939 q 482 993 435 993 q 547 956 517 993 q 560 941 551 951 q 578 921 568 932 q 633 890 603 890 q 735 926 680 890 q 783 957 740 930 l 762 859 q 711 825 728 837 q 631 791 665 791 q 545 827 578 791 q 524 852 544 829 q 461 895 487 895 q 368 860 415 895 q 323 829 355 850 l 345 928 z "},"Ū":{"ha":858,"x_min":157,"x_max":1000,"o":"m 890 987 l 1000 987 l 883 437 q 718 101 837 222 q 432 -20 599 -20 q 228 59 298 -20 q 157 281 157 137 q 175 437 157 353 l 292 987 l 401 987 l 285 437 q 269 305 269 366 q 319 134 269 191 q 452 77 368 77 q 642 162 555 77 q 774 437 734 252 l 890 987 m 456 1173 l 915 1173 l 899 1101 l 440 1101 l 456 1173 z "},"ū":{"ha":675,"x_min":140,"x_max":797,"o":"m 246 241 q 375 73 246 73 q 527 155 465 73 q 616 361 589 237 l 694 728 l 797 728 l 642 0 l 539 0 l 565 123 q 469 21 533 62 q 322 -20 405 -20 q 190 37 240 -20 q 140 208 140 94 q 158 361 140 274 l 236 728 l 338 728 l 260 361 q 246 241 246 292 m 323 895 l 783 895 l 768 823 l 309 823 l 323 895 z "},"Ŭ":{"ha":858,"x_min":157,"x_max":1000,"o":"m 890 987 l 1000 987 l 883 437 q 718 101 837 222 q 432 -20 599 -20 q 228 59 298 -20 q 157 281 157 137 q 175 437 157 353 l 292 987 l 401 987 l 285 437 q 269 305 269 366 q 319 134 269 191 q 452 77 368 77 q 642 162 555 77 q 774 437 734 252 l 890 987 m 501 1215 l 505 1242 q 505 1246 505 1245 l 560 1246 q 623 1135 577 1171 q 685 1119 646 1118 q 751 1135 724 1120 q 862 1246 798 1164 l 916 1246 q 916 1243 916 1245 q 915 1240 916 1240 q 844 1118 904 1192 q 761 1053 812 1080 q 664 1027 709 1027 q 579 1053 619 1027 q 520 1127 538 1080 q 501 1215 501 1175 z "},"ŭ":{"ha":675,"x_min":140,"x_max":797,"o":"m 246 241 q 375 73 246 73 q 527 155 465 73 q 616 361 589 237 l 694 728 l 797 728 l 642 0 l 539 0 l 565 123 q 469 21 533 62 q 322 -20 405 -20 q 190 37 240 -20 q 140 208 140 94 q 158 361 140 274 l 236 728 l 338 728 l 260 361 q 246 241 246 292 m 357 979 l 361 1008 q 361 1011 361 1010 l 416 1011 q 479 900 433 935 q 543 882 502 883 q 617 907 581 884 q 718 1011 654 929 l 772 1011 q 772 1008 772 1010 q 771 1004 772 1005 q 701 883 760 957 q 617 818 669 844 q 520 791 566 791 q 435 818 475 791 q 376 892 395 844 q 357 979 357 940 z "},"Ů":{"ha":858,"x_min":157,"x_max":1000,"o":"m 890 987 l 1000 987 l 883 437 q 718 101 837 222 q 432 -20 599 -20 q 228 59 298 -20 q 157 281 157 137 q 175 437 157 353 l 292 987 l 401 987 l 285 437 q 269 305 269 366 q 319 134 269 191 q 452 77 368 77 q 642 162 555 77 q 774 437 734 252 l 890 987 m 779 1185 q 760 1236 779 1216 q 706 1257 741 1257 q 635 1226 671 1257 q 598 1145 598 1196 q 617 1095 598 1115 q 671 1074 637 1074 q 737 1101 705 1074 q 779 1185 779 1137 m 528 1163 q 600 1275 543 1230 q 718 1320 656 1320 q 815 1285 779 1320 q 852 1196 852 1249 q 777 1051 852 1111 q 658 1005 720 1005 q 561 1040 597 1005 q 525 1130 525 1076 l 525 1135 q 528 1163 525 1147 z "},"ů":{"ha":675,"x_min":140,"x_max":797,"o":"m 246 241 q 375 73 246 73 q 527 155 465 73 q 616 361 589 237 l 694 728 l 797 728 l 642 0 l 539 0 l 565 123 q 469 21 533 62 q 322 -20 405 -20 q 190 37 240 -20 q 140 208 140 94 q 158 361 140 274 l 236 728 l 338 728 l 260 361 q 246 241 246 292 m 661 930 q 661 951 661 930 q 642 991 661 971 q 588 1010 623 1010 q 517 980 553 1010 q 481 909 481 949 q 500 848 481 869 q 554 828 519 828 q 620 854 589 828 q 661 930 661 890 m 408 888 q 481 1028 408 970 q 600 1074 538 1074 q 698 1039 662 1074 q 734 949 734 1004 q 730 917 734 936 q 659 805 716 850 q 541 759 602 759 q 444 794 479 759 q 408 884 408 829 l 408 888 z "},"Ű":{"ha":858,"x_min":157,"x_max":1041,"o":"m 890 987 l 1000 987 l 883 437 q 718 101 837 222 q 432 -20 599 -20 q 228 59 298 -20 q 157 281 157 137 q 175 437 157 353 l 292 987 l 401 987 l 285 437 q 269 305 269 366 q 319 134 269 191 q 452 77 368 77 q 642 162 555 77 q 774 437 734 252 l 890 987 m 768 1034 q 758 1056 758 1043 q 768 1082 758 1069 l 954 1295 q 996 1317 975 1317 q 1028 1305 1016 1317 q 1041 1283 1041 1294 q 1039 1261 1041 1272 q 1022 1235 1037 1251 l 819 1038 q 793 1027 807 1027 q 768 1034 779 1027 m 558 1027 q 525 1059 525 1027 q 535 1082 525 1069 l 720 1295 q 762 1317 742 1317 q 795 1305 783 1317 q 808 1283 808 1294 q 806 1261 808 1272 q 789 1235 804 1251 l 585 1038 q 558 1027 574 1027 z "},"ű":{"ha":675,"x_min":168,"x_max":915,"o":"m 275 241 q 404 73 275 73 q 555 155 493 73 q 644 361 618 237 l 722 728 l 825 728 l 671 0 l 568 0 l 593 123 q 497 21 562 62 q 351 -20 433 -20 q 218 37 269 -20 q 168 208 168 94 q 186 361 168 274 l 264 728 l 367 728 l 289 361 q 275 241 275 292 m 643 800 q 633 822 633 808 q 642 847 633 835 l 827 1060 q 870 1082 849 1082 q 903 1071 890 1082 q 915 1047 915 1060 q 913 1025 915 1035 q 897 1000 911 1016 l 693 804 q 668 792 682 792 q 643 800 654 792 m 410 800 q 399 822 399 808 q 409 847 399 835 l 594 1060 q 636 1082 616 1082 q 669 1071 657 1082 q 682 1047 682 1060 q 680 1025 682 1035 q 663 1000 678 1016 l 460 804 q 434 792 448 792 q 410 800 420 792 z "},"Ų":{"ha":858,"x_min":157,"x_max":1000,"o":"m 890 987 l 1000 987 l 883 437 q 718 101 837 222 q 432 -20 599 -20 q 228 59 298 -20 q 157 281 157 137 q 175 437 157 353 l 292 987 l 401 987 l 285 437 q 269 305 269 366 q 319 134 269 191 q 452 77 368 77 q 642 162 555 77 q 774 437 734 252 l 890 987 m 568 12 q 516 -58 516 -40 q 532 -98 511 -77 l 548 -114 q 565 -129 553 -117 l 517 -214 q 512 -210 515 -212 q 486 -192 502 -203 q 436 -151 460 -175 q 409 -112 412 -126 q 405 -88 405 -98 q 421 -29 405 -66 q 489 50 437 9 l 568 12 z "},"ų":{"ha":675,"x_min":127,"x_max":785,"o":"m 234 241 q 363 73 234 73 q 515 155 452 73 q 604 361 577 237 l 682 728 l 785 728 l 630 0 l 527 0 l 553 123 q 457 21 521 62 q 310 -20 393 -20 q 178 37 228 -20 q 127 208 127 94 q 146 361 127 274 l 224 728 l 326 728 l 248 361 q 234 241 234 292 m 629 12 q 576 -58 576 -38 q 593 -98 572 -77 q 597 -103 595 -100 q 602 -109 600 -106 q 610 -115 607 -113 q 625 -129 613 -117 l 578 -214 q 572 -210 576 -212 q 545 -191 562 -203 q 496 -151 521 -175 q 469 -112 472 -126 q 465 -88 465 -98 q 481 -29 465 -66 q 549 50 497 9 l 629 12 z "},"Ŵ":{"ha":1069,"x_min":211,"x_max":1238,"o":"m 267 987 l 375 987 l 317 123 l 681 962 l 813 962 l 821 123 l 1129 987 l 1238 987 l 872 0 l 724 0 l 720 833 l 363 0 l 211 0 l 267 987 m 989 1027 l 861 1027 l 786 1171 l 648 1028 l 522 1028 l 760 1260 l 848 1260 l 989 1027 z "},"ŵ":{"ha":932,"x_min":201,"x_max":1056,"o":"m 597 585 l 319 0 l 240 0 l 201 728 l 304 728 l 317 170 l 576 722 q 678 722 576 722 l 703 170 l 952 728 l 1056 728 l 707 0 l 624 0 l 597 585 m 876 794 l 748 794 l 673 939 l 535 795 l 409 795 l 646 1027 l 735 1027 l 876 794 z "},"Ŷ":{"ha":800,"x_min":261,"x_max":972,"o":"m 261 987 l 375 987 l 530 581 l 858 987 l 972 987 l 568 507 l 460 0 l 353 0 l 460 507 l 261 987 m 852 1027 l 725 1027 l 650 1171 l 512 1028 l 386 1028 l 623 1260 l 712 1260 l 852 1027 z "},"ŷ":{"ha":675,"x_min":67,"x_max":797,"o":"m 246 241 q 375 73 246 73 q 527 155 465 73 q 616 361 589 237 l 694 728 l 797 728 l 640 -12 q 588 -136 625 -79 q 500 -228 550 -192 q 288 -304 396 -304 q 67 -186 144 -304 l 151 -129 q 307 -212 203 -212 q 442 -167 375 -212 q 534 -22 514 -117 q 565 123 550 56 q 469 21 533 62 q 322 -20 405 -20 q 190 37 240 -20 q 140 208 140 94 q 158 361 140 274 l 236 728 l 338 728 l 260 361 q 246 241 246 292 m 763 791 l 635 791 l 560 935 l 422 792 l 296 792 l 534 1024 l 623 1024 l 763 791 z "},"Ÿ":{"ha":800,"x_min":261,"x_max":972,"o":"m 548 1142 q 545 1129 548 1142 q 518 1096 541 1115 q 471 1077 495 1077 q 433 1092 448 1077 q 418 1134 418 1106 q 445 1183 418 1162 q 495 1205 471 1205 q 533 1191 519 1205 q 548 1142 555 1170 m 791 1078 q 780 1078 791 1078 q 753 1093 768 1078 q 738 1123 738 1108 q 764 1185 738 1163 q 815 1206 791 1206 q 868 1156 865 1206 q 842 1100 868 1122 q 791 1078 815 1078 m 261 987 l 375 987 l 530 581 l 858 987 l 972 987 l 568 507 l 460 0 l 353 0 l 460 507 l 261 987 z "},"Ź":{"ha":899,"x_min":68,"x_max":1046,"o":"m 297 987 l 1046 987 l 271 96 l 865 96 l 844 0 l 68 0 l 850 892 l 277 892 l 297 987 m 648 1079 q 625 1073 639 1073 q 604 1085 610 1073 q 597 1109 597 1097 q 614 1137 597 1121 l 840 1306 q 871 1318 858 1318 q 911 1298 901 1318 q 917 1281 917 1289 q 916 1269 917 1274 q 914 1263 916 1265 q 908 1249 913 1259 q 887 1227 903 1239 l 648 1079 z "},"ź":{"ha":652,"x_min":61,"x_max":783,"o":"m 252 96 l 615 96 l 595 0 l 61 0 l 578 632 l 223 632 l 243 728 l 770 728 l 252 96 m 514 844 q 490 838 505 838 q 470 849 476 838 q 463 874 463 861 q 479 901 463 888 l 707 1071 q 736 1083 724 1083 q 777 1063 766 1083 q 783 1046 783 1053 q 753 992 783 1014 l 514 844 z "},"Ż":{"ha":899,"x_min":68,"x_max":1046,"o":"m 297 987 l 1046 987 l 271 96 l 865 96 l 844 0 l 68 0 l 850 892 l 277 892 l 297 987 m 770 1142 q 767 1129 770 1142 q 741 1096 764 1115 q 694 1077 718 1077 q 655 1092 670 1077 q 641 1134 641 1106 q 667 1183 641 1162 q 718 1205 694 1205 q 755 1191 742 1205 q 770 1142 777 1170 z "},"ż":{"ha":652,"x_min":61,"x_max":770,"o":"m 252 96 l 615 96 l 595 0 l 61 0 l 578 632 l 223 632 l 243 728 l 770 728 l 252 96 m 539 855 q 527 855 539 855 q 500 870 515 855 q 486 912 486 885 q 512 962 486 940 q 563 983 538 983 q 616 932 613 983 q 589 877 616 899 q 539 855 563 855 z "},"Ž":{"ha":899,"x_min":68,"x_max":1046,"o":"m 297 987 l 1046 987 l 271 96 l 865 96 l 844 0 l 68 0 l 850 892 l 277 892 l 297 987 m 978 1260 l 739 1027 l 650 1027 l 511 1259 l 637 1259 l 714 1116 l 850 1260 l 978 1260 z "},"ž":{"ha":652,"x_min":61,"x_max":801,"o":"m 252 96 l 615 96 l 595 0 l 61 0 l 578 632 l 223 632 l 243 728 l 770 728 l 252 96 m 801 1024 l 562 791 l 473 791 l 334 1023 l 460 1023 l 537 880 l 673 1024 l 801 1024 z "},"ſ":{"ha":486,"x_min":179,"x_max":692,"o":"m 603 878 q 543 913 587 913 q 493 895 517 913 q 463 847 469 877 l 282 0 l 179 0 l 353 819 q 451 955 371 901 q 573 1004 524 1004 q 645 990 623 1004 q 692 949 668 977 l 603 878 z "},"ƒ":{"ha":692,"x_min":-4,"x_max":839,"o":"m 466 636 l 99 0 l -4 0 l 363 636 l 269 636 l 321 728 l 415 728 l 468 819 q 617 989 529 920 q 691 1026 659 1022 q 747 1031 722 1031 q 839 987 815 1031 l 814 884 q 772 917 800 901 l 713 930 q 646 904 686 930 q 588 847 606 878 l 519 728 l 652 728 l 599 636 l 466 636 z "},"Ǣ":{"ha":1015,"x_min":62,"x_max":1156,"o":"m 740 1165 l 1149 1165 l 1130 1074 l 720 1074 l 740 1165 m 632 438 l 453 438 l 185 0 l 62 0 l 675 989 l 1156 989 l 1134 887 l 835 887 l 760 535 l 1059 535 l 1038 435 l 739 435 l 667 100 l 966 100 l 945 0 l 539 0 l 632 438 m 653 535 l 727 890 l 515 535 l 653 535 z "},"ǣ":{"ha":1037,"x_min":108,"x_max":1036,"o":"m 484 905 l 895 905 l 875 813 l 465 813 l 484 905 m 390 409 q 229 281 273 409 q 211 182 213 235 q 319 73 211 73 q 457 157 402 73 q 495 284 495 218 l 495 288 q 495 291 495 290 q 427 403 495 380 q 390 409 406 409 m 845 743 q 1036 513 1036 743 q 1019 364 1036 448 l 1006 318 l 606 318 q 596 231 596 272 l 596 221 q 703 73 595 73 q 799 122 758 73 q 831 164 806 131 l 914 128 q 766 -5 838 22 q 683 -20 728 -20 q 547 50 591 -20 q 519 111 537 68 q 445 26 468 45 q 299 -20 389 -20 q 119 98 159 -20 q 108 169 108 130 q 115 241 108 209 q 251 448 143 372 q 410 500 326 500 q 524 450 493 500 q 528 441 525 446 q 534 429 531 435 l 541 470 q 549 536 549 511 q 444 648 549 648 q 313 600 372 648 q 309 597 311 597 q 307 595 308 596 l 269 665 q 373 726 336 711 q 463 740 409 740 q 621 633 575 740 q 627 617 625 626 q 766 730 700 706 q 845 743 804 743 m 929 492 l 929 500 q 826 650 929 650 q 659 507 724 650 q 625 410 637 463 l 923 410 q 929 492 929 457 z "},"Ș":{"ha":732,"x_min":78,"x_max":846,"o":"m 78 222 l 197 243 q 251 130 199 184 q 391 77 304 77 q 556 125 477 77 q 654 284 654 186 q 616 380 654 339 q 539 441 576 422 q 484 469 503 460 q 417 499 462 480 q 354 528 373 518 q 310 557 335 538 q 270 595 285 575 q 234 708 234 642 q 241 770 234 739 q 361 948 264 882 q 578 1014 458 1014 q 768 956 698 1014 q 846 810 838 899 l 739 793 q 685 880 734 842 q 560 918 637 918 q 423 876 483 918 q 347 734 347 822 q 416 625 347 667 q 493 587 446 608 q 570 553 541 567 q 628 522 599 540 q 690 474 657 504 q 761 312 761 412 q 676 99 761 187 q 361 -20 562 -20 q 106 127 173 -20 q 78 222 86 170 m 451 -54 l 449 -66 q 328 -186 435 -129 l 276 -214 l 264 -130 q 344 -58 338 -83 q 346 -46 345 -54 q 321 12 347 -38 l 417 50 q 452 -40 451 8 l 451 -54 z "},"ș":{"ha":625,"x_min":96,"x_max":684,"o":"m 468 286 q 458 292 468 286 q 430 307 448 298 q 378 327 412 315 q 316 351 345 338 q 256 386 288 364 q 194 506 194 430 q 255 656 194 591 q 476 745 338 743 q 652 670 597 745 q 684 591 680 632 l 581 570 q 458 653 562 653 q 359 627 404 653 q 300 528 300 592 q 377 438 300 471 q 395 431 382 436 q 412 425 408 426 q 440 414 416 423 q 476 400 465 404 q 509 384 486 395 q 543 365 532 373 q 571 342 554 357 q 595 313 587 328 q 616 247 616 278 q 553 83 616 153 q 446 7 508 34 q 317 -20 383 -20 q 160 26 214 -20 q 96 147 106 71 l 200 166 q 241 96 211 121 q 337 72 271 72 q 448 104 402 72 q 507 195 494 137 q 509 221 509 206 q 498 255 509 237 q 468 286 488 273 m 399 -54 l 397 -66 q 277 -186 384 -129 l 224 -214 l 213 -130 q 292 -58 287 -83 q 294 -46 293 -54 q 270 12 295 -38 l 366 50 q 400 -40 399 8 l 399 -54 z "},"Ț":{"ha":843,"x_min":250,"x_max":1010,"o":"m 269 987 l 1010 987 l 990 892 l 680 892 l 490 0 l 383 0 l 573 892 l 250 892 l 269 987 m 504 -54 l 502 -66 q 381 -186 488 -129 l 329 -214 l 317 -130 q 397 -58 391 -83 q 398 -46 397 -54 q 374 12 399 -38 l 470 50 q 505 -40 504 8 l 504 -54 z "},"ț":{"ha":472,"x_min":161,"x_max":556,"o":"m 300 636 l 204 636 l 224 728 l 320 728 l 356 897 l 458 897 l 422 728 l 556 728 l 536 636 l 403 636 l 299 146 q 296 121 296 131 q 361 66 296 66 l 409 66 l 391 -20 l 343 -20 q 225 5 261 -20 q 189 85 189 30 q 196 143 189 109 l 300 636 m 348 -54 l 346 -66 q 225 -186 332 -129 l 173 -214 l 161 -130 q 241 -58 235 -83 q 242 -46 241 -54 q 218 12 243 -38 l 314 50 q 349 -40 348 8 l 348 -54 z "},"Ȝ":{"ha":635,"x_min":67,"x_max":729,"o":"m 68 -54 q 298 44 139 -40 q 459 155 380 87 q 559 321 526 213 q 566 366 566 345 q 520 467 566 434 q 418 498 479 498 q 377 494 399 498 l 323 486 l 341 572 l 409 583 q 537 654 476 594 q 617 824 617 734 q 586 900 617 868 q 509 931 555 931 q 382 888 439 931 q 292 791 325 846 l 207 819 q 339 954 259 898 q 549 1028 444 1028 q 711 939 666 1028 q 729 868 729 903 q 721 794 729 833 q 677 700 712 754 q 549 566 615 602 q 572 556 555 564 q 602 545 589 549 q 637 507 614 541 q 675 382 675 454 q 673 356 675 368 q 669 340 671 345 q 516 94 590 160 q 300 -55 441 28 q 67 -152 159 -138 l 68 -54 z "},"ȝ":{"ha":635,"x_min":34,"x_max":666,"o":"m 486 271 q 529 253 507 260 q 572 215 551 245 q 604 149 594 184 q 614 96 614 113 q 610 57 614 79 q 524 -81 589 -19 q 34 -302 351 -242 l 64 -189 q 460 -27 353 -153 q 501 39 494 13 q 505 65 505 47 q 495 118 505 84 q 393 199 477 182 q 352 202 372 202 q 314 199 332 202 l 260 190 l 278 275 l 346 287 q 473 358 412 298 q 551 494 534 418 q 555 528 555 513 q 524 604 555 572 q 446 635 493 635 q 319 592 376 635 q 229 496 261 549 l 144 524 q 275 659 196 602 q 487 732 380 732 q 648 642 602 732 q 666 572 666 607 q 657 497 666 538 q 614 404 648 457 q 545 316 581 350 q 486 271 509 283 z "},"ɐ":{"ha":673,"x_min":120,"x_max":713,"o":"m 294 371 q 402 325 334 325 q 529 372 471 325 q 605 523 605 433 q 577 602 605 570 q 469 648 538 648 q 342 601 400 648 q 265 450 265 539 q 294 371 265 404 m 218 208 q 359 73 218 73 q 512 125 448 73 l 550 54 q 330 -20 444 -20 q 158 58 216 -20 q 120 188 120 111 q 130 275 120 228 l 225 720 l 319 720 l 296 614 l 296 612 q 366 688 304 640 q 431 724 392 709 q 507 739 470 739 q 673 669 617 739 q 713 549 713 619 q 705 486 713 522 q 594 305 682 377 q 398 233 505 233 q 284 270 328 233 q 239 340 241 307 l 225 275 q 218 208 218 241 z "},"ɑ":{"ha":673,"x_min":111,"x_max":757,"o":"m 149 60 q 111 190 111 111 q 121 277 111 234 l 156 448 q 156 449 156 449 l 157 450 q 277 665 186 586 q 489 739 384 739 q 652 680 595 739 l 662 728 l 757 728 l 602 0 l 507 0 l 530 106 q 476 43 517 75 q 320 -20 397 -20 q 149 60 212 -20 m 208 209 q 361 72 208 72 q 484 119 426 72 q 556 231 542 165 l 600 444 q 608 523 608 483 q 589 594 608 563 q 478 647 558 647 q 326 598 385 647 q 252 448 274 547 l 216 277 q 208 209 208 240 z "},"ɒ":{"ha":673,"x_min":61,"x_max":708,"o":"m 541 60 q 336 -20 442 -20 q 267 -5 299 -20 q 187 73 214 20 q 178 106 178 93 l 156 0 l 61 0 l 216 728 l 311 728 l 300 680 q 489 739 382 739 q 670 665 596 739 q 708 536 708 614 q 698 450 708 497 q 697 448 697 449 l 661 277 q 541 60 630 138 m 602 448 q 610 525 610 484 q 591 598 610 566 q 466 647 552 647 q 252 444 296 647 l 205 231 q 201 186 201 217 q 234 113 201 155 q 333 72 267 72 q 565 277 522 72 l 602 448 z "},"ɓ":{"ha":708,"x_min":138,"x_max":817,"o":"m 755 496 l 754 476 q 694 220 749 348 q 519 12 628 69 q 391 -20 458 -20 l 347 -20 q 176 60 239 -20 q 138 189 138 112 q 148 277 138 229 l 246 740 q 297 864 260 807 q 478 1012 363 968 q 589 1032 531 1032 q 695 1010 648 1032 q 808 879 779 970 q 817 827 817 846 q 817 802 817 807 l 720 802 l 720 810 q 676 902 720 864 q 565 940 632 940 q 434 890 498 940 q 351 750 370 841 l 320 603 q 552 747 410 747 q 713 667 663 747 q 755 496 755 599 m 635 366 q 647 478 647 421 q 627 578 647 534 q 513 655 591 655 q 363 576 434 655 q 264 364 292 497 q 252 251 252 307 q 273 151 252 195 q 389 72 310 72 q 537 151 468 72 q 635 366 606 231 z "},"ɔ":{"ha":625,"x_min":96,"x_max":699,"o":"m 274 549 l 195 593 q 312 701 245 659 q 446 742 378 742 q 680 581 622 742 q 699 477 697 534 l 699 465 q 608 171 699 308 q 468 33 551 85 q 296 -20 385 -20 q 163 28 215 -20 q 96 127 114 76 l 189 179 q 262 84 208 113 q 315 72 286 72 q 480 152 403 72 q 585 364 557 232 q 595 464 595 410 q 567 568 595 517 q 437 650 524 650 q 341 616 389 650 q 274 549 293 582 z "},"ɕ":{"ha":625,"x_min":-61,"x_max":737,"o":"m 157 133 q 134 252 134 195 q 184 477 134 368 q 328 665 232 586 q 539 742 422 742 q 666 700 618 742 q 737 593 715 659 l 639 549 q 600 616 633 582 q 519 650 566 650 q 354 569 433 650 q 250 364 276 488 q 239 270 239 314 q 249 191 239 225 q 351 248 312 229 q 430 271 391 267 q 484 275 469 275 q 525 260 498 275 q 572 162 572 233 q 565 107 572 134 q 545 67 557 81 q 433 -12 492 10 q 376 -20 421 -18 l 369 -20 q 186 75 258 -20 q -26 -113 110 16 l -61 -47 q 157 133 87 84 m 275 134 q 395 72 318 72 q 453 84 423 72 q 481 133 479 123 l 481 134 q 482 146 482 142 q 460 179 482 170 q 418 188 439 188 l 375 180 q 275 134 325 163 z "},"ɖ":{"ha":887,"x_min":149,"x_max":879,"o":"m 269 366 q 256 250 256 306 q 275 151 256 193 q 389 72 310 72 q 539 151 468 72 q 638 364 610 230 q 650 477 650 422 q 629 577 650 533 q 513 655 592 655 q 366 578 434 655 q 269 366 298 501 m 149 231 l 150 251 q 210 509 155 383 q 385 716 276 659 q 500 747 445 747 q 637 701 601 747 q 685 601 671 659 l 776 1027 l 879 1027 l 636 -115 q 633 -146 633 -130 q 688 -199 633 -199 l 705 -197 l 722 -191 l 736 -183 l 749 -175 l 761 -165 l 819 -235 q 778 -265 786 -260 q 744 -280 770 -271 q 694 -290 718 -290 q 564 -228 619 -290 q 532 -137 532 -193 q 537 -94 532 -115 l 584 125 q 430 -8 515 19 q 346 -20 395 -20 q 256 1 297 -20 q 158 146 182 39 q 149 231 149 186 z "},"ɗ":{"ha":879,"x_min":149,"x_max":1075,"o":"m 269 366 q 256 250 256 306 q 275 151 256 193 q 389 72 310 72 q 539 151 468 72 q 638 364 610 230 q 650 477 650 422 q 629 577 650 533 q 513 655 592 655 q 366 578 434 655 q 269 366 298 501 m 149 231 l 150 251 q 210 509 155 383 q 385 716 276 659 q 500 747 445 747 q 637 701 601 747 q 685 601 671 659 l 734 831 q 817 964 751 913 q 969 1027 897 1027 q 1051 998 1018 1027 q 1075 971 1055 994 l 988 902 l 980 911 l 970 920 l 960 928 l 945 933 l 928 935 q 842 852 859 935 l 661 0 l 557 0 l 584 125 q 430 -8 515 19 q 346 -20 395 -20 q 256 1 297 -20 q 158 146 182 39 q 149 231 149 186 z "},"ɘ":{"ha":687,"x_min":113,"x_max":719,"o":"m 606 410 q 611 468 611 444 q 564 613 611 561 q 481 650 532 650 q 342 579 405 650 q 252 410 280 509 l 606 410 m 587 318 l 134 318 q 138 333 136 322 q 141 352 140 345 q 146 371 143 360 q 149 383 149 381 q 269 629 178 525 q 375 711 314 680 q 511 742 435 742 q 642 692 587 742 q 719 486 719 623 q 700 343 719 429 q 631 171 682 258 q 503 33 580 85 q 343 -20 427 -20 q 197 20 259 -20 q 113 127 134 59 l 212 165 q 266 98 224 125 q 358 72 307 72 q 457 109 410 72 q 587 318 545 176 z "},"ə":{"ha":687,"x_min":128,"x_max":717,"o":"m 586 313 l 232 313 q 227 238 227 284 q 250 144 227 193 q 358 73 282 73 q 456 109 408 73 q 586 313 546 176 m 129 208 q 128 262 128 217 q 153 404 128 307 l 606 404 q 610 464 610 435 q 603 535 610 492 q 565 615 595 579 q 483 650 534 650 q 379 624 433 650 q 295 557 326 598 l 212 595 q 341 702 262 663 q 505 742 420 742 q 643 690 589 742 q 717 480 717 619 q 698 333 717 420 q 628 163 679 246 q 502 30 576 79 q 350 -20 427 -20 q 129 208 144 -20 z "},"ɚ":{"ha":777,"x_min":128,"x_max":850,"o":"m 568 610 q 487 650 541 650 q 378 624 433 650 l 340 702 q 505 742 420 742 q 669 661 607 742 l 806 728 l 850 429 l 766 392 l 734 586 l 707 573 q 718 478 718 532 q 698 335 718 424 q 628 163 679 246 q 502 30 576 79 q 350 -20 427 -20 q 129 208 144 -20 q 128 252 128 217 q 134 319 128 288 q 153 404 146 378 l 568 610 m 605 524 l 238 346 l 232 313 q 227 238 227 284 q 250 144 227 193 q 358 73 282 73 q 456 109 408 73 q 539 202 505 145 q 582 296 573 260 q 610 450 610 408 q 605 524 610 492 z "},"ɛ":{"ha":687,"x_min":132,"x_max":684,"o":"m 621 132 q 499 22 577 63 q 354 -20 422 -20 q 180 45 243 -20 q 132 161 132 94 q 138 208 132 182 q 181 329 156 295 q 244 391 205 362 q 296 423 282 420 l 359 452 q 269 505 294 475 q 258 540 258 521 q 264 586 258 559 q 312 655 270 612 q 406 722 354 699 q 518 745 458 745 q 623 709 577 745 q 684 616 668 674 l 609 581 q 572 635 600 612 q 505 658 544 658 l 493 658 q 420 640 449 658 q 356 572 363 606 q 354 551 354 562 q 387 501 354 519 q 468 483 420 483 l 517 483 l 499 398 l 460 398 q 342 364 404 398 q 287 321 311 348 q 245 212 263 295 q 242 184 242 195 q 279 109 242 142 q 373 77 317 77 q 475 99 429 77 q 548 158 521 121 l 621 132 z "},"ɜ":{"ha":687,"x_min":121,"x_max":672,"o":"m 121 132 l 207 158 q 255 99 220 121 q 347 77 290 77 q 461 113 403 77 q 542 287 542 164 q 500 364 542 333 q 396 398 453 398 l 357 398 l 375 483 l 424 483 q 519 503 474 483 q 574 572 564 523 q 575 583 575 579 q 547 635 575 612 q 473 658 518 658 l 462 658 q 386 636 423 658 q 325 581 349 614 l 264 616 q 365 709 304 673 q 486 745 425 745 q 656 653 606 745 q 672 605 672 623 q 633 505 672 543 q 581 475 614 489 q 520 452 549 460 l 571 423 q 610 391 584 421 q 650 304 650 345 q 526 45 650 133 q 325 -20 436 -20 q 196 22 256 -20 q 121 132 136 64 z "},"ɝ":{"ha":732,"x_min":121,"x_max":806,"o":"m 492 745 q 646 669 595 745 l 761 728 l 806 429 l 721 392 l 689 586 l 670 576 q 633 505 660 531 q 581 475 614 489 q 520 452 549 460 l 571 423 q 610 391 584 421 q 650 304 650 345 q 526 45 650 133 q 325 -20 436 -20 q 196 22 256 -20 q 121 132 136 64 l 207 158 q 255 99 220 121 q 347 77 290 77 q 461 113 403 77 q 542 287 542 164 q 500 364 542 333 q 396 398 453 398 l 357 398 l 375 483 l 424 483 q 519 503 474 483 q 574 572 564 523 q 575 583 575 579 q 547 635 575 612 q 473 658 518 658 l 462 658 q 386 636 423 658 q 325 581 349 614 l 264 616 q 365 709 304 673 q 492 745 425 745 z "},"ɞ":{"ha":666,"x_min":134,"x_max":720,"o":"m 376 -20 l 372 -20 q 227 33 286 -20 q 134 261 134 112 q 184 477 134 368 q 328 665 232 586 q 431 723 373 701 q 541 745 488 745 q 704 653 654 745 q 720 605 720 623 q 718 578 720 587 q 684 508 707 526 q 629 475 662 489 q 568 452 597 460 l 619 423 q 658 391 632 421 q 698 304 698 345 q 574 45 698 133 q 376 -20 484 -20 m 623 583 l 623 589 q 519 650 583 650 q 354 569 433 650 q 250 364 276 488 q 239 258 239 314 q 264 153 239 201 q 330 85 289 104 q 396 77 353 77 q 487 101 438 77 q 581 212 568 152 q 590 282 590 255 q 581 328 590 310 q 547 365 572 347 q 444 398 502 398 l 406 398 l 423 483 l 472 483 q 567 503 522 483 q 622 572 612 523 q 623 583 623 579 z "},"ɟ":{"ha":357,"x_min":-131,"x_max":385,"o":"m -131 -235 l -43 -165 l -35 -175 l -26 -183 l -15 -191 l -1 -197 l 16 -199 q 103 -115 85 -199 l 127 0 l 12 0 l 33 96 l 148 96 l 282 728 l 385 728 l 251 96 l 365 96 l 345 0 l 231 0 l 210 -94 q 128 -228 192 -178 q -24 -290 48 -290 q -106 -262 -73 -290 q -131 -235 -113 -256 z "},"ɠ":{"ha":883,"x_min":78,"x_max":1066,"o":"m 260 366 q 248 250 248 306 q 267 151 248 193 q 380 72 301 72 q 530 151 459 72 q 629 364 601 230 q 642 477 642 422 q 621 577 642 533 q 505 655 583 655 q 357 577 426 655 q 260 366 289 500 m 140 231 l 141 251 q 201 509 146 383 q 376 716 267 659 q 492 747 436 747 q 629 701 592 747 q 676 601 663 659 l 725 831 q 867 1001 749 945 q 956 1027 923 1027 q 1042 998 1009 1027 q 1066 971 1046 994 l 979 902 l 971 911 l 951 928 l 937 933 l 920 935 q 833 852 850 935 l 649 -12 q 599 -136 635 -79 q 417 -285 533 -240 q 308 -304 366 -304 q 201 -282 250 -304 q 126 -227 152 -259 q 78 -90 78 -165 q 79 -74 78 -79 l 176 -74 l 175 -82 q 219 -174 175 -136 q 330 -212 264 -212 q 461 -162 397 -212 q 544 -22 525 -113 l 575 125 q 421 -8 507 20 q 337 -20 387 -20 q 247 1 288 -20 q 149 146 174 39 q 140 231 140 186 z "},"ɡ":{"ha":692,"x_min":78,"x_max":806,"o":"m 140 231 l 141 251 q 201 509 146 383 q 376 716 267 659 q 492 747 436 747 q 629 701 592 747 q 676 601 663 659 l 703 728 l 806 728 l 649 -12 q 599 -136 635 -79 q 417 -285 533 -240 q 308 -304 366 -304 q 201 -282 250 -304 q 126 -227 152 -259 q 78 -90 78 -165 q 79 -74 78 -79 l 176 -74 l 175 -82 q 219 -174 175 -136 q 330 -212 264 -212 q 461 -162 397 -212 q 544 -22 525 -113 l 575 125 q 421 -8 507 20 q 337 -20 387 -20 q 247 1 288 -20 q 149 146 174 39 q 140 231 140 186 m 260 366 q 248 250 248 306 q 267 151 248 193 q 380 72 301 72 q 530 151 459 72 q 629 364 601 230 q 642 477 642 422 q 621 577 642 533 q 505 655 583 655 q 357 577 426 655 q 260 366 289 500 z "},"ɢ":{"ha":667,"x_min":115,"x_max":696,"o":"m 347 -14 l 344 -14 q 222 18 273 -14 q 115 256 115 86 q 217 568 115 422 q 391 717 291 673 q 515 740 446 740 q 696 624 646 740 l 614 565 q 566 625 594 605 q 486 645 538 645 q 301 541 385 645 q 241 444 267 498 q 199 274 199 355 q 353 68 199 68 q 421 76 385 68 q 471 102 458 85 q 532 180 508 130 q 571 275 564 239 l 397 275 l 418 377 l 690 377 l 675 302 q 507 36 636 131 q 347 -14 438 -14 z "},"ɣ":{"ha":678,"x_min":197,"x_max":810,"o":"m 290 -348 q 275 -346 288 -347 q 259 -344 262 -345 q 251 -340 255 -342 q 214 -315 223 -330 q 197 -252 197 -283 q 203 -192 197 -221 l 212 -162 l 212 -161 q 302 0 217 -140 l 210 728 l 319 728 l 382 132 l 703 728 l 810 728 l 408 5 q 450 -159 446 -130 l 450 -174 q 360 -330 426 -292 q 293 -348 328 -348 l 290 -348 m 367 -181 l 367 -182 l 367 -181 m 366 -180 l 367 -179 q 342 -96 366 -155 l 287 -182 q 283 -198 287 -184 q 279 -224 279 -212 q 295 -264 279 -260 q 308 -267 299 -266 l 310 -267 q 342 -246 330 -267 q 366 -181 355 -225 l 366 -180 z "},"ɤ":{"ha":446,"x_min":126,"x_max":562,"o":"m 209 117 q 238 81 209 83 q 278 111 260 81 q 296 160 296 140 q 273 251 296 180 q 214 156 216 163 q 209 117 209 131 m 224 -1 l 214 0 q 126 100 126 5 q 133 156 126 122 l 141 186 q 230 344 148 210 l 179 741 l 256 741 l 294 385 l 486 741 l 562 741 l 340 343 q 378 197 376 217 q 372 141 380 176 q 341 71 363 106 q 224 -1 298 -1 z "},"ɥ":{"ha":722,"x_min":150,"x_max":807,"o":"m 256 263 q 385 93 256 93 q 592 271 519 93 q 626 381 612 319 l 704 747 l 807 747 l 597 -240 l 494 -240 l 576 142 q 478 40 542 81 q 349 0 415 0 q 150 209 158 0 l 150 226 q 168 380 150 294 l 246 747 l 349 747 l 271 380 q 256 269 258 319 l 256 263 z "},"ɦ":{"ha":722,"x_min":87,"x_max":814,"o":"m 637 485 q 509 654 637 654 q 354 568 418 654 q 269 366 295 489 l 191 0 l 87 0 l 240 728 q 475 1012 288 940 q 586 1032 528 1032 q 692 1010 645 1032 q 804 879 776 971 q 814 827 814 846 q 813 802 814 807 l 716 802 l 717 810 q 673 902 717 864 q 562 940 629 940 q 438 895 496 940 q 357 784 380 850 l 319 605 q 416 708 354 668 q 545 747 479 747 q 744 538 736 747 l 744 520 q 726 367 744 449 l 648 0 l 546 0 l 624 367 q 637 479 636 425 l 637 485 z "},"ɧ":{"ha":722,"x_min":87,"x_max":814,"o":"m 637 485 q 509 654 637 654 q 354 568 418 654 q 269 366 295 489 l 191 0 l 87 0 l 240 728 q 475 1012 288 940 q 586 1032 528 1032 q 692 1010 645 1032 q 804 879 776 971 q 814 827 814 846 q 813 802 814 807 l 716 802 l 717 810 q 673 902 717 864 q 562 940 629 940 q 438 895 496 940 q 357 784 380 850 l 319 605 q 416 708 354 668 q 545 747 479 747 q 744 538 736 747 l 744 520 q 726 367 744 449 l 648 1 l 648 0 l 629 -94 q 597 -171 620 -134 q 433 -283 542 -255 q 387 -290 410 -290 q 311 -260 342 -290 q 288 -234 304 -254 l 374 -165 l 392 -183 l 403 -191 l 417 -196 l 434 -198 q 521 -115 503 -198 l 623 367 l 624 367 q 637 479 636 425 l 637 485 z "},"ɨ":{"ha":292,"x_min":82,"x_max":403,"o":"m 350 968 q 362 968 350 968 q 389 954 374 968 q 403 911 403 939 q 376 862 403 884 q 326 840 350 840 q 288 854 302 840 q 273 884 274 868 q 299 945 272 923 q 350 968 326 968 m 250 728 l 352 728 l 300 483 l 394 483 l 374 387 l 279 387 l 197 0 l 95 0 l 177 387 l 82 387 l 102 483 l 197 483 l 250 728 z "},"ɩ":{"ha":423,"x_min":130,"x_max":417,"o":"m 239 695 l 183 695 l 203 791 l 366 791 l 235 175 q 231 144 231 161 q 286 92 231 92 l 304 94 l 321 99 l 335 107 l 347 115 l 359 125 l 417 56 q 376 25 385 31 q 342 10 368 20 q 293 0 316 0 q 162 62 218 0 q 130 154 130 98 q 134 196 130 179 l 239 695 z "},"ɪ":{"ha":301,"x_min":41,"x_max":426,"o":"m 345 632 l 231 96 l 292 96 l 271 0 l 41 0 l 62 96 l 125 96 l 239 632 l 176 632 l 196 728 l 426 728 l 406 632 l 345 632 z "},"ɫ":{"ha":472,"x_min":95,"x_max":554,"o":"m 356 897 l 458 897 l 374 498 l 376 496 l 412 486 q 507 521 454 486 l 554 552 l 533 454 q 482 419 499 432 q 439 397 465 407 q 391 387 414 387 q 352 396 369 387 l 299 146 q 296 121 296 130 q 361 66 296 66 l 409 66 l 391 -20 l 343 -20 q 210 18 243 -20 q 189 78 189 43 q 196 143 189 113 l 267 475 l 262 479 l 231 490 q 138 454 186 490 q 95 424 130 448 l 116 523 q 159 552 141 539 q 254 588 206 588 q 288 578 272 588 l 356 897 z "},"ɬ":{"ha":502,"x_min":-22,"x_max":612,"o":"m 33 313 q -22 414 -22 346 q -18 456 -22 441 q 5 510 -14 472 q 231 686 77 654 l 295 986 l 397 986 l 283 448 q 377 512 321 471 q 577 690 434 554 l 612 625 q 376 432 439 471 q 266 366 313 393 l 218 140 q 216 120 216 129 q 283 69 216 69 l 264 -20 q 149 6 189 -20 q 109 91 109 31 q 115 138 109 109 l 152 313 q 83 303 114 303 q 33 313 52 303 m 71 444 l 67 427 q 89 399 67 408 q 134 390 110 390 l 170 395 l 212 595 q 71 444 110 567 z "},"ɭ":{"ha":526,"x_min":155,"x_max":492,"o":"m 389 987 l 492 987 l 258 -119 q 256 -142 256 -128 q 269 -171 256 -156 q 305 -185 282 -185 q 360 -173 346 -185 q 385 -150 374 -160 l 444 -221 q 378 -264 404 -251 q 319 -277 352 -277 q 200 -227 253 -277 q 155 -125 155 -185 q 159 -92 155 -106 l 389 987 z "},"ɮ":{"ha":770,"x_min":58,"x_max":901,"o":"m 218 140 q 216 120 216 129 q 283 69 216 69 l 264 -20 q 149 6 189 -20 q 109 91 109 31 q 115 138 109 109 l 295 986 l 397 986 l 218 140 m 397 247 l 709 633 l 354 633 l 374 728 l 901 728 l 560 306 q 597 287 583 298 q 641 261 612 276 q 680 214 657 252 q 715 94 715 157 q 709 39 715 66 q 567 -181 680 -94 q 312 -269 453 -269 q 152 -217 227 -269 q 58 -78 78 -166 l 170 -46 q 230 -137 183 -102 q 332 -172 276 -172 q 505 -114 428 -172 q 602 39 582 -56 q 608 87 608 66 q 565 194 608 155 q 501 233 536 220 l 397 247 z "},"ɯ":{"ha":1040,"x_min":138,"x_max":1126,"o":"m 296 0 q 138 184 138 0 q 152 304 138 237 l 246 747 l 349 747 l 271 379 q 249 237 249 277 q 297 108 249 132 q 347 98 317 98 q 556 375 497 98 l 635 747 l 738 747 l 659 376 q 639 224 639 281 l 639 214 q 736 93 641 93 q 944 374 884 93 l 1023 747 l 1126 747 l 972 20 l 869 20 l 895 143 q 879 120 889 134 q 862 97 868 106 q 834 65 856 88 q 691 0 773 0 q 568 47 608 0 q 524 164 527 94 q 431 46 491 93 q 296 0 370 0 z "},"ɰ":{"ha":1040,"x_min":138,"x_max":1126,"o":"m 296 0 q 138 184 138 0 q 152 304 138 237 l 246 747 l 349 747 l 271 379 q 249 237 249 277 q 297 108 249 132 q 347 98 317 98 q 556 375 497 98 l 635 747 l 738 747 l 659 376 q 639 224 639 281 l 639 214 q 736 93 641 93 q 944 374 884 93 l 1023 747 l 1126 747 l 913 -258 l 810 -258 l 895 143 q 879 120 889 134 q 862 97 868 106 q 834 65 856 88 q 691 0 773 0 q 568 47 608 0 q 524 164 527 94 q 431 46 491 93 q 296 0 370 0 z "},"ɱ":{"ha":1040,"x_min":87,"x_max":1076,"o":"m 918 747 q 1076 564 1076 747 q 1062 443 1076 510 l 947 -94 q 806 -264 921 -212 q 717 -290 750 -290 q 631 -262 664 -290 q 606 -235 624 -256 l 694 -165 l 702 -175 l 722 -191 l 735 -197 l 753 -199 q 840 -115 823 -199 l 943 368 q 965 511 965 471 q 917 640 965 616 q 868 650 897 650 q 659 372 718 650 l 579 0 l 476 0 l 555 371 q 575 524 575 467 l 575 533 q 477 654 573 654 q 270 373 330 654 l 191 0 l 87 0 l 242 728 l 345 728 l 319 604 q 335 628 325 614 q 352 650 346 642 q 380 682 358 659 q 523 747 441 747 q 646 701 606 747 q 690 583 687 654 q 783 701 722 654 q 918 747 844 747 z "},"ɲ":{"ha":770,"x_min":-53,"x_max":840,"o":"m 288 -1 q 234 -136 277 -46 q 155 -227 210 -184 q -50 -305 53 -305 l -53 -305 q -31 -214 -50 -294 q 100 -164 39 -214 q 180 -23 160 -114 l 184 -1 l 184 0 l 183 0 l 338 728 l 441 728 l 415 605 q 512 707 449 667 q 642 747 575 747 q 840 538 832 747 l 840 522 q 822 367 840 453 l 744 0 l 642 0 l 720 367 q 734 479 732 428 l 734 485 q 606 654 734 654 q 450 568 513 654 q 364 366 391 492 l 286 0 l 288 -1 z "},"ɳ":{"ha":823,"x_min":73,"x_max":759,"o":"m 623 485 q 495 654 623 654 q 339 568 403 654 q 254 366 281 492 l 176 0 l 73 0 l 228 728 l 331 728 l 305 605 q 402 708 340 668 q 531 747 464 747 q 730 538 722 747 l 730 520 q 712 367 730 449 l 644 45 l 644 45 l 630 -22 q 623 -79 623 -56 q 650 -163 623 -130 q 759 -214 690 -214 q 743 -304 745 -288 l 740 -304 q 570 -228 635 -304 q 526 -136 529 -180 q 525 -72 525 -115 q 532 0 525 -31 l 610 367 q 623 479 622 425 l 623 485 z "},"ɴ":{"ha":693,"x_min":71,"x_max":788,"o":"m 71 0 l 224 721 l 316 721 l 561 146 l 683 721 l 788 721 l 635 0 l 535 0 l 291 589 l 165 0 l 71 0 z "},"ɵ":{"ha":687,"x_min":130,"x_max":728,"o":"m 237 258 q 283 109 237 162 q 366 72 315 72 q 465 108 418 72 q 595 312 556 176 l 597 318 l 242 318 q 237 258 237 281 m 261 410 l 615 410 q 620 485 620 439 q 598 579 620 532 q 490 650 566 650 q 391 614 438 650 q 261 410 300 546 m 144 364 q 346 692 193 591 q 509 742 421 742 q 651 692 596 742 q 728 486 728 623 q 709 342 728 429 q 640 171 690 256 q 512 33 590 86 q 347 -20 435 -20 q 203 34 259 -20 q 130 239 130 105 q 144 364 130 298 z "},"ɶ":{"ha":1008,"x_min":132,"x_max":1040,"o":"m 479 98 q 451 231 451 158 q 539 557 451 414 q 589 626 566 600 q 497 650 559 650 q 384 610 436 650 q 251 364 288 536 q 238 253 238 306 q 381 72 238 72 q 479 98 427 72 m 138 170 q 132 251 132 205 q 148 372 132 297 q 279 633 182 532 q 524 742 382 742 q 670 694 614 742 q 819 742 744 742 q 942 711 894 742 q 1040 487 1040 648 q 1034 406 1040 437 q 1024 360 1027 375 q 1020 337 1021 345 q 1016 318 1017 322 l 563 318 q 558 256 558 281 q 565 188 558 231 q 604 109 572 145 q 687 72 635 72 q 790 98 738 72 q 873 165 842 123 l 956 127 q 827 20 906 60 q 666 -20 747 -20 q 530 28 584 -20 q 360 -20 453 -20 q 210 33 268 -20 q 138 170 152 86 m 582 410 l 936 410 q 941 485 941 439 q 919 579 941 532 q 810 650 886 650 q 711 613 760 650 q 582 410 621 546 z "},"ɷ":{"ha":819,"x_min":101,"x_max":880,"o":"m 445 150 q 381 70 420 104 q 231 0 302 0 q 107 172 136 0 q 101 253 101 206 q 120 389 101 300 q 191 561 140 477 q 317 694 242 644 q 480 743 392 743 l 662 743 q 804 693 749 743 q 880 487 880 624 q 862 342 880 427 q 793 172 843 257 q 595 0 691 0 q 528 18 557 0 q 454 112 478 48 q 445 150 447 132 m 209 259 q 257 110 209 161 q 321 126 296 110 q 414 233 372 155 q 431 282 426 257 l 473 483 l 558 483 l 515 282 q 511 240 511 265 l 511 233 q 559 126 521 155 q 615 110 578 110 q 749 319 706 176 l 768 411 q 772 469 772 440 q 766 538 772 498 q 727 615 759 578 q 642 651 694 651 l 460 651 q 362 614 410 651 q 233 411 271 547 l 213 319 q 209 259 209 288 z "},"ɸ":{"ha":901,"x_min":138,"x_max":920,"o":"m 522 663 q 373 598 444 656 q 250 369 282 520 q 242 303 242 333 q 290 158 242 218 q 397 73 338 97 l 522 663 m 679 153 q 817 376 791 247 q 824 444 824 414 q 779 585 824 528 q 642 663 733 643 l 515 68 q 679 153 591 83 m 433 987 l 879 987 l 859 891 l 692 891 l 661 743 q 820 673 771 729 q 885 590 861 637 q 920 459 920 542 q 913 373 920 394 q 907 349 907 351 q 753 103 876 203 q 500 -11 631 3 l 466 -172 l 633 -172 l 612 -269 l 167 -269 l 187 -172 l 345 -172 l 380 -7 q 203 95 269 12 q 138 283 138 178 q 148 369 138 323 l 146 370 q 317 642 180 529 q 539 745 423 729 l 570 891 l 413 891 l 433 987 z "},"ɹ":{"ha":465,"x_min":93,"x_max":659,"o":"m 93 24 l 165 113 q 246 93 195 93 q 346 133 296 93 q 477 381 439 208 l 555 747 l 659 747 l 504 20 l 401 20 l 427 142 q 330 40 393 79 q 200 0 266 0 q 93 24 134 0 z "},"ɺ":{"ha":533,"x_min":93,"x_max":718,"o":"m 93 24 l 165 113 q 246 93 195 93 q 346 133 296 93 q 477 381 439 208 l 615 1027 l 718 1027 l 504 20 l 401 20 l 427 142 q 330 40 393 79 q 200 0 266 0 q 93 24 134 0 z "},"ɻ":{"ha":734,"x_min":93,"x_max":659,"o":"m 659 -234 q 529 -290 589 -290 q 457 -270 492 -290 q 404 -229 423 -250 q 373 -136 373 -194 q 378 -94 373 -115 l 427 142 q 330 40 393 79 q 200 0 266 0 q 93 24 134 0 l 165 113 q 246 93 195 93 q 345 132 296 93 q 477 381 442 210 l 555 742 l 658 742 l 476 -115 q 473 -145 473 -129 q 528 -198 473 -198 l 546 -196 l 562 -191 l 576 -183 l 601 -165 l 659 -234 z "},"ɼ":{"ha":533,"x_min":33,"x_max":654,"o":"m 654 723 l 581 634 q 500 654 551 654 q 400 614 450 654 q 269 366 307 539 l 136 -258 l 33 -258 l 242 728 l 345 728 l 319 605 q 417 708 354 669 q 546 747 480 747 q 654 723 612 747 z "},"ɽ":{"ha":533,"x_min":62,"x_max":654,"o":"m 654 724 l 581 635 q 500 655 551 655 q 400 615 450 655 q 269 367 306 539 l 166 -115 q 163 -146 163 -130 q 218 -199 163 -199 l 236 -197 l 252 -191 l 267 -183 l 279 -175 l 291 -165 l 349 -235 q 308 -265 316 -260 q 274 -280 300 -271 q 224 -290 248 -290 q 94 -228 149 -290 q 62 -137 62 -193 q 67 -94 62 -115 l 242 728 l 345 728 l 319 606 q 417 708 353 668 q 547 748 481 748 q 654 724 612 748 z "},"ɾ":{"ha":423,"x_min":10,"x_max":562,"o":"m 112 96 l 219 595 q 362 765 243 711 q 452 791 420 791 q 538 762 507 791 q 562 736 547 754 l 475 667 l 458 685 l 447 692 l 433 698 l 415 700 q 328 616 346 700 l 218 96 l 299 96 l 279 0 l 10 0 l 31 96 l 112 96 z "},"ɿ":{"ha":423,"x_min":137,"x_max":454,"o":"m 345 96 l 426 96 l 406 0 l 137 0 l 157 96 l 239 96 l 349 616 q 353 647 353 633 q 298 700 353 700 l 280 698 l 264 692 l 250 685 l 224 667 l 167 736 q 296 791 237 791 q 369 771 334 791 q 421 731 403 751 q 454 634 454 694 q 450 595 454 616 l 345 96 z "},"ʀ":{"ha":624,"x_min":66,"x_max":654,"o":"m 536 549 q 370 651 536 651 l 304 651 l 247 383 l 313 383 q 521 481 473 383 q 536 549 536 514 m 454 0 l 308 313 l 232 313 l 165 0 l 66 0 l 220 721 l 420 721 q 605 667 541 721 q 654 562 654 627 q 573 391 654 465 q 427 321 513 336 l 574 0 l 454 0 z "},"ʁ":{"ha":624,"x_min":66,"x_max":727,"o":"m 237 338 l 180 70 l 247 70 q 399 106 346 70 q 469 240 469 153 q 304 338 469 338 l 237 338 m 607 721 l 727 721 l 444 400 q 561 331 524 385 q 587 256 587 293 q 475 54 587 123 q 267 0 387 0 l 66 0 l 220 721 l 319 721 l 252 409 l 328 409 l 607 721 z "},"ʂ":{"ha":625,"x_min":43,"x_max":684,"o":"m 509 216 q 387 323 509 284 q 222 420 261 368 q 194 507 194 458 q 199 549 194 524 q 298 693 218 642 q 476 745 377 744 q 670 640 621 745 q 684 591 680 618 l 581 570 q 458 653 561 653 q 359 627 404 653 q 300 527 300 593 q 350 452 300 482 q 383 435 368 440 q 404 428 398 431 q 414 423 410 425 q 437 415 427 419 l 498 390 l 528 374 l 555 356 l 580 334 l 598 307 l 612 275 l 616 239 l 611 195 q 506 41 591 102 q 323 -20 420 -20 q 174 15 227 -20 l 146 -115 q 143 -146 143 -130 q 198 -199 143 -199 l 216 -197 l 232 -191 l 247 -183 l 259 -175 l 271 -165 l 329 -235 q 288 -265 296 -260 q 254 -280 280 -271 q 205 -290 228 -290 q 74 -228 130 -290 q 43 -137 43 -193 q 47 -94 43 -115 l 98 140 l 96 147 l 200 166 q 241 96 210 121 q 336 72 271 72 q 448 104 401 72 q 507 195 494 136 q 509 216 509 210 z "},"ʃ":{"ha":526,"x_min":-75,"x_max":692,"o":"m 14 -150 q 74 -185 30 -185 q 124 -168 100 -185 q 154 -119 148 -150 l 353 819 q 451 955 371 901 q 573 1004 524 1004 q 645 990 623 1004 q 692 949 668 977 l 603 878 q 543 913 587 913 q 493 895 517 913 q 463 847 469 877 l 264 -92 q 227 -168 254 -133 q 96 -263 176 -234 q 26 -277 59 -277 q -29 -263 -6 -277 q -75 -221 -52 -250 l 14 -150 z "},"ʄ":{"ha":357,"x_min":-131,"x_max":458,"o":"m -131 -235 l -43 -165 l -35 -175 l -26 -183 l -15 -191 l -1 -197 l 16 -199 q 103 -115 85 -199 l 127 0 l 12 0 l 33 96 l 148 96 l 282 728 q 273 753 273 738 q 328 849 273 809 q 411 901 366 878 l 447 920 l 458 836 l 436 821 q 379 755 379 788 q 385 728 386 728 l 251 96 l 365 96 l 345 0 l 231 0 l 210 -94 q 128 -228 192 -178 q -24 -290 48 -290 q -106 -262 -73 -290 q -131 -235 -113 -256 z "},"ʅ":{"ha":526,"x_min":115,"x_max":444,"o":"m 399 545 l 258 -119 q 256 -142 256 -128 q 269 -171 256 -156 q 305 -185 282 -185 q 360 -173 346 -185 q 385 -150 374 -160 l 444 -221 q 378 -264 404 -251 q 319 -277 352 -277 q 200 -227 253 -277 q 155 -125 155 -185 q 159 -92 155 -106 l 301 573 q 303 596 303 582 q 290 624 303 610 q 254 639 277 639 q 198 626 212 639 q 174 604 184 614 l 115 675 q 179 716 150 702 q 241 730 208 730 q 358 681 306 730 q 392 629 382 658 q 403 582 403 600 q 399 545 403 564 z "},"ʆ":{"ha":526,"x_min":-137,"x_max":692,"o":"m 306 104 l 342 105 q 496 101 407 105 l 490 20 q 290 31 366 31 l 264 -92 q 227 -168 254 -133 q 96 -263 176 -234 q 26 -277 59 -277 q -28 -263 -6 -277 q -107 -199 -80 -232 q -137 -121 -135 -165 l -137 -116 q -58 18 -137 -35 q 41 64 -9 50 q 199 96 90 78 l 353 819 q 451 955 371 901 q 573 1004 524 1004 q 645 990 623 1004 q 692 949 668 977 l 603 878 q 543 913 587 913 q 493 895 517 913 q 463 847 469 877 l 306 104 m 14 -172 q 43 -180 30 -174 q 78 -185 56 -185 q 124 -168 100 -185 q 154 -119 148 -150 l 184 25 q 37 -12 102 15 q -39 -77 -9 -33 q -50 -106 -50 -92 q -37 -127 -50 -120 l 14 -172 z "},"ʇ":{"ha":472,"x_min":105,"x_max":472,"o":"m 361 261 l 457 261 l 437 170 l 341 170 l 305 0 l 203 0 l 239 170 l 105 170 l 125 261 l 258 261 l 363 751 q 366 777 366 764 q 300 831 366 831 l 252 831 l 271 917 l 318 917 q 451 879 418 917 q 472 820 472 855 q 465 754 472 784 l 361 261 z "},"ʈ":{"ha":472,"x_min":136,"x_max":556,"o":"m 300 636 l 204 636 l 224 728 l 320 728 l 356 897 l 458 897 l 422 728 l 556 728 l 536 636 l 403 636 l 246 -103 q 243 -128 243 -119 q 309 -182 243 -182 l 427 -182 l 408 -269 l 290 -269 q 157 -231 190 -269 q 136 -171 136 -207 q 143 -106 136 -136 l 300 636 z "},"ʉ":{"ha":722,"x_min":116,"x_max":797,"o":"m 140 190 l 139 209 q 157 361 139 279 l 162 387 l 116 387 l 136 483 l 182 483 l 235 728 l 337 728 l 285 483 l 641 483 l 693 728 l 796 728 l 744 483 l 797 483 l 777 387 l 724 387 l 642 0 l 538 0 l 564 123 q 467 21 531 61 q 337 -20 404 -20 q 140 190 148 -20 m 245 243 q 374 73 245 73 q 530 160 465 73 q 615 361 589 238 l 621 387 l 264 387 l 259 361 q 245 249 247 303 l 245 243 z "},"ʊ":{"ha":715,"x_min":125,"x_max":837,"o":"m 709 638 q 745 484 745 580 q 726 342 745 430 q 657 169 707 254 q 527 32 606 84 q 354 -20 448 -20 q 202 33 260 -20 q 125 242 125 102 q 190 513 125 382 q 271 633 224 584 l 281 644 l 171 644 l 191 741 l 450 741 l 430 644 q 292 509 339 600 q 230 253 230 385 q 374 72 230 72 q 592 252 515 72 q 640 477 640 362 q 597 610 640 581 l 557 638 l 578 734 l 837 734 l 817 638 l 709 638 z "},"ʋ":{"ha":688,"x_min":139,"x_max":735,"o":"m 245 243 q 371 73 245 75 q 471 111 421 75 q 604 319 560 176 l 623 411 q 627 470 627 441 q 621 538 627 498 q 582 614 614 577 q 496 651 549 651 l 516 743 q 658 693 603 743 q 735 487 735 623 q 717 343 735 427 q 648 173 699 259 q 519 34 597 86 q 354 -19 442 -19 l 338 -18 q 244 4 298 -18 q 167 72 191 26 q 140 190 142 118 l 139 209 q 157 361 139 279 l 227 689 l 225 695 l 169 695 l 189 791 l 351 791 l 331 695 l 330 694 l 259 361 q 245 249 247 303 l 245 243 z "},"ʌ":{"ha":694,"x_min":56,"x_max":656,"o":"m 457 728 l 560 728 l 656 0 l 549 0 l 481 595 l 164 0 l 56 0 l 457 728 z "},"ʍ":{"ha":932,"x_min":46,"x_max":901,"o":"m 504 143 l 779 728 l 861 728 l 901 0 l 798 0 l 785 558 l 526 5 l 424 5 l 399 558 l 150 0 l 46 0 l 395 728 l 474 728 l 504 143 z "},"ʎ":{"ha":694,"x_min":35,"x_max":768,"o":"m 541 628 l 543 628 l 635 -100 l 526 -100 l 463 496 l 142 -100 l 35 -100 l 660 1027 l 768 1027 l 541 628 z "},"ʏ":{"ha":705,"x_min":215,"x_max":799,"o":"m 215 728 l 314 728 l 421 321 l 700 728 l 799 728 l 454 248 l 401 0 l 301 0 l 354 248 l 215 728 z "},"ʐ":{"ha":831,"x_min":61,"x_max":770,"o":"m 753 -235 q 712 -265 720 -260 q 678 -280 704 -271 q 628 -290 652 -290 q 498 -228 553 -290 q 467 -137 467 -193 q 471 -94 467 -115 l 492 0 l 61 0 l 578 632 l 223 632 l 243 728 l 770 728 l 252 96 l 615 96 l 570 -115 q 567 -146 567 -130 q 622 -199 567 -199 l 640 -197 l 656 -191 l 671 -183 l 683 -175 l 695 -165 l 753 -235 z "},"ʑ":{"ha":755,"x_min":61,"x_max":772,"o":"m 374 157 q 550 259 494 232 q 680 286 606 286 q 725 271 699 286 q 762 229 751 256 q 772 186 772 202 q 767 137 772 170 q 745 79 762 105 q 633 0 696 0 l 282 0 q 174 -100 246 -31 l 138 -35 l 178 0 l 61 0 l 578 632 l 223 632 l 243 728 l 770 728 l 252 96 l 292 96 q 374 157 345 139 m 399 96 l 656 96 q 690 142 679 96 l 690 144 q 691 154 691 151 q 666 189 691 178 q 616 199 641 199 l 574 193 q 399 96 489 163 l 399 96 z "},"ʒ":{"ha":1158,"x_min":459,"x_max":1301,"o":"m 798 247 l 1110 633 l 755 633 l 775 728 l 1301 728 l 961 306 q 998 287 983 298 q 1042 261 1013 276 q 1080 214 1057 253 q 1115 91 1115 157 q 1109 39 1115 62 q 967 -181 1081 -94 q 713 -269 854 -269 q 553 -217 627 -269 q 459 -78 479 -166 l 571 -46 q 630 -137 584 -102 q 733 -172 677 -172 q 905 -114 828 -172 q 1003 39 983 -56 q 1008 84 1008 64 q 965 194 1008 154 q 903 233 936 221 l 798 247 z "},"ʓ":{"ha":675,"x_min":2,"x_max":779,"o":"m 419 -81 q 486 87 486 -9 q 443 194 486 155 q 379 233 414 220 l 275 247 l 587 633 l 232 633 l 252 728 l 779 728 l 438 306 q 475 287 460 298 q 519 261 490 276 q 558 214 535 252 q 593 94 593 157 q 587 39 593 66 q 480 -151 563 -73 q 562 -263 522 -205 l 499 -328 q 415 -202 452 -252 q 198 -269 312 -269 q 30 -217 84 -269 q 5 -156 7 -194 q 2 -110 2 -117 q 4 -96 2 -103 q 115 48 26 9 q 157 58 138 58 q 279 28 229 58 q 408 -71 330 -1 q 413 -76 409 -72 q 419 -81 417 -79 m 184 -28 q 97 -82 110 -28 l 97 -83 q 96 -96 96 -85 q 108 -137 96 -106 q 221 -172 154 -172 q 357 -132 288 -172 q 222 -35 294 -64 q 184 -28 202 -28 z "},"ʔ":{"ha":668,"x_min":199,"x_max":797,"o":"m 460 340 l 389 0 l 282 0 l 355 342 q 477 517 374 441 l 595 602 l 610 614 l 636 642 l 648 656 l 659 674 l 668 694 l 675 716 l 683 742 q 688 789 688 766 q 659 873 688 842 q 532 920 617 920 q 422 889 475 920 q 336 817 370 859 q 294 736 302 776 l 199 753 q 334 940 235 865 q 547 1015 433 1015 q 740 949 668 1015 q 797 806 797 896 q 741 629 797 709 q 666 546 702 575 q 604 500 629 517 l 555 469 l 515 438 l 481 396 l 460 340 z "},"ʕ":{"ha":668,"x_min":190,"x_max":793,"o":"m 414 517 q 436 488 421 509 q 458 448 452 466 q 465 399 464 430 q 461 342 467 368 l 389 0 l 282 0 l 354 340 l 358 396 l 341 438 l 315 469 l 280 500 q 197 629 221 553 q 190 685 190 656 q 248 863 190 780 q 440 998 313 959 q 555 1015 496 1015 q 732 945 670 1015 q 793 783 793 875 q 792 753 793 773 l 690 736 q 692 768 692 747 q 680 824 692 789 q 626 889 667 859 q 515 920 585 920 q 384 873 445 920 q 304 742 322 827 l 299 716 l 298 694 l 299 674 l 302 656 l 307 642 l 315 628 l 323 614 l 343 590 l 414 517 z "},"ʖ":{"ha":668,"x_min":93,"x_max":696,"o":"m 473 498 q 444 536 463 508 q 420 625 424 565 q 425 673 420 647 l 498 1015 l 604 1015 l 532 675 l 529 618 l 545 577 l 572 547 l 607 514 q 642 479 631 492 q 696 332 696 412 q 639 152 696 235 q 446 17 574 56 q 332 0 391 0 q 155 71 217 0 q 93 233 93 142 q 94 262 93 242 l 197 279 q 194 245 194 264 q 207 192 194 227 q 260 126 220 157 q 371 96 301 96 q 503 142 441 96 q 583 273 565 189 l 587 299 l 589 321 l 588 341 l 585 358 l 579 374 l 572 388 l 554 413 l 504 468 l 473 498 z "},"ʗ":{"ha":642,"x_min":81,"x_max":737,"o":"m 639 549 q 600 616 633 582 q 519 650 566 650 q 355 569 433 650 q 256 393 277 488 q 248 361 250 365 q 192 92 238 346 q 184 -3 184 47 q 210 -103 184 -54 q 341 -183 253 -183 q 400 -171 369 -183 q 452 -140 431 -158 q 512 -76 486 -112 l 584 -128 q 321 -275 464 -275 q 172 -222 232 -275 q 81 1 81 -144 q 88 85 81 45 q 123 255 95 125 q 158 412 151 386 q 186 485 165 437 q 328 665 233 587 q 539 742 422 742 q 666 700 618 742 q 737 593 715 659 l 639 549 z "},"ʘ":{"ha":904,"x_min":151,"x_max":977,"o":"m 762 267 q 865 646 861 433 q 820 835 865 758 q 654 918 770 918 q 365 720 477 918 q 285 517 307 618 q 263 344 263 416 l 263 338 q 309 159 263 233 q 475 77 359 77 q 593 103 537 77 q 762 267 692 150 m 151 344 q 282 770 151 570 q 674 1014 442 1014 q 817 982 757 1014 q 961 781 923 926 q 977 644 977 721 q 962 498 977 567 q 845 218 930 349 q 743 96 798 146 q 613 13 689 45 q 455 -20 537 -20 q 168 210 228 -20 q 151 344 151 271 m 638 425 q 543 389 594 389 q 466 419 492 389 q 441 485 441 450 q 468 569 441 533 q 595 638 521 638 q 652 623 627 638 q 696 533 696 595 q 638 425 696 471 z "},"ʙ":{"ha":624,"x_min":62,"x_max":636,"o":"m 62 0 l 217 726 l 457 726 q 554 703 509 726 q 618 645 600 680 q 636 585 636 611 q 630 534 636 559 q 595 472 625 509 q 537 420 565 435 l 481 393 l 529 372 q 576 331 555 358 q 611 243 611 286 q 608 216 611 227 q 498 61 588 122 q 297 0 409 0 l 62 0 m 235 429 l 381 429 q 472 459 430 429 q 526 554 526 498 q 498 611 526 585 q 425 637 471 637 l 279 637 l 235 429 m 218 348 l 163 92 l 304 92 q 433 127 376 92 q 503 220 490 162 q 505 245 505 231 q 458 316 505 283 q 355 348 413 348 l 218 348 z "},"ʚ":{"ha":666,"x_min":107,"x_max":730,"o":"m 730 465 q 639 172 730 309 q 498 33 581 85 q 329 -20 415 -20 l 326 -20 q 155 45 218 -20 q 107 161 107 94 q 113 208 107 182 q 156 329 131 295 q 219 392 180 362 q 271 423 257 421 l 334 452 q 243 505 269 475 q 233 539 233 519 q 239 586 233 559 q 287 655 244 612 q 381 722 329 699 q 486 745 433 745 q 586 724 538 745 q 711 581 673 684 q 730 477 728 534 l 730 465 m 467 650 q 337 589 401 650 q 329 547 329 576 q 362 501 329 519 q 443 483 395 483 l 492 483 l 474 398 l 435 398 q 332 372 378 398 q 261 321 285 347 q 220 212 238 296 q 218 191 218 197 q 266 101 218 143 q 347 77 304 77 q 416 85 389 77 q 511 152 466 105 q 615 364 587 232 q 625 463 625 410 q 597 568 625 516 q 467 650 553 650 z "},"ʛ":{"ha":840,"x_min":129,"x_max":1009,"o":"m 260 404 l 241 313 q 237 252 237 283 q 282 109 237 161 q 367 73 315 73 q 505 143 442 73 q 595 313 567 214 l 433 313 l 453 404 l 713 404 l 705 372 q 702 358 704 366 q 700 346 701 350 q 699 339 699 341 q 577 94 670 200 q 347 -20 477 -20 q 205 30 260 -20 q 129 237 129 100 q 148 381 129 296 q 216 552 166 467 q 343 690 267 637 q 504 742 420 742 q 651 702 587 742 l 654 701 l 668 770 q 700 847 677 811 q 809 940 739 907 q 898 966 865 966 q 985 937 954 966 q 1009 911 992 931 l 922 842 l 905 860 l 894 867 l 880 873 l 863 875 q 776 791 793 875 l 734 595 l 636 557 q 582 623 625 596 q 489 650 539 650 q 391 614 438 650 q 260 404 303 547 z "},"ʜ":{"ha":623,"x_min":69,"x_max":708,"o":"m 224 728 l 326 728 l 258 409 l 536 410 l 604 729 l 708 728 l 553 0 l 450 1 l 517 317 l 239 317 l 172 0 l 69 0 l 224 728 z "},"ʝ":{"ha":473,"x_min":-169,"x_max":437,"o":"m 357 840 q 306 898 306 840 q 332 946 306 924 q 385 968 359 968 q 424 952 411 968 q 437 924 437 937 q 410 862 437 884 q 357 840 383 840 m -2 58 q 130 14 65 58 l 282 728 l 385 728 l 219 -54 l 237 -71 q 392 -263 289 -115 l 329 -328 q 195 -141 254 -208 q 70 -264 158 -224 q -18 -290 16 -290 q -106 -262 -73 -290 q -131 -235 -113 -256 q -169 -118 -169 -193 q -166 -96 -169 -106 q -55 48 -144 9 q -2 58 -33 58 m 113 -68 q 23 -28 56 -28 q -37 -38 -9 -28 q -73 -82 -65 -47 l -73 -86 q -43 -165 -73 -108 l -35 -175 l -26 -183 l -15 -191 l -1 -197 l 16 -199 q 103 -115 85 -199 l 113 -68 z "},"ʞ":{"ha":640,"x_min":89,"x_max":742,"o":"m 416 310 l 192 728 l 310 728 l 493 380 l 585 471 l 639 728 l 742 728 l 532 -258 l 429 -258 l 555 333 l 207 0 l 89 0 l 416 310 z "},"ʟ":{"ha":657,"x_min":82,"x_max":608,"o":"m 240 742 l 347 742 l 210 96 l 608 96 l 587 0 l 82 0 l 240 742 z "},"ʠ":{"ha":868,"x_min":128,"x_max":1045,"o":"m 248 366 q 235 250 235 306 q 254 151 235 193 q 367 72 288 72 q 517 151 446 72 q 616 364 588 230 q 629 477 629 422 q 608 577 629 533 q 491 655 570 655 q 344 578 412 655 q 248 366 276 501 m 654 -304 q 500 -190 500 -304 q 506 -139 500 -163 l 562 125 q 453 12 510 43 q 328 -20 396 -20 q 214 13 260 -20 q 128 224 130 73 l 128 232 q 189 509 128 372 q 363 716 254 659 q 479 747 423 747 q 616 701 579 747 q 663 601 650 659 l 690 728 q 739 874 722 847 q 787 926 757 902 q 899 982 840 966 q 944 987 920 987 q 990 977 967 987 q 1019 961 1013 967 q 1045 932 1025 955 l 958 863 l 949 872 l 941 880 l 929 888 l 916 894 l 899 896 q 812 812 829 896 l 610 -135 q 607 -168 607 -153 q 617 -198 607 -183 q 673 -212 628 -212 l 654 -304 z "},"ʡ":{"ha":668,"x_min":109,"x_max":797,"o":"m 325 201 l 109 201 l 129 297 l 345 297 l 355 342 q 477 517 374 441 l 595 602 l 610 614 l 636 642 l 648 656 l 659 674 l 668 694 l 675 716 l 683 742 q 688 789 688 766 q 659 873 688 842 q 532 920 617 920 q 422 889 475 920 q 336 817 370 859 q 294 736 302 776 l 199 753 q 334 940 235 865 q 547 1015 433 1015 q 740 949 668 1015 q 797 806 797 896 q 741 629 797 709 q 666 546 702 575 q 604 500 630 517 l 555 469 l 515 438 l 481 396 l 460 340 l 452 297 l 690 297 l 669 201 l 431 201 l 389 0 l 282 0 l 325 201 z "},"ʢ":{"ha":668,"x_min":87,"x_max":793,"o":"m 414 517 q 436 488 421 509 q 458 448 452 466 q 465 399 464 430 q 461 342 467 368 l 452 297 l 668 297 l 648 201 l 431 201 l 389 0 l 282 0 l 325 201 l 87 201 l 107 297 l 345 297 l 354 340 l 358 396 l 341 438 l 315 469 l 280 500 q 237 546 260 518 q 202 615 214 574 q 190 685 190 656 q 248 863 190 780 q 440 998 313 959 q 555 1015 496 1015 q 732 945 670 1015 q 793 783 793 875 q 792 753 793 773 l 690 736 q 692 768 692 747 q 680 824 692 789 q 626 889 667 859 q 515 920 585 920 q 384 873 445 920 q 304 742 322 827 l 299 716 l 298 694 l 299 674 l 302 656 l 307 642 l 315 628 l 323 614 l 343 590 l 414 517 z "},"ʣ":{"ha":1225,"x_min":149,"x_max":1350,"o":"m 269 366 q 256 250 256 306 q 275 151 256 193 q 389 72 310 72 q 539 151 468 72 q 638 364 610 230 q 650 477 650 422 q 629 577 650 533 q 513 655 592 655 q 366 578 434 655 q 269 366 298 501 m 149 231 l 150 251 q 210 509 155 383 q 385 716 276 659 q 500 747 445 747 q 637 701 601 747 q 685 601 671 659 l 767 986 l 870 986 l 667 33 l 1158 632 l 803 632 l 823 728 l 1350 728 l 832 96 l 1195 96 l 1175 0 l 557 0 l 584 125 q 430 -8 515 19 q 346 -20 395 -20 q 256 1 297 -20 q 158 146 182 39 q 149 231 149 186 z "},"ʤ":{"ha":1158,"x_min":149,"x_max":1301,"o":"m 269 366 q 256 250 256 306 q 275 151 256 193 q 389 72 310 72 q 539 151 468 72 q 638 364 610 230 q 650 477 650 422 q 629 577 650 533 q 513 655 592 655 q 366 578 434 655 q 269 366 298 501 m 149 231 l 150 251 q 210 509 155 383 q 385 716 276 659 q 500 747 445 747 q 637 701 601 747 q 685 601 671 659 l 767 986 l 870 986 l 815 728 l 1301 728 l 961 306 q 998 287 983 298 q 1042 261 1013 276 q 1080 214 1057 253 q 1115 91 1115 157 q 1109 39 1115 62 q 967 -181 1081 -94 q 713 -269 854 -269 q 553 -217 627 -269 q 459 -78 479 -166 l 571 -46 q 630 -137 584 -102 q 733 -172 677 -172 q 905 -114 828 -172 q 1003 39 983 -56 q 1008 84 1008 64 q 965 194 1008 154 q 903 233 936 221 l 798 247 l 1110 633 l 795 633 l 661 0 l 557 0 l 584 125 q 430 -8 515 19 q 346 -20 395 -20 q 256 1 297 -20 q 158 146 182 39 q 149 231 149 186 z "},"ʥ":{"ha":1385,"x_min":149,"x_max":1392,"o":"m 269 366 q 256 250 256 306 q 275 151 256 193 q 389 72 310 72 q 539 151 468 72 q 638 364 610 230 q 650 477 650 422 q 629 577 650 533 q 513 655 592 655 q 366 578 434 655 q 269 366 298 501 m 149 231 l 150 251 q 210 509 155 383 q 385 716 276 659 q 500 747 445 747 q 637 701 601 747 q 685 601 671 659 l 767 986 l 870 986 l 664 16 l 1168 632 l 813 632 l 833 728 l 1360 728 l 842 96 l 911 96 q 994 157 964 139 q 1162 255 1114 232 q 1272 286 1225 286 q 1344 271 1318 286 q 1392 176 1392 243 q 1385 127 1392 170 q 1364 79 1377 93 q 1252 0 1312 22 l 901 0 q 793 -100 865 -31 l 758 -35 l 798 0 l 557 0 l 584 125 q 430 -8 515 19 q 346 -20 395 -20 q 256 1 297 -20 q 158 146 182 39 q 149 231 149 186 m 1018 96 l 1272 96 q 1297 138 1295 132 q 1299 145 1299 145 q 1300 164 1300 145 q 1236 199 1300 199 l 1194 193 q 1019 96 1108 163 l 1018 96 z "},"ʦ":{"ha":823,"x_min":189,"x_max":914,"o":"m 300 636 l 204 636 l 224 728 l 320 728 l 356 897 l 458 897 l 422 728 l 602 728 q 706 744 649 743 q 867 689 817 745 q 914 591 908 642 l 811 570 q 689 653 791 653 q 590 627 635 653 q 531 527 531 593 q 581 452 531 482 q 614 435 599 440 q 635 428 629 431 q 645 423 641 425 q 667 415 657 419 l 728 390 l 759 374 l 786 356 l 810 334 l 829 307 l 842 275 l 846 239 l 842 195 q 736 41 822 102 q 547 -20 650 -20 l 343 -20 q 210 18 243 -20 q 189 78 189 43 q 196 143 189 113 l 300 636 m 467 636 l 403 636 l 299 146 q 296 120 296 130 q 355 66 296 68 q 537 70 467 66 q 679 104 608 73 q 737 195 722 123 q 740 220 740 210 q 732 249 740 231 q 617 323 713 293 q 452 420 494 365 q 425 518 425 458 q 467 636 425 578 z "},"ʧ":{"ha":773,"x_min":180,"x_max":947,"o":"m 269 -150 q 329 -185 285 -185 q 379 -168 355 -185 q 409 -119 403 -150 l 568 636 l 403 636 l 299 146 q 296 121 296 130 q 361 66 296 66 l 409 66 l 391 -20 l 343 -20 q 210 18 243 -20 q 189 78 189 43 q 196 143 189 113 l 300 636 l 204 636 l 224 728 l 320 728 l 356 897 l 458 897 l 422 728 l 588 728 l 608 819 q 706 955 626 901 q 828 1004 779 1004 q 900 990 878 1004 q 947 949 923 977 l 858 878 q 798 913 842 913 q 748 895 772 913 q 718 847 724 877 l 519 -92 q 481 -168 509 -133 q 351 -263 431 -234 q 281 -277 314 -277 q 226 -263 249 -277 q 180 -221 203 -250 l 269 -150 z "},"ʨ":{"ha":978,"x_min":189,"x_max":1076,"o":"m 857 264 q 911 163 911 231 q 904 108 911 136 q 884 67 896 81 q 772 -12 830 9 q 714 -20 760 -18 l 707 -20 q 564 32 624 -20 q 539 58 547 48 q 391 -20 454 -19 l 343 -20 q 210 18 243 -20 q 189 78 189 43 q 196 143 189 113 l 300 636 l 204 636 l 224 728 l 320 728 l 356 897 l 458 897 l 422 728 l 556 728 l 536 636 l 403 636 l 299 146 q 296 121 296 130 q 361 66 296 66 l 409 66 q 501 117 436 66 q 473 243 473 180 q 585 581 473 439 q 878 742 713 742 q 1005 700 956 742 q 1076 593 1054 658 l 977 549 q 939 616 972 582 q 858 650 905 650 q 693 568 772 650 q 588 364 614 486 q 577 269 577 314 q 588 189 577 223 q 783 273 690 261 l 808 275 q 857 264 837 275 m 617 130 q 734 72 659 72 q 792 84 762 72 q 819 133 817 121 l 819 134 q 821 147 821 144 q 799 179 821 170 q 756 188 778 188 l 714 180 q 617 130 662 163 z "},"ʩ":{"ha":1004,"x_min":179,"x_max":1072,"o":"m 966 484 q 837 654 966 654 q 630 477 703 654 q 596 366 610 429 l 518 0 l 415 0 l 550 636 l 417 636 l 282 0 l 179 0 l 314 636 l 220 636 l 239 728 l 333 728 l 353 819 q 451 955 371 901 q 573 1004 524 1004 q 645 990 623 1004 q 692 949 668 977 l 603 878 q 543 913 587 913 q 493 895 517 913 q 463 847 469 877 l 437 728 l 673 728 l 647 605 q 744 707 681 667 q 873 747 807 747 q 1072 538 1064 747 l 1072 522 q 1054 367 1072 453 l 976 1 l 977 0 q 924 -136 966 -47 q 844 -226 900 -182 q 640 -304 743 -304 l 637 -304 l 659 -214 q 789 -164 729 -214 q 869 -22 849 -114 l 951 367 q 966 479 964 428 l 966 484 z "},"ʪ":{"ha":718,"x_min":104,"x_max":821,"o":"m 104 0 l 314 987 l 420 987 l 243 149 l 337 166 q 378 96 347 121 q 473 72 408 72 q 585 104 538 72 q 644 195 631 136 q 646 220 646 210 q 639 249 646 231 q 524 323 620 293 q 359 420 398 368 q 331 507 331 458 q 336 549 331 524 q 435 693 355 642 q 613 745 514 744 q 807 640 758 745 q 821 591 817 618 l 718 570 q 595 653 698 653 q 496 627 541 653 q 437 527 437 593 q 487 452 437 482 q 520 435 505 440 q 541 428 535 431 q 551 423 547 425 q 574 415 564 419 l 635 390 l 665 374 l 692 356 l 717 334 l 735 307 l 749 275 l 753 239 l 748 195 q 643 41 728 102 q 453 -20 557 -20 q 300 23 349 -20 q 237 125 250 65 l 211 0 l 104 0 z "},"ʫ":{"ha":711,"x_min":104,"x_max":839,"o":"m 104 0 l 314 987 l 420 987 l 366 728 l 839 728 l 321 96 l 684 96 l 664 0 l 104 0 m 345 632 l 239 133 l 648 632 l 345 632 z "},"ʬ":{"ha":746,"x_min":161,"x_max":926,"o":"m 583 1025 l 374 587 l 315 587 l 286 1133 l 363 1133 l 372 714 l 567 1128 l 644 1128 l 662 714 l 848 1133 l 926 1133 l 665 587 l 602 587 l 583 1025 m 458 438 l 250 0 l 190 0 l 161 546 l 238 546 l 248 127 l 442 542 l 519 542 l 537 127 l 724 546 l 802 546 l 540 0 l 477 0 l 458 438 z "},"ʭ":{"ha":812,"x_min":111,"x_max":954,"o":"m 184 483 l 847 483 l 773 134 l 666 134 l 720 387 l 271 387 l 218 134 l 111 134 l 184 483 m 292 987 l 954 987 l 880 638 l 773 638 l 827 892 l 379 892 l 325 638 l 218 638 l 292 987 z "},"ʮ":{"ha":825,"x_min":172,"x_max":950,"o":"m 400 262 q 528 93 400 93 q 684 179 619 93 q 769 381 743 258 l 847 747 l 950 747 l 738 -253 l 635 -253 l 719 142 q 622 40 685 80 q 492 0 559 0 q 321 90 368 0 q 294 209 297 134 l 294 229 q 311 380 294 298 l 341 521 l 344 521 l 355 572 q 359 603 359 590 q 304 656 359 656 l 286 654 l 269 648 l 242 632 l 230 623 l 172 692 q 213 722 205 717 q 247 738 221 728 q 297 747 273 747 q 428 685 372 747 q 458 594 458 652 q 454 551 458 572 l 408 340 l 406 340 q 400 269 401 310 l 400 262 z "},"ʯ":{"ha":1024,"x_min":172,"x_max":960,"o":"m 400 262 q 528 93 400 93 q 684 179 619 93 q 769 381 743 258 l 847 747 l 950 747 l 777 -68 q 773 -98 773 -85 q 829 -151 773 -151 l 847 -149 l 863 -144 l 890 -127 l 902 -118 l 960 -187 q 919 -218 927 -212 q 885 -233 911 -223 q 836 -243 859 -243 q 704 -180 761 -243 q 673 -90 673 -148 q 678 -47 673 -68 l 719 142 q 622 40 685 80 q 492 0 559 0 q 321 90 368 0 q 294 209 297 134 l 294 224 q 311 380 294 279 l 344 521 l 355 572 q 359 603 359 590 q 304 656 359 656 l 286 654 l 269 648 l 242 632 l 230 623 l 172 692 q 213 722 205 717 q 247 738 221 728 q 297 747 273 747 q 428 685 372 747 q 458 594 458 652 q 454 551 458 572 l 408 340 l 406 340 q 400 269 401 310 l 400 262 z "},"ˆ":{"ha":709,"x_min":345,"x_max":811,"o":"m 811 1027 l 684 1027 l 608 1171 l 471 1028 l 345 1028 l 582 1260 l 671 1260 l 811 1027 z "},"ˇ":{"ha":720,"x_min":393,"x_max":859,"o":"m 859 1260 l 620 1027 l 531 1027 l 393 1259 l 519 1259 l 595 1116 l 732 1260 l 859 1260 z "},"ˍ":{"ha":644,"x_min":96,"x_max":571,"o":"m 112 -75 l 571 -75 l 555 -146 l 96 -146 l 112 -75 z "},"˘":{"ha":883,"x_min":501,"x_max":916,"o":"m 501 1215 l 505 1242 q 505 1246 505 1245 l 560 1246 q 623 1135 577 1171 q 685 1119 646 1118 q 751 1135 724 1120 q 862 1246 798 1164 l 916 1246 q 916 1243 916 1245 q 915 1240 916 1240 q 844 1118 904 1192 q 761 1053 812 1080 q 664 1027 709 1027 q 579 1053 619 1027 q 520 1127 538 1080 q 501 1215 501 1175 z "},"˙":{"ha":285,"x_min":293,"x_max":422,"o":"m 422 1142 q 419 1129 422 1142 q 393 1096 416 1115 q 346 1077 370 1077 q 308 1092 322 1077 q 293 1134 293 1106 q 319 1183 293 1162 q 370 1205 346 1205 q 408 1191 394 1205 q 422 1142 429 1170 z "},"˚":{"ha":703,"x_min":436,"x_max":762,"o":"m 616 1259 q 599 1259 616 1259 q 545 1228 582 1259 q 509 1157 509 1197 q 528 1097 509 1117 q 582 1076 547 1076 q 653 1107 617 1076 q 690 1198 690 1138 q 670 1238 690 1218 q 616 1259 651 1259 m 436 1137 q 509 1276 436 1218 q 628 1322 567 1322 q 726 1287 690 1322 q 762 1198 762 1252 q 688 1053 762 1113 q 569 1007 631 1007 q 472 1042 508 1007 q 436 1132 436 1078 l 436 1137 z "},"˛":{"ha":321,"x_min":63,"x_max":227,"o":"m 223 -129 l 176 -214 q 170 -210 174 -212 q 144 -192 160 -203 q 94 -151 119 -175 q 66 -112 70 -126 q 63 -88 63 -98 q 79 -29 63 -66 q 147 50 95 9 l 227 12 q 178 -48 184 -28 q 191 -98 170 -77 l 206 -114 q 223 -129 211 -117 z "},"˜":{"ha":498,"x_min":132,"x_max":591,"o":"m 153 518 q 191 545 170 530 q 291 583 243 583 q 355 547 325 583 q 385 511 376 523 q 441 481 412 481 q 544 517 489 481 q 591 547 549 520 l 570 449 q 519 415 536 427 q 440 382 474 382 q 354 418 387 382 q 332 442 353 419 q 270 485 296 485 q 176 450 222 485 q 132 419 163 441 l 153 518 z "},"˝":{"ha":901,"x_min":525,"x_max":1041,"o":"m 768 1034 q 758 1056 758 1043 q 768 1082 758 1069 l 954 1295 q 996 1317 975 1317 q 1028 1305 1016 1317 q 1041 1283 1041 1294 q 1039 1261 1041 1272 q 1022 1235 1037 1251 l 819 1038 q 793 1027 807 1027 q 768 1034 779 1027 m 558 1027 q 525 1059 525 1027 q 535 1082 525 1069 l 720 1295 q 762 1317 742 1317 q 795 1305 783 1317 q 808 1283 808 1294 q 806 1261 808 1272 q 789 1235 804 1251 l 585 1038 q 558 1027 574 1027 z "},"̀":{"ha":0,"x_min":-436,"x_max":-237,"o":"m -431 983 q -436 1000 -436 991 q -433 1022 -436 1009 q -411 1050 -430 1035 q -377 1065 -392 1065 q -336 1044 -344 1063 l -239 831 l -237 822 q -286 776 -248 776 q -308 787 -299 776 l -431 983 z "},"́":{"ha":0,"x_min":-487,"x_max":-203,"o":"m -290 1034 q -246 1057 -271 1057 q -212 1041 -221 1057 q -203 1017 -203 1025 q -204 999 -203 1008 q -221 975 -206 990 l -425 777 q -453 766 -438 766 q -478 775 -469 766 q -487 792 -487 785 q -475 822 -487 806 l -290 1034 z "},"̂":{"ha":0,"x_min":-419,"x_max":47,"o":"m 47 811 l -81 811 l -156 956 l -293 812 l -419 812 l -182 1044 l -94 1044 l 47 811 z "},"̃":{"ha":0,"x_min":-405,"x_max":54,"o":"m -384 947 q -295 1002 -315 993 q -253 1012 -275 1012 q -212 998 -232 1012 q -162 959 -193 983 q -116 923 -132 935 q -82 909 -100 911 q 29 959 -48 908 l 54 976 l 33 878 q -3 854 18 868 q -87 810 -68 810 l -109 810 q -177 847 -134 810 q -238 899 -220 884 q -269 913 -256 913 q -380 866 -313 913 q -389 860 -383 864 q -399 852 -394 857 q -405 848 -404 848 l -384 947 z "},"̄":{"ha":0,"x_min":-420,"x_max":55,"o":"m -404 896 l 55 896 l 39 824 l -420 824 l -404 896 z "},"̆":{"ha":0,"x_min":-369,"x_max":145,"o":"m -255 1018 q -242 980 -252 996 q -134 902 -207 902 q 10 977 -44 902 l 40 1017 l 145 1017 q 71 911 113 956 q -153 810 -26 810 q -334 908 -277 810 q -369 1018 -360 952 l -255 1018 z "}}}
